STARTFONT 2.2
FONT -FontForge-FZCuKaiSRGB-Book-R-Normal--26-250-75-75-P-258-ISO10646-1
SIZE 26 75 75
FONTBOUNDINGBOX 26 27 0 -4
METRICSSET 2
SWIDTH 1000 0
DWIDTH 26 0
SWIDTH1 1000 0
DWIDTH1 26 0
VVECTOR 13,21
COMMENT "Generated by fontforge, http://fontforge.sourceforge.net"
COMMENT "Copyright(c) Beijing Founder Electronics Co.,Ltd.2012"
STARTPROPERTIES 39
FOUNDRY "FontForge"
FAMILY_NAME "FZCuKaiSRGB"
WEIGHT_NAME "Book"
SLANT "R"
SETWIDTH_NAME "Normal"
ADD_STYLE_NAME ""
PIXEL_SIZE 26
POINT_SIZE 250
RESOLUTION_X 75
RESOLUTION_Y 75
SPACING "P"
AVERAGE_WIDTH 258
CHARSET_REGISTRY "ISO10646"
CHARSET_ENCODING "1"
FONTNAME_REGISTRY ""
CHARSET_COLLECTIONS "ISO8859-5 JISX0208.1997 GB2312.1980 BIG5 ISO10646-1"
FONT_NAME "FZCKJW--GB1-0"
FACE_NAME "FZCuKaiS-R-GB"
COPYRIGHT "Copyright(c) Beijing Founder Electronics Co.,Ltd.2012"
FONT_VERSION "1.00"
FONT_ASCENT 21
FONT_DESCENT 5
UNDERLINE_POSITION -6
UNDERLINE_THICKNESS 2
X_HEIGHT 11
CAP_HEIGHT 15
RAW_ASCENT 796
RAW_DESCENT 203
NORM_SPACE 8
RELATIVE_WEIGHT 40
RELATIVE_SETWIDTH 50
SUPERSCRIPT_X 0
SUPERSCRIPT_Y 13
SUPERSCRIPT_SIZE 13
SUBSCRIPT_X 0
SUBSCRIPT_Y 1
SUBSCRIPT_SIZE 13
AVG_LOWERCASE_WIDTH 237
AVG_UPPERCASE_WIDTH 235
ENDPROPERTIES
CHARS 8104
STARTCHAR space
ENCODING 32
SWIDTH 296 0
DWIDTH 8 0
BBX 1 1 0 0
BITMAP
00
ENDCHAR
STARTCHAR exclam
ENCODING 33
SWIDTH 464 0
DWIDTH 12 0
BBX 4 15 4 1
BITMAP
60
F0
F0
F0
E0
E0
E0
60
60
60
00
40
F0
F0
20
ENDCHAR
STARTCHAR quotedbl
ENCODING 34
SWIDTH 503 0
DWIDTH 13 0
BBX 9 6 1 11
BITMAP
0100
1980
1980
3B80
7700
CC00
ENDCHAR
STARTCHAR numbersign
ENCODING 35
SWIDTH 632 0
DWIDTH 16 0
BBX 16 17 0 0
BITMAP
00E0
0870
0C70
0C7C
0FFE
FFF0
1E70
1C70
1C74
1FFE
FFFF
7C70
1C70
1C70
0C60
0060
0040
ENDCHAR
STARTCHAR dollar
ENCODING 36
SWIDTH 566 0
DWIDTH 15 0
BBX 12 17 1 0
BITMAP
0600
0700
1FE0
3370
7370
7A00
3E00
1F80
07E0
03F0
6270
E270
E670
7FE0
1F80
0700
0200
ENDCHAR
STARTCHAR percent
ENCODING 37
SWIDTH 753 0
DWIDTH 20 0
BBX 16 15 2 1
BITMAP
001C
1038
7C38
CE70
CEF0
ECE0
7DC0
0380
077E
0EF7
1EE7
3CEF
787E
7000
2000
ENDCHAR
STARTCHAR ampersand
ENCODING 38
SWIDTH 722 0
DWIDTH 19 0
BBX 14 15 2 1
BITMAP
1F80
39C0
38C0
39C0
1F80
1F00
1E00
3E00
7730
E7B8
E3F0
E1E4
F7FC
7F7C
0018
ENDCHAR
STARTCHAR quotesingle
ENCODING 39
SWIDTH 304 0
DWIDTH 8 0
BBX 5 5 1 11
BITMAP
30
38
38
70
C0
ENDCHAR
STARTCHAR parenleft
ENCODING 40
SWIDTH 457 0
DWIDTH 12 0
BBX 7 20 4 0
BITMAP
06
0C
18
30
70
60
E0
E0
C0
C0
C0
C0
C0
E0
60
70
30
18
0C
06
ENDCHAR
STARTCHAR parenright
ENCODING 41
SWIDTH 457 0
DWIDTH 12 0
BBX 7 20 1 0
BITMAP
C0
60
30
38
1C
0C
0E
0E
06
06
06
06
0E
0E
0C
1C
18
30
60
C0
ENDCHAR
STARTCHAR asterisk
ENCODING 42
SWIDTH 617 0
DWIDTH 16 0
BBX 14 12 1 4
BITMAP
0300
0300
E31C
FB78
1FE0
0F80
1FE0
7B78
F33C
6708
0300
0100
ENDCHAR
STARTCHAR plus
ENCODING 43
SWIDTH 582 0
DWIDTH 15 0
BBX 13 11 1 3
BITMAP
0200
0200
0200
0200
FFF8
FFF8
0200
0200
0200
0200
0200
ENDCHAR
STARTCHAR comma
ENCODING 44
SWIDTH 328 0
DWIDTH 9 0
BBX 5 5 2 0
BITMAP
F0
F8
78
70
C0
ENDCHAR
STARTCHAR hyphen
ENCODING 45
SWIDTH 578 0
DWIDTH 15 0
BBX 13 2 1 8
BITMAP
FFF8
FFF8
ENDCHAR
STARTCHAR period
ENCODING 46
SWIDTH 320 0
DWIDTH 8 0
BBX 4 4 2 1
BITMAP
70
F0
F0
20
ENDCHAR
STARTCHAR slash
ENCODING 47
SWIDTH 597 0
DWIDTH 16 0
BBX 13 20 1 0
BITMAP
0018
0018
0030
0030
0060
00C0
00C0
0180
0180
0300
0600
0600
0C00
0C00
1800
3000
3000
6000
6000
C000
ENDCHAR
STARTCHAR zero
ENCODING 48
SWIDTH 582 0
DWIDTH 15 0
BBX 13 15 1 1
BITMAP
0FC0
1FE0
3830
7830
7038
7038
F038
F038
F038
F078
7070
7070
39E0
1FC0
0600
ENDCHAR
STARTCHAR one
ENCODING 49
SWIDTH 535 0
DWIDTH 14 0
BBX 6 15 3 1
BITMAP
1C
3C
FC
1C
18
18
18
18
38
38
3C
3C
3C
3C
08
ENDCHAR
STARTCHAR two
ENCODING 50
SWIDTH 574 0
DWIDTH 15 0
BBX 11 15 2 1
BITMAP
3F80
7FC0
F1E0
E0E0
01E0
01C0
0380
0F00
1E00
3C00
7800
7020
FFE0
FFC0
6000
ENDCHAR
STARTCHAR three
ENCODING 51
SWIDTH 574 0
DWIDTH 15 0
BBX 11 15 2 1
BITMAP
7F80
FBC0
E1C0
01C0
01C0
0780
3F00
1F80
01C0
01E0
C0E0
C1E0
F3C0
7F80
1C00
ENDCHAR
STARTCHAR four
ENCODING 52
SWIDTH 570 0
DWIDTH 15 0
BBX 13 15 1 1
BITMAP
0180
0380
0780
0780
0FC0
1DC0
39C0
71C0
F1D8
FFF8
FFF0
01C0
01C0
01C0
0080
ENDCHAR
STARTCHAR five
ENCODING 53
SWIDTH 574 0
DWIDTH 15 0
BBX 11 15 2 1
BITMAP
60E0
7FC0
7600
7000
7000
7F00
7FC0
71E0
01E0
00E0
61E0
E1E0
F3C0
7F80
0C00
ENDCHAR
STARTCHAR six
ENCODING 54
SWIDTH 574 0
DWIDTH 15 0
BBX 11 15 2 1
BITMAP
1FC0
39E0
70E0
71C0
E000
EF00
FFC0
F1E0
E0E0
E0E0
E0E0
F0E0
79C0
3F80
0C00
ENDCHAR
STARTCHAR seven
ENCODING 55
SWIDTH 574 0
DWIDTH 15 0
BBX 12 15 2 1
BITMAP
1FE0
FFF0
79E0
01C0
0380
0780
0700
0E00
0E00
1E00
1C00
1C00
3C00
1C00
0800
ENDCHAR
STARTCHAR eight
ENCODING 56
SWIDTH 550 0
DWIDTH 14 0
BBX 12 15 1 1
BITMAP
1F80
31C0
70F0
70E0
7BC0
3F80
1F00
3FC0
79E0
70F0
E0F0
E0F0
71E0
3FC0
0E00
ENDCHAR
STARTCHAR nine
ENCODING 57
SWIDTH 535 0
DWIDTH 14 0
BBX 12 15 1 1
BITMAP
1FE0
3FF0
70F0
E0E0
E0E0
E1C0
FFC0
7F80
0380
0380
0380
0780
0780
0780
0300
ENDCHAR
STARTCHAR colon
ENCODING 58
SWIDTH 421 0
DWIDTH 11 0
BBX 5 11 3 1
BITMAP
40
F8
78
38
00
00
00
70
78
78
10
ENDCHAR
STARTCHAR semicolon
ENCODING 59
SWIDTH 468 0
DWIDTH 12 0
BBX 5 12 4 0
BITMAP
40
F8
78
38
00
00
00
F0
F8
78
70
E0
ENDCHAR
STARTCHAR less
ENCODING 60
SWIDTH 574 0
DWIDTH 15 0
BBX 9 19 4 -1
BITMAP
0380
0700
0E00
0C00
1C00
3800
3000
6000
E000
E000
6000
7000
3800
1C00
0C00
0600
0700
0380
0100
ENDCHAR
STARTCHAR equal
ENCODING 61
SWIDTH 574 0
DWIDTH 15 0
BBX 13 6 1 6
BITMAP
FFF8
FFF8
0000
0000
0000
FFF8
ENDCHAR
STARTCHAR greater
ENCODING 62
SWIDTH 574 0
DWIDTH 15 0
BBX 9 20 2 -1
BITMAP
8000
E000
7000
3000
3800
1C00
0E00
0600
0700
0380
0380
0300
0700
0E00
1C00
1800
3000
7000
E000
4000
ENDCHAR
STARTCHAR question
ENCODING 63
SWIDTH 566 0
DWIDTH 15 0
BBX 12 15 1 1
BITMAP
1FC0
7DE0
F0F0
E0E0
01E0
01C0
0380
0700
0600
0600
0000
0000
0F00
0F00
0200
ENDCHAR
STARTCHAR at
ENCODING 64
SWIDTH 695 0
DWIDTH 18 0
BBX 16 15 1 1
BITMAP
07F0
1F3C
380E
73F6
6737
E6F3
EC67
CC67
CC6E
EFFC
67F8
7002
3C1C
1FF8
03C0
ENDCHAR
STARTCHAR A
ENCODING 65
SWIDTH 656 0
DWIDTH 17 0
BBX 15 16 1 1
BITMAP
0060
00E0
00F0
00F0
01F0
03F8
0338
0738
0E3C
0FFC
1FDC
381E
781E
F01E
E00E
4004
ENDCHAR
STARTCHAR B
ENCODING 66
SWIDTH 609 0
DWIDTH 16 0
BBX 13 16 2 1
BITMAP
1000
3FC0
3FE0
70F0
70F0
71E0
6380
7F80
FFE0
E078
E078
E078
E0F0
FFE0
FFC0
6000
ENDCHAR
STARTCHAR C
ENCODING 67
SWIDTH 574 0
DWIDTH 15 0
BBX 13 15 1 1
BITMAP
07E0
1FF0
3830
3800
7000
7000
7000
F000
F000
7008
7018
7838
3FF0
1FE0
0700
ENDCHAR
STARTCHAR D
ENCODING 68
SWIDTH 613 0
DWIDTH 16 0
BBX 13 16 1 1
BITMAP
0800
7F00
7FC0
38E0
3870
3870
3878
7078
7078
7078
7078
7078
F0F0
FFE0
EFC0
6000
ENDCHAR
STARTCHAR E
ENCODING 69
SWIDTH 582 0
DWIDTH 15 0
BBX 13 15 1 1
BITMAP
19E0
3FF0
3A00
3800
3800
3980
7FE0
7700
7000
7000
7008
FFF8
FFE0
7700
2000
ENDCHAR
STARTCHAR F
ENCODING 70
SWIDTH 550 0
DWIDTH 14 0
BBX 13 16 1 1
BITMAP
0800
1FF0
7FF8
FC00
3800
3800
3800
3FE0
3FC0
3800
7000
7000
7000
7000
7000
3000
ENDCHAR
STARTCHAR G
ENCODING 71
SWIDTH 601 0
DWIDTH 16 0
BBX 12 15 2 1
BITMAP
0FE0
1CF0
38F0
7000
7000
E000
E0E0
E7F0
E070
E070
F0F0
7FF0
7F70
0CF0
0020
ENDCHAR
STARTCHAR H
ENCODING 72
SWIDTH 648 0
DWIDTH 17 0
BBX 12 15 2 1
BITMAP
1070
3070
7070
7070
70E0
70E0
7FE0
FFE0
E0E0
E0E0
E0E0
E0F0
E0F0
6070
0020
ENDCHAR
STARTCHAR I
ENCODING 73
SWIDTH 347 0
DWIDTH 9 0
BBX 5 15 2 1
BITMAP
38
78
78
70
70
70
70
70
70
70
F0
F0
F0
70
20
ENDCHAR
STARTCHAR J
ENCODING 74
SWIDTH 488 0
DWIDTH 13 0
BBX 9 15 1 1
BITMAP
0380
0780
0780
0700
0700
0700
0700
0700
0700
0700
4700
CE00
FE00
FC00
3000
ENDCHAR
STARTCHAR K
ENCODING 75
SWIDTH 632 0
DWIDTH 16 0
BBX 13 15 2 1
BITMAP
3870
3870
70E0
71C0
7700
7E00
7C00
7F00
7700
7380
F388
F398
F1F0
E1F0
2000
ENDCHAR
STARTCHAR L
ENCODING 76
SWIDTH 589 0
DWIDTH 15 0
BBX 11 14 3 2
BITMAP
1C00
3800
7800
7000
7000
7000
7000
7000
7000
7000
F020
E060
FFE0
FF80
ENDCHAR
STARTCHAR M
ENCODING 77
SWIDTH 753 0
DWIDTH 20 0
BBX 18 15 0 1
BITMAP
01C7C0
03C7C0
07C7C0
07CDC0
06CD80
0ECD80
0ED980
0CD980
1CFB80
1CF380
1DF3C0
38E3C0
3803C0
7001C0
C00080
ENDCHAR
STARTCHAR N
ENCODING 78
SWIDTH 628 0
DWIDTH 16 0
BBX 14 15 1 1
BITMAP
1838
3E3C
3E3C
3E3C
3E38
3E38
3F38
3338
7330
73F0
71F0
E1F0
E1F0
C0F0
8000
ENDCHAR
STARTCHAR O
ENCODING 79
SWIDTH 593 0
DWIDTH 15 0
BBX 13 15 1 1
BITMAP
07E0
1FE0
3870
3838
7038
7038
F038
F038
F038
F038
7070
7070
39E0
3FC0
0400
ENDCHAR
STARTCHAR P
ENCODING 80
SWIDTH 562 0
DWIDTH 15 0
BBX 13 16 1 1
BITMAP
0800
1FC0
FFF0
3870
3878
3878
3870
38F0
7FE0
7000
7000
7000
7000
7000
7000
2000
ENDCHAR
STARTCHAR Q
ENCODING 81
SWIDTH 613 0
DWIDTH 16 0
BBX 14 15 1 1
BITMAP
07E0
1E60
3860
3830
7038
7038
7038
F038
F038
7738
73F0
71F0
3FE4
1FF8
0030
ENDCHAR
STARTCHAR R
ENCODING 82
SWIDTH 621 0
DWIDTH 16 0
BBX 15 16 1 1
BITMAP
0C00
1FC0
7FF0
D878
3838
3838
3878
3FF0
3FC0
3F80
73C0
71C0
70E6
70FC
7078
2020
ENDCHAR
STARTCHAR S
ENCODING 83
SWIDTH 574 0
DWIDTH 15 0
BBX 13 15 1 1
BITMAP
1FE0
3870
7078
7800
3C00
1F00
0FC0
03E0
00F0
3070
7070
F070
70F0
3FC0
0600
ENDCHAR
STARTCHAR T
ENCODING 84
SWIDTH 597 0
DWIDTH 16 0
BBX 14 15 1 1
BITMAP
0FF8
FFFC
FF00
0700
0700
0700
0700
0700
0700
0F00
0F00
0F00
0E00
0E00
0400
ENDCHAR
STARTCHAR U
ENCODING 85
SWIDTH 652 0
DWIDTH 17 0
BBX 13 15 2 1
BITMAP
7878
F078
7078
7078
F078
F078
F078
F078
F070
F070
7070
70F0
78E0
3FC0
0600
ENDCHAR
STARTCHAR V
ENCODING 86
SWIDTH 636 0
DWIDTH 17 0
BBX 13 15 2 1
BITMAP
E0F0
E078
F078
F078
F070
7070
7070
70E0
70E0
30E0
31C0
3980
1B80
1F00
0400
ENDCHAR
STARTCHAR W
ENCODING 87
SWIDTH 777 0
DWIDTH 20 0
BBX 18 15 1 1
BITMAP
E00380
F1C3C0
71E3C0
79E3C0
39E3C0
396380
3B6380
3B6380
3B6700
3E7700
3E7E00
3E3E00
3C3C00
3C3C00
081800
ENDCHAR
STARTCHAR X
ENCODING 88
SWIDTH 699 0
DWIDTH 18 0
BBX 16 15 1 1
BITMAP
301F
FC3C
3C38
1E70
0FE0
07E0
03C0
03C0
07E0
0E70
1E38
3C3C
781E
701E
6004
ENDCHAR
STARTCHAR Y
ENCODING 89
SWIDTH 640 0
DWIDTH 17 0
BBX 15 16 1 1
BITMAP
0030
603C
F01E
783C
3C78
1C70
0EC0
0780
0380
0380
0380
0380
0780
0780
0780
0100
ENDCHAR
STARTCHAR Z
ENCODING 90
SWIDTH 613 0
DWIDTH 16 0
BBX 14 14 1 2
BITMAP
07F8
7FF8
3CF8
00F0
01E0
03C0
0380
0700
0E00
1C00
7804
FC1C
FFF8
07F0
ENDCHAR
STARTCHAR bracketleft
ENCODING 91
SWIDTH 574 0
DWIDTH 15 0
BBX 9 20 4 0
BITMAP
FF00
FF00
C000
C000
C000
C000
C000
C000
C000
C000
C000
C000
C000
C000
C000
C000
C000
C000
FF00
FF80
ENDCHAR
STARTCHAR backslash
ENCODING 92
SWIDTH 597 0
DWIDTH 16 0
BBX 13 20 1 0
BITMAP
C000
6000
6000
3000
3000
1800
0C00
0C00
0600
0600
0300
0180
0180
00C0
00C0
0060
0020
0030
0018
0018
ENDCHAR
STARTCHAR bracketright
ENCODING 93
SWIDTH 574 0
DWIDTH 15 0
BBX 9 20 2 0
BITMAP
FF80
7F80
0180
0180
0180
0180
0180
0180
0180
0180
0180
0180
0180
0180
0180
0180
0180
0180
FF80
FF80
ENDCHAR
STARTCHAR asciicircum
ENCODING 94
SWIDTH 558 0
DWIDTH 15 0
BBX 12 4 1 12
BITMAP
0F00
1F80
38C0
F070
ENDCHAR
STARTCHAR underscore
ENCODING 95
SWIDTH 574 0
DWIDTH 15 0
BBX 13 1 1 1
BITMAP
FFF8
ENDCHAR
STARTCHAR grave
ENCODING 96
SWIDTH 433 0
DWIDTH 11 0
BBX 7 4 2 12
BITMAP
F0
F0
78
1E
ENDCHAR
STARTCHAR a
ENCODING 97
SWIDTH 562 0
DWIDTH 15 0
BBX 13 11 1 1
BITMAP
0100
0FE0
3C70
38E0
71C0
71C0
E1C0
F1C8
73F8
7FF0
0C40
ENDCHAR
STARTCHAR b
ENCODING 98
SWIDTH 570 0
DWIDTH 15 0
BBX 12 15 2 1
BITMAP
1800
3000
7000
7000
7000
7000
7FC0
71E0
E0F0
E070
E070
E0F0
FFE0
EF00
6000
ENDCHAR
STARTCHAR c
ENCODING 99
SWIDTH 535 0
DWIDTH 14 0
BBX 11 11 2 1
BITMAP
0400
3F80
73C0
F180
E000
E000
E020
E0E0
F3C0
7F80
0E00
ENDCHAR
STARTCHAR d
ENCODING 100
SWIDTH 574 0
DWIDTH 15 0
BBX 14 15 1 1
BITMAP
00E0
00E0
00E0
00E0
01E0
0FE0
1DC0
79C0
71C0
E1C0
E1CC
E1C8
F7F8
7FF0
1040
ENDCHAR
STARTCHAR e
ENCODING 101
SWIDTH 511 0
DWIDTH 13 0
BBX 12 11 1 1
BITMAP
0100
0FE0
3CE0
79E0
73C0
FF80
F010
F060
79E0
7F80
0C00
ENDCHAR
STARTCHAR f
ENCODING 102
SWIDTH 492 0
DWIDTH 13 0
BBX 11 18 1 -2
BITMAP
07E0
0660
0E00
0E00
0C60
7FC0
FC00
1C00
1C00
1C00
1C00
1C00
1C00
1C00
3800
3800
F000
E000
ENDCHAR
STARTCHAR g
ENCODING 103
SWIDTH 554 0
DWIDTH 14 0
BBX 13 14 1 -3
BITMAP
1FE0
7C70
7018
F0E0
F1E0
7FC0
3DF0
03C0
0FC0
3F80
3380
7300
3F00
0800
ENDCHAR
STARTCHAR h
ENCODING 104
SWIDTH 582 0
DWIDTH 15 0
BBX 13 15 1 1
BITMAP
0780
0CC0
0DC0
1FC0
1F80
1E00
79E0
BFE0
3CE0
38E0
39C0
71C8
71F8
70F0
0040
ENDCHAR
STARTCHAR i
ENCODING 105
SWIDTH 367 0
DWIDTH 10 0
BBX 8 16 1 1
BITMAP
10
1E
1E
18
00
00
3C
FC
38
38
38
38
79
7F
3E
18
ENDCHAR
STARTCHAR j
ENCODING 106
SWIDTH 417 0
DWIDTH 11 0
BBX 8 19 2 -3
BITMAP
1E
0E
1C
00
08
3C
FC
7C
1C
1F
1E
1C
3C
7C
FC
D8
F8
F0
40
ENDCHAR
STARTCHAR k
ENCODING 107
SWIDTH 562 0
DWIDTH 15 0
BBX 14 15 0 1
BITMAP
0780
0EC0
0CC0
1D80
1F00
1EF0
1DF8
3F38
DE70
1DE0
1D80
3DC4
3CFC
1CF8
0800
ENDCHAR
STARTCHAR l
ENCODING 108
SWIDTH 441 0
DWIDTH 11 0
BBX 9 16 2 1
BITMAP
0200
0600
1C00
3800
3800
7000
7000
F000
F000
F000
F000
E080
F300
FF00
7E00
1000
ENDCHAR
STARTCHAR m
ENCODING 109
SWIDTH 628 0
DWIDTH 16 0
BBX 14 11 1 1
BITMAP
0210
7FF8
FBB8
7338
7770
7770
7770
7770
777C
773C
0010
ENDCHAR
STARTCHAR n
ENCODING 110
SWIDTH 582 0
DWIDTH 15 0
BBX 13 11 1 1
BITMAP
1000
7BE0
FEE0
1CE0
38E0
38E0
39C0
39C8
71D8
31F0
1060
ENDCHAR
STARTCHAR o
ENCODING 111
SWIDTH 535 0
DWIDTH 14 0
BBX 12 11 1 1
BITMAP
0100
0FC0
3C60
7870
7030
F060
F060
F0E0
7FC0
3F80
0C00
ENDCHAR
STARTCHAR p
ENCODING 112
SWIDTH 570 0
DWIDTH 15 0
BBX 13 13 1 -2
BITMAP
1F80
7FE0
FC70
3878
3878
3870
38F0
7FC0
7800
7000
7000
7000
7000
ENDCHAR
STARTCHAR q
ENCODING 113
SWIDTH 531 0
DWIDTH 14 0
BBX 11 15 1 -3
BITMAP
0080
0FE0
3EE0
79C0
73C0
E3C0
E380
FF80
7F00
2700
0720
0EE0
0FE0
0F80
0400
ENDCHAR
STARTCHAR r
ENCODING 114
SWIDTH 582 0
DWIDTH 15 0
BBX 13 11 1 1
BITMAP
3000
F878
3CF8
0FC0
0F00
0E00
0E00
0E00
0E00
0E00
0400
ENDCHAR
STARTCHAR s
ENCODING 115
SWIDTH 472 0
DWIDTH 12 0
BBX 10 11 1 1
BITMAP
0C00
7F80
7FC0
7800
3E00
0F00
0780
0380
FF80
7F00
0C00
ENDCHAR
STARTCHAR t
ENCODING 116
SWIDTH 472 0
DWIDTH 12 0
BBX 10 15 1 1
BITMAP
0F00
0F00
0F00
0E00
0F80
7FC0
FF00
1E00
1C00
1C00
1C00
3C40
3D80
1F80
0E00
ENDCHAR
STARTCHAR u
ENCODING 117
SWIDTH 589 0
DWIDTH 15 0
BBX 14 11 1 1
BITMAP
0020
3CF0
78E0
F8E0
38E0
38E0
38E0
38EC
39F8
3FF8
0C20
ENDCHAR
STARTCHAR v
ENCODING 118
SWIDTH 550 0
DWIDTH 14 0
BBX 13 10 1 1
BITMAP
F1C0
F1D8
71F0
71E0
7180
6300
6300
7700
3E00
0800
ENDCHAR
STARTCHAR w
ENCODING 119
SWIDTH 679 0
DWIDTH 18 0
BBX 16 11 1 1
BITMAP
1000
7BBC
FB9D
7B9F
7396
7390
7330
7330
7FF0
3DE0
18C0
ENDCHAR
STARTCHAR x
ENCODING 120
SWIDTH 582 0
DWIDTH 15 0
BBX 14 11 1 1
BITMAP
0010
3878
7EE0
CFC0
0780
0700
1F80
3F8C
79F8
F1F0
C040
ENDCHAR
STARTCHAR y
ENCODING 121
SWIDTH 503 0
DWIDTH 13 0
BBX 12 15 1 -3
BITMAP
2040
F1E0
73C0
7180
7380
7380
7F80
7FF0
13C0
0F80
3F00
7300
6700
7E00
1000
ENDCHAR
STARTCHAR z
ENCODING 122
SWIDTH 554 0
DWIDTH 14 0
BBX 13 11 1 1
BITMAP
0080
7FF0
7DE0
03C0
0780
0E00
1C00
3808
FE70
FFE0
0380
ENDCHAR
STARTCHAR braceleft
ENCODING 123
SWIDTH 574 0
DWIDTH 15 0
BBX 10 20 3 0
BITMAP
0FC0
0E00
1C00
1C00
1C00
1C00
1C00
1C00
1C00
3800
F000
3800
1800
1800
1800
1800
1800
1800
1C00
0F80
ENDCHAR
STARTCHAR bar
ENCODING 124
SWIDTH 554 0
DWIDTH 14 0
BBX 2 20 6 0
BITMAP
C0
C0
C0
C0
C0
C0
C0
C0
C0
C0
C0
C0
C0
C0
C0
C0
C0
C0
C0
C0
ENDCHAR
STARTCHAR braceright
ENCODING 125
SWIDTH 574 0
DWIDTH 15 0
BBX 10 20 3 0
BITMAP
F800
1C00
0C00
0C00
0C00
0C00
0C00
0C00
0E00
0700
03C0
0700
0E00
0E00
0E00
0E00
0E00
0E00
0C00
7C00
ENDCHAR
STARTCHAR asciitilde
ENCODING 126
SWIDTH 546 0
DWIDTH 14 0
BBX 11 3 2 7
BITMAP
7E60
FFC0
0180
ENDCHAR
STARTCHAR currency
ENCODING 164
BBX 14 13 6 2
BITMAP
C01C
6FF8
3FF0
3870
3030
7038
6038
3030
3030
1CE0
7FF8
E79C
C00C
ENDCHAR
STARTCHAR section
ENCODING 167
BBX 12 15 7 1
BITMAP
3FE0
6070
6020
3800
0F00
73C0
C070
E030
78F0
1F80
01C0
6060
C070
7FE0
0600
ENDCHAR
STARTCHAR dieresis
ENCODING 168
BBX 6 3 10 13
BITMAP
CC
CC
CC
ENDCHAR
STARTCHAR degree
ENCODING 176
BBX 7 6 3 10
BITMAP
7C
6C
C6
C6
FC
18
ENDCHAR
STARTCHAR plusminus
ENCODING 177
BBX 14 11 6 4
BITMAP
0300
0300
0300
0300
FFFC
0300
0300
0300
0300
0000
FFFC
ENDCHAR
STARTCHAR periodcentered
ENCODING 183
BBX 4 4 11 7
BITMAP
60
F0
F0
60
ENDCHAR
STARTCHAR multiply
ENCODING 215
BBX 12 10 7 4
BITMAP
8010
E070
70C0
1980
0F00
0F00
1980
70E0
C030
8010
ENDCHAR
STARTCHAR agrave
ENCODING 224
BBX 13 17 6 1
BITMAP
0400
0F00
0700
0080
0040
0000
0100
0FE0
1C70
38E0
70C0
71C0
F1C0
71C8
7BF8
3FF0
0C40
ENDCHAR
STARTCHAR aacute
ENCODING 225
BBX 13 17 6 1
BITMAP
0040
0080
0780
0700
0600
0000
0100
0FE0
1C70
38E0
70C0
71C0
F1C0
71C8
7BF8
3FF0
0C40
ENDCHAR
STARTCHAR egrave
ENCODING 232
BBX 12 17 7 1
BITMAP
0800
1E00
0E00
0100
0080
0000
0100
0FE0
3CE0
79E0
73C0
FF80
E010
F060
79E0
7F80
0C00
ENDCHAR
STARTCHAR eacute
ENCODING 233
BBX 12 17 7 1
BITMAP
0080
0100
0F00
0E00
0C00
0000
0100
0FE0
3CE0
79E0
73C0
FF80
E010
F060
79E0
7F80
0C00
ENDCHAR
STARTCHAR ecircumflex
ENCODING 234
BBX 12 16 7 1
BITMAP
0600
0F00
1080
0000
0000
0100
0FE0
3CE0
79E0
73C0
FF80
E010
F060
79E0
7F80
0C00
ENDCHAR
STARTCHAR igrave
ENCODING 236
BBX 8 17 9 1
BITMAP
20
78
38
04
02
00
08
3C
FC
3C
38
38
38
39
3B
3E
18
ENDCHAR
STARTCHAR iacute
ENCODING 237
BBX 8 17 9 1
BITMAP
02
04
3C
38
30
00
08
3C
FC
3C
38
38
38
39
3B
3E
18
ENDCHAR
STARTCHAR ograve
ENCODING 242
BBX 12 17 7 1
BITMAP
0800
1E00
0E00
0100
0080
0000
0100
0FE0
3C60
3870
7030
F070
F060
F0E0
7FC0
3F80
0C00
ENDCHAR
STARTCHAR oacute
ENCODING 243
BBX 12 17 7 1
BITMAP
0080
0100
0F00
0E00
0C00
0000
0100
0FE0
3C60
3870
7030
F070
F060
F0E0
7FC0
3F80
0E00
ENDCHAR
STARTCHAR divide
ENCODING 247
BBX 14 12 6 3
BITMAP
0300
0780
0300
0000
0000
FFFC
FFFC
0000
0000
0300
0780
0300
ENDCHAR
STARTCHAR ugrave
ENCODING 249
BBX 14 17 6 1
BITMAP
0400
0F00
0700
0080
0040
0000
0020
3CF0
7CF0
F8E0
78E0
38E0
38E0
38E4
39FC
1F78
0C20
ENDCHAR
STARTCHAR uacute
ENCODING 250
BBX 14 17 6 1
BITMAP
0040
0080
0780
0700
0600
0000
0020
3CF0
7CF0
F8E0
78E0
38E0
38E0
38E4
39FC
1F78
0C20
ENDCHAR
STARTCHAR udieresis
ENCODING 252
BBX 14 14 6 1
BITMAP
0CC0
0CC0
0000
0020
3CF0
7CF0
F8E0
78E0
38E0
38E0
38E4
39FC
1F78
0C20
ENDCHAR
STARTCHAR amacron
ENCODING 257
BBX 13 14 6 1
BITMAP
0FC0
0000
0000
0100
0FE0
1C70
38E0
70C0
71C0
F1C0
71C8
7BF8
3FF0
0C40
ENDCHAR
STARTCHAR emacron
ENCODING 275
BBX 12 14 7 1
BITMAP
1F80
0000
0000
0100
0FE0
3CE0
79E0
73C0
FF80
E010
F060
79E0
7F80
0C00
ENDCHAR
STARTCHAR ecaron
ENCODING 283
BBX 12 16 7 1
BITMAP
2040
1980
0F00
0600
0000
0100
0FE0
3CE0
79E0
73C0
FF80
E010
F060
79E0
7F80
0C00
ENDCHAR
STARTCHAR imacron
ENCODING 299
BBX 8 14 9 1
BITMAP
7E
00
00
08
3C
FC
3C
38
38
38
39
3B
3E
18
ENDCHAR
STARTCHAR nacute
ENCODING 324
BBX 14 17 6 1
BITMAP
0040
0080
0780
0700
0600
0000
1000
7FF0
FF70
1C60
1CE0
38E0
38E0
38E4
39F8
38F0
1060
ENDCHAR
STARTCHAR ncaron
ENCODING 328
BBX 14 16 6 1
BITMAP
1020
0CC0
0780
0300
0000
1000
7FF0
FF70
1C60
1CE0
38E0
38E0
38E4
39F8
38F0
1060
ENDCHAR
STARTCHAR omacron
ENCODING 333
BBX 12 14 7 1
BITMAP
1F80
0000
0000
0100
0FE0
3C60
3870
7030
F070
F060
F0E0
7FC0
3F80
0E00
ENDCHAR
STARTCHAR umacron
ENCODING 363
BBX 14 14 6 1
BITMAP
0FC0
0000
0000
0020
3CF0
7CF0
F8E0
78E0
38E0
38E0
38E4
39FC
1F78
0C20
ENDCHAR
STARTCHAR uni01CE
ENCODING 462
BBX 13 16 6 1
BITMAP
1020
0CC0
0780
0300
0000
0100
0FE0
1C70
38E0
70C0
71C0
F1C0
71C8
7BF8
3FF0
0C40
ENDCHAR
STARTCHAR uni01D0
ENCODING 464
BBX 8 16 9 1
BITMAP
81
66
3C
18
00
08
3C
FC
3C
38
38
38
39
3B
3E
18
ENDCHAR
STARTCHAR uni01D2
ENCODING 466
BBX 12 16 7 1
BITMAP
2040
1980
0F00
0600
0000
0100
0FE0
3C60
3870
7030
F070
F060
F0E0
7FC0
3F80
0C00
ENDCHAR
STARTCHAR uni01D4
ENCODING 468
BBX 14 16 6 1
BITMAP
1020
0CC0
0780
0300
0000
0020
3CF0
7CF0
F8E0
78E0
38E0
38E0
38E4
39FC
1F78
0C20
ENDCHAR
STARTCHAR uni01D6
ENCODING 470
BBX 14 17 6 1
BITMAP
0FC0
0000
0000
0CC0
0CC0
0000
0020
3CF0
7CF0
F8E0
78E0
38E0
38E0
38E4
39FC
1F78
0C20
ENDCHAR
STARTCHAR uni01D8
ENCODING 472
BBX 14 20 6 1
BITMAP
0080
0180
0700
0600
0000
0000
0CC0
0CC0
0000
0020
3CF0
7CF0
F8E0
78E0
38E0
38E0
38E4
39FC
1F78
0C20
ENDCHAR
STARTCHAR uni01DA
ENCODING 474
BBX 14 19 6 1
BITMAP
0840
0780
0300
0000
0000
0CC0
0CC0
0000
0020
3CF0
7CF0
F8E0
78E0
38E0
38E0
38E4
39FC
1F78
0C20
ENDCHAR
STARTCHAR uni01DC
ENCODING 476
BBX 14 20 6 1
BITMAP
0600
0700
0180
0080
0000
0000
0CC0
0CC0
0000
0020
3CF0
7CF0
F8E0
78E0
38E0
38E0
38E4
39FC
1F78
0C20
ENDCHAR
STARTCHAR uni0251
ENCODING 593
BBX 13 11 6 1
BITMAP
0100
0FE0
1C70
38E0
70C0
71C0
F1C0
71C8
7BF8
3FF0
0C40
ENDCHAR
STARTCHAR uni0261
ENCODING 609
BBX 12 14 7 -3
BITMAP
1FE0
7CF0
F030
E0C0
E3C0
FFC0
7DF0
03C0
0F80
3F80
7300
6700
7E00
0800
ENDCHAR
STARTCHAR caron
ENCODING 711
BBX 6 3 10 13
BITMAP
84
78
30
ENDCHAR
STARTCHAR uni02C9
ENCODING 713
BBX 6 1 10 14
BITMAP
FC
ENDCHAR
STARTCHAR Alpha
ENCODING 913
BBX 20 21 3 -1
BITMAP
006000
006000
007000
00F000
00B000
00B800
013800
011800
031C00
021C00
020C00
060E00
040E00
07FE00
080700
080700
080300
100380
100380
3003C0
FE1FF0
ENDCHAR
STARTCHAR Beta
ENCODING 914
BBX 16 20 5 -1
BITMAP
FFF8
380E
3806
3807
3807
3807
3806
380E
3818
3FF0
380C
3806
3807
3807
3807
3807
3807
3806
781C
FFE0
ENDCHAR
STARTCHAR Gamma
ENCODING 915
BBX 16 20 5 -1
BITMAP
7FFE
1806
1802
1802
1802
1801
1800
1800
1800
1800
1800
1800
1800
1800
1800
1800
1800
1800
3C00
FF00
ENDCHAR
STARTCHAR uni0394
ENCODING 916
BBX 18 21 4 -1
BITMAP
008000
00C000
00C000
01E000
01E000
037000
027000
023000
043800
041800
0C1C00
081C00
180E00
100E00
100600
300700
200700
600380
7FFF80
7FFF80
FFFFC0
ENDCHAR
STARTCHAR Epsilon
ENCODING 917
BBX 16 20 5 -1
BITMAP
7FFE
3806
1802
1802
1802
1802
1808
1808
1818
1FF8
1818
1808
1808
1801
1803
1802
1802
1806
380E
FFFE
ENDCHAR
STARTCHAR Zeta
ENCODING 918
BBX 16 20 5 -1
BITMAP
7FFE
700E
601C
6038
4038
4070
00E0
00E0
01C0
0380
0380
0700
0E00
0E01
1C01
3803
3803
7006
E00E
FFFE
ENDCHAR
STARTCHAR Eta
ENCODING 919
BBX 20 20 3 -1
BITMAP
FE07F0
3801C0
3801C0
3801C0
3801C0
3801C0
3801C0
3801C0
3801C0
3FFFC0
3801C0
3801C0
3801C0
3801C0
3801C0
3801C0
3801C0
3801C0
3801C0
FE07F0
ENDCHAR
STARTCHAR Theta
ENCODING 920
BBX 18 21 4 -1
BITMAP
03F000
0E1C00
180600
300300
700380
600180
E001C0
E211C0
E211C0
E211C0
E3F1C0
E3F1C0
E211C0
E211C0
E001C0
600180
600380
700380
380700
1C0E00
07F800
ENDCHAR
STARTCHAR Iota
ENCODING 921
BBX 8 20 9 -1
BITMAP
FF
3C
18
18
18
18
18
18
18
18
18
18
18
18
18
18
18
18
3C
FF
ENDCHAR
STARTCHAR Kappa
ENCODING 922
BBX 19 20 3 -1
BITMAP
7E0FC0
180300
180400
180800
181800
183000
182000
184000
18E000
196000
1B7000
1E3800
1C3800
181C00
181C00
180E00
180700
180700
3C0380
FF03E0
ENDCHAR
STARTCHAR Lambda
ENCODING 923
BBX 20 21 3 -1
BITMAP
006000
006000
007000
00F000
00B000
01B800
013800
011800
031C00
021C00
020C00
040E00
040E00
040600
080700
080700
080300
100380
100380
3003C0
FE1FF0
ENDCHAR
STARTCHAR Mu
ENCODING 924
BBX 24 20 1 -1
BITMAP
7C003E
3C003C
1E003C
1E005C
16005C
17009C
13009C
13011C
13811C
11831C
11C21C
11C21C
10C41C
10E41C
10681C
10681C
10701C
10301C
30301C
FC007F
ENDCHAR
STARTCHAR Nu
ENCODING 925
BBX 19 20 3 -1
BITMAP
7803E0
1C00C0
1E0080
160080
170080
138080
11C080
11C080
10E080
107080
103080
103880
101C80
100E80
100E80
100780
100380
100180
300180
FC0080
ENDCHAR
STARTCHAR Xi
ENCODING 926
BBX 16 20 5 -1
BITMAP
3FFC
3FFC
6006
6006
4002
4002
0810
0810
0810
0FF0
0FF0
0810
0810
0000
8001
4003
4002
6006
7FFE
7FFE
ENDCHAR
STARTCHAR Omicron
ENCODING 927
BBX 18 21 4 -1
BITMAP
03F000
0E1C00
180600
300300
700380
600180
E001C0
E001C0
E001C0
E001C0
E001C0
E001C0
E001C0
E001C0
E001C0
600180
600380
700380
380700
1C0E00
07F800
ENDCHAR
STARTCHAR Pi
ENCODING 928
BBX 20 20 3 -1
BITMAP
FFFFF0
3801C0
3801C0
3801C0
3801C0
3801C0
3801C0
3801C0
3801C0
3801C0
3801C0
3801C0
3801C0
3801C0
3801C0
3801C0
3801C0
3801C0
3801C0
FE07F0
ENDCHAR
STARTCHAR Rho
ENCODING 929
BBX 16 20 5 -1
BITMAP
7FF8
380E
380E
3807
3807
3807
3807
3807
3806
380E
383C
3FE0
3800
3800
3800
3800
3800
3800
3800
FE00
ENDCHAR
STARTCHAR Sigma
ENCODING 931
BBX 16 20 5 -1
BITMAP
FFFE
700E
3006
3802
1C02
0E02
0E00
0700
0380
0380
0180
0100
0200
0401
0801
1001
2003
4003
8007
FFFF
ENDCHAR
STARTCHAR Tau
ENCODING 932
BBX 18 20 4 -1
BITMAP
7FFF80
60C180
40C080
40C080
C0C0C0
80C040
80C040
00C000
00C000
00C000
00C000
00C000
00C000
00C000
00C000
00C000
00C000
00C000
01E000
0FFC00
ENDCHAR
STARTCHAR Upsilon
ENCODING 933
BBX 18 20 4 -1
BITMAP
FE0FC0
380300
380200
1C0600
0C0400
0E0C00
070800
071000
039000
03A000
01E000
00C000
00C000
00C000
00C000
00C000
00C000
00C000
01E000
0FFC00
ENDCHAR
STARTCHAR Phi
ENCODING 934
BBX 18 20 4 -1
BITMAP
07F800
00C000
00C000
00C000
1FFE00
30C300
60C180
E0C1C0
C0C0C0
C0C0C0
C0C0C0
C0C0C0
E0C1C0
60C380
38C700
07F800
00C000
00C000
01E000
07F800
ENDCHAR
STARTCHAR Chi
ENCODING 935
BBX 18 20 4 -1
BITMAP
FF0FC0
3C0300
1C0600
0E0400
060800
071800
031000
03A000
01C000
01C000
00E000
016000
037000
023800
043800
081C00
080C00
100E00
700F00
FE3FC0
ENDCHAR
STARTCHAR Psi
ENCODING 936
BBX 22 21 2 -1
BITMAP
700038
F1FE3C
387870
383070
383070
383070
383070
383070
383070
183060
183060
1C30E0
0C30C0
063180
01FE00
003000
003000
003000
003000
007800
01FE00
ENDCHAR
STARTCHAR uni03A9
ENCODING 937
BBX 18 21 4 -1
BITMAP
03F000
0E1C00
180600
300700
700380
700380
600380
600180
600180
600180
600180
600380
700380
700300
300300
B80640
980640
880C40
C408C0
FE1FC0
FE1FC0
ENDCHAR
STARTCHAR alpha
ENCODING 945
BBX 16 15 5 -1
BITMAP
0382
0CE2
1862
3072
6074
6074
6074
E074
C038
C038
C030
E030
6030
70F1
3F3E
ENDCHAR
STARTCHAR beta
ENCODING 946
BBX 16 26 5 -6
BITMAP
03E0
0E1C
180E
1806
3806
3006
3006
300E
300C
3018
30F0
300C
3006
3007
3007
3007
3007
3807
380E
3C1E
33F8
3000
3000
3800
3800
FC00
ENDCHAR
STARTCHAR gamma
ENCODING 947
BBX 14 20 6 -6
BITMAP
1800
7E0C
860C
030C
030C
030C
0318
0318
0110
0120
0160
0140
0280
0100
0200
0300
0300
0300
0300
0300
ENDCHAR
STARTCHAR delta
ENCODING 948
BBX 14 21 6 -1
BITMAP
07C0
1870
3030
7038
7030
3000
3800
1E00
0380
1FE0
3030
6038
6018
E01C
E01C
E01C
E01C
6018
7038
3070
1FE0
ENDCHAR
STARTCHAR epsilon
ENCODING 949
BBX 12 15 7 -1
BITMAP
0F00
70C0
6060
E070
E070
E020
7000
1F00
7000
6000
C000
C010
E020
7040
3F80
ENDCHAR
STARTCHAR zeta
ENCODING 950
BBX 11 25 8 -5
BITMAP
6000
E0C0
61C0
3E00
0400
0800
0800
1000
2000
2000
6000
C000
C000
C000
C000
C000
E000
FF80
3FC0
00E0
0060
0040
00C0
0180
0E00
ENDCHAR
STARTCHAR eta
ENCODING 951
BBX 16 20 5 -6
BITMAP
10E0
F3F8
761C
3C0C
380C
300C
300C
300C
300C
300C
300C
300C
300C
780C
FC0C
000C
000C
000C
000C
003F
ENDCHAR
STARTCHAR theta
ENCODING 952
BBX 12 21 7 -1
BITMAP
0F00
1080
2040
6060
6060
6020
C030
C030
C030
C030
FFF0
C030
C030
C030
C030
E070
6060
6060
2040
30C0
1F00
ENDCHAR
STARTCHAR iota
ENCODING 953
BBX 9 15 9 -1
BITMAP
1000
F000
7000
3000
3000
3000
3000
3000
3000
3000
3000
3000
3000
3980
1E00
ENDCHAR
STARTCHAR kappa
ENCODING 954
BBX 16 15 5 -1
BITMAP
0800
F87E
3818
3820
3840
38C0
39C0
3AE0
3C60
3870
3830
3838
3818
381C
FE0F
ENDCHAR
STARTCHAR lambda
ENCODING 955
BBX 14 21 6 -1
BITMAP
0600
3E00
0E00
0600
0700
0700
0300
0380
0380
0380
07C0
05C0
04C0
08E0
08E0
1860
1060
1070
2030
6038
FC3C
ENDCHAR
STARTCHAR uni03BC
ENCODING 956
BBX 16 20 5 -6
BITMAP
1804
F03C
300C
300C
300C
300C
300C
300C
300C
300C
300C
381C
381C
3C7C
37EF
3000
3000
3000
3000
7C00
ENDCHAR
STARTCHAR nu
ENCODING 957
BBX 16 15 5 -1
BITMAP
1000
F03F
380C
3808
1808
1C10
0C10
0E20
0E20
0620
0740
0340
0380
0180
0180
ENDCHAR
STARTCHAR xi
ENCODING 958
BBX 12 25 7 -5
BITMAP
3000
3800
3000
1800
07E0
1C40
3000
7000
6000
3000
1FE0
0FE0
3000
6000
6000
E000
E000
7FC0
3FE0
0070
0030
0020
0060
00C0
0700
ENDCHAR
STARTCHAR omicron
ENCODING 959
BBX 14 15 6 -1
BITMAP
0780
1860
3030
6018
6018
E01C
E01C
E01C
E01C
E01C
6018
6018
7038
3070
1FC0
ENDCHAR
STARTCHAR pi
ENCODING 960
BBX 15 14 6 -1
BITMAP
3FFE
7FFE
C820
8820
0820
0820
0820
0860
1860
1860
3060
3060
7064
6078
ENDCHAR
STARTCHAR rho
ENCODING 961
BBX 16 20 5 -6
BITMAP
01E0
0618
0C0C
1806
1806
3807
3807
3807
3807
3807
3807
3806
3C0E
3C0C
37F0
3000
3000
3000
3800
FC00
ENDCHAR
STARTCHAR sigma
ENCODING 963
BBX 16 15 5 -1
BITMAP
07FF
1860
3030
7018
6018
601C
E01C
E00C
E00C
E01C
601C
6018
7018
3830
0FE0
ENDCHAR
STARTCHAR tau
ENCODING 964
BBX 13 14 7 -1
BITMAP
3FF8
7FF8
4300
8300
0300
0300
0300
0300
0300
0300
0300
0300
0310
03E0
ENDCHAR
STARTCHAR upsilon
ENCODING 965
BBX 14 15 6 -1
BITMAP
1008
F01C
701C
3004
3004
3004
3004
3008
3008
3008
3010
3010
3020
38C0
1F80
ENDCHAR
STARTCHAR phi
ENCODING 966
BBX 18 26 4 -6
BITMAP
00C000
00C000
00C000
00C000
00C000
00C000
03F000
1CCE00
30C300
70C380
60C1C0
E0C1C0
E0C1C0
E0C1C0
C0C1C0
E0C1C0
E0C1C0
60C180
70C380
38C700
0FFC00
00C000
00C000
00C000
00C000
00C000
ENDCHAR
STARTCHAR chi
ENCODING 967
BBX 16 19 5 -6
BITMAP
301E
F808
1808
0C10
0C20
0620
0640
0340
0380
0180
0180
02C0
0260
0460
0830
0830
1018
301D
F80E
ENDCHAR
STARTCHAR psi
ENCODING 968
BBX 18 20 4 -6
BITMAP
600180
F7FB40
30C200
10C300
30C300
30C300
30C300
30C300
30C300
30C300
30C300
10C200
18C600
08C400
07F800
00C000
00C000
00C000
00C000
07F800
ENDCHAR
STARTCHAR omega
ENCODING 969
BBX 16 14 5 -1
BITMAP
1818
300C
2004
6006
6006
C183
C183
C183
C183
C183
C183
E187
73CE
3E7C
ENDCHAR
STARTCHAR uni0401
ENCODING 1025
BBX 16 24 5 -1
BITMAP
0C30
0C30
0000
0000
7FFE
3806
1802
1802
1802
1802
1808
1808
1818
1FF8
1818
1808
1808
1801
1803
1802
1802
1806
380E
FFFE
ENDCHAR
STARTCHAR uni0410
ENCODING 1040
BBX 20 21 3 -1
BITMAP
006000
006000
007000
00F000
00B000
01B800
013800
011800
031C00
021C00
020C00
040E00
040E00
07FE00
080700
080700
180300
100380
100380
3003C0
FE1FF0
ENDCHAR
STARTCHAR uni0411
ENCODING 1041
BBX 16 20 5 -1
BITMAP
FFFC
380C
380C
3804
3804
3800
3800
3800
3800
3FF8
380E
3806
3807
3807
3807
3807
3807
380E
381C
FFE0
ENDCHAR
STARTCHAR uni0412
ENCODING 1042
BBX 16 20 5 -1
BITMAP
FFF8
380E
3806
3807
3807
3807
3806
380E
3818
3FF0
380C
3806
3807
3807
3807
3807
3807
3806
781C
FFE0
ENDCHAR
STARTCHAR uni0413
ENCODING 1043
BBX 16 20 5 -1
BITMAP
7FFE
1806
1802
1802
1803
1801
1800
1800
1800
1800
1800
1800
1800
1800
1800
1800
1800
1800
3C00
FF00
ENDCHAR
STARTCHAR uni0414
ENCODING 1044
BBX 20 25 3 -6
BITMAP
07FFF0
0081C0
008180
008180
008180
010180
010180
010180
010180
010180
020180
020180
020180
040180
040180
0C0180
080180
180180
3003C0
FFFFF0
E00070
C00030
C00030
C00030
800010
ENDCHAR
STARTCHAR uni0415
ENCODING 1045
BBX 16 20 5 -1
BITMAP
7FFE
3806
1802
1802
1802
1802
1808
1808
1818
1FF8
1818
1808
1808
1801
1803
1802
1802
1806
380E
FFFE
ENDCHAR
STARTCHAR uni0416
ENCODING 1046
BBX 24 21 1 -1
BITMAP
70000E
E87E17
E41827
441822
041820
041840
021840
021840
011880
019980
01FF80
0618E0
0C1870
0C1830
1C1838
181818
181818
38181C
38181C
703C0E
F0FF0F
ENDCHAR
STARTCHAR uni0417
ENCODING 1047
BBX 14 21 6 -1
BITMAP
0FC0
7870
E018
C01C
C01C
801C
801C
0018
0030
01E0
0F80
00F0
0038
001C
000C
C00C
C00C
C01C
C01C
6038
3FE0
ENDCHAR
STARTCHAR uni0418
ENCODING 1048
BBX 20 20 3 -1
BITMAP
FE07F0
3801C0
3801C0
3801C0
3801C0
3803C0
3805C0
3809C0
3811C0
3821C0
3841C0
3981C0
3B01C0
3E01C0
3C01C0
3801C0
3801C0
3801C0
3801C0
FE07F0
ENDCHAR
STARTCHAR uni0419
ENCODING 1049
BBX 20 26 3 -1
BITMAP
030C00
070E00
030C00
01F800
000000
000000
FE07F0
3801C0
3801C0
3801C0
3801C0
3803C0
3805C0
3809C0
3811C0
3821C0
3841C0
3981C0
3B01C0
3E01C0
3C01C0
3801C0
3801C0
3801C0
3801C0
FE07F0
ENDCHAR
STARTCHAR uni041A
ENCODING 1050
BBX 19 21 3 -1
BITMAP
0001C0
7E02E0
1804E0
180400
180800
180800
181000
181000
182000
18C000
1FC000
183800
181C00
180C00
180E00
180600
180700
180700
180380
3C03C0
FF00E0
ENDCHAR
STARTCHAR uni041B
ENCODING 1051
BBX 20 20 3 -1
BITMAP
0FFFF0
0381C0
0301C0
0301C0
0301C0
0301C0
0301C0
0301C0
0301C0
0301C0
0301C0
0301C0
0301C0
0301C0
0301C0
0301C0
0301C0
C301C0
C601C0
FC07F0
ENDCHAR
STARTCHAR uni041C
ENCODING 1052
BBX 24 20 1 -1
BITMAP
7C003E
3C003C
1E003C
1E005C
16005C
17009C
13009C
13011C
13811C
11831C
11C21C
11C21C
10C41C
10E41C
10681C
10681C
10701C
10301C
30301C
FC007F
ENDCHAR
STARTCHAR uni041D
ENCODING 1053
BBX 20 20 3 -1
BITMAP
FE07F0
3801C0
3801C0
3801C0
3801C0
3801C0
3801C0
3801C0
3801C0
3FFFC0
3801C0
3801C0
3801C0
3801C0
3801C0
3801C0
3801C0
3801C0
3801C0
FE07F0
ENDCHAR
STARTCHAR uni041E
ENCODING 1054
BBX 18 21 4 -1
BITMAP
03F000
0E1C00
180600
300300
700380
600180
E001C0
E001C0
E001C0
E001C0
E001C0
E001C0
E001C0
E001C0
E001C0
600180
600380
700380
380700
1C0E00
07F800
ENDCHAR
STARTCHAR uni041F
ENCODING 1055
BBX 20 20 3 -1
BITMAP
FFFFF0
3801C0
3801C0
3801C0
3801C0
3801C0
3801C0
3801C0
3801C0
3801C0
3801C0
3801C0
3801C0
3801C0
3801C0
3801C0
3801C0
3801C0
3801C0
FE07F0
ENDCHAR
STARTCHAR uni0420
ENCODING 1056
BBX 16 20 5 -1
BITMAP
7FF8
380E
380E
3807
3807
3807
3807
3807
3806
380E
383C
3FE0
3800
3800
3800
3800
3800
3800
3800
FE00
ENDCHAR
STARTCHAR uni0421
ENCODING 1057
BBX 16 21 5 -1
BITMAP
03F0
0E1E
380E
3007
6003
E003
E001
C001
C000
C000
C000
C000
C000
C000
E000
E001
6001
7003
3806
1C0C
07F0
ENDCHAR
STARTCHAR uni0422
ENCODING 1058
BBX 18 20 4 -1
BITMAP
7FFF80
60C180
40C080
40C080
C0C0C0
80C040
80C040
00C000
00C000
00C000
00C000
00C000
00C000
00C000
00C000
00C000
00C000
00C000
01E000
0FFC00
ENDCHAR
STARTCHAR uni0423
ENCODING 1059
BBX 18 20 4 -1
BITMAP
FF0FC0
380100
1C0200
0C0200
0E0400
060400
070800
030800
039000
019000
01E000
00E000
00C000
004000
008000
008000
010000
610000
720000
7C0000
ENDCHAR
STARTCHAR uni0424
ENCODING 1060
BBX 18 20 4 -1
BITMAP
07F800
00C000
00C000
00C000
1FFE00
30C300
60C180
E0C1C0
C0C0C0
C0C0C0
C0C0C0
E0C1C0
E0C1C0
70C380
38C700
07F800
00C000
00C000
01E000
07F800
ENDCHAR
STARTCHAR uni0425
ENCODING 1061
BBX 18 20 4 -1
BITMAP
FF0FC0
3C0300
1C0600
0E0400
060800
071800
031000
03A000
01C000
01C000
00E000
016000
037000
023800
043800
081C00
080C00
100E00
700F00
FE3FC0
ENDCHAR
STARTCHAR uni0426
ENCODING 1062
BBX 20 25 3 -6
BITMAP
FC07E0
3801C0
3801C0
3801C0
3801C0
3801C0
3801C0
3801C0
3801C0
3801C0
3801C0
3801C0
3801C0
3801C0
3801C0
3801C0
3801C0
3801C0
3801C0
FFFFF0
000030
000010
000010
000010
000010
ENDCHAR
STARTCHAR uni0427
ENCODING 1063
BBX 19 20 4 -1
BITMAP
FC0FC0
700300
300300
300300
300300
300300
300300
300300
300700
300700
300F00
301B00
3C7300
1FC300
000300
000300
000300
000300
000780
001FE0
ENDCHAR
STARTCHAR uni0428
ENCODING 1064
BBX 24 20 1 -1
BITMAP
7C3C3E
30180C
30180C
30180C
30180C
30180C
30180C
30180C
30180C
30180C
30180C
30180C
30180C
30180C
30180C
30180C
30180C
30180C
38381C
FFFFFF
ENDCHAR
STARTCHAR uni0429
ENCODING 1065
BBX 24 25 1 -6
BITMAP
F87C3E
30381C
30181C
30181C
30181C
30181C
30181C
30181C
30181C
30181C
30181C
30181C
30181C
30181C
30181C
30181C
30181C
30181C
70381C
FFFFFF
000003
000001
000001
000001
000001
ENDCHAR
STARTCHAR uni042A
ENCODING 1066
BBX 22 20 2 -1
BITMAP
FFF800
E07000
C06000
806000
806000
806000
006000
006000
006000
007FE0
006038
00601C
00601C
00600C
00600C
00600C
00601C
006018
00E070
01FF80
ENDCHAR
STARTCHAR uni042B
ENCODING 1067
BBX 25 20 1 -1
BITMAP
FC003F00
30001C00
30000C00
30000C00
30000C00
30000C00
30000C00
30000C00
30000C00
3FF80C00
301C0C00
300E0C00
30070C00
30070C00
30070C00
30070C00
30070C00
300E0C00
703C1E00
FFE07F80
ENDCHAR
STARTCHAR uni042C
ENCODING 1068
BBX 16 20 5 -1
BITMAP
FC00
3800
3800
3800
3800
3800
3800
3800
3800
3FF8
380E
3806
3807
3807
3807
3807
3807
380E
781C
FFE0
ENDCHAR
STARTCHAR uni042D
ENCODING 1069
BBX 16 21 5 -1
BITMAP
0FC0
7870
701C
E00C
C006
C006
8007
8003
0003
0003
0FFF
0003
0003
0003
0007
C007
C006
C00E
C01C
6038
1FE0
ENDCHAR
STARTCHAR uni042E
ENCODING 1070
BBX 24 21 1 -1
BITMAP
0003E0
FC0E18
381C0C
30180E
303806
303007
307007
307007
307003
307003
3FF003
307003
307003
307003
307007
303007
303006
303806
38180C
780C1C
FE07F0
ENDCHAR
STARTCHAR uni042F
ENCODING 1071
BBX 18 20 4 -1
BITMAP
07FFC0
0C0700
1C0700
380700
380700
380700
380700
180700
0C0700
03FF00
01C700
070700
0E0700
0C0700
1C0700
1C0700
380700
380700
780700
F01FC0
ENDCHAR
STARTCHAR uni0430
ENCODING 1072
BBX 13 15 6 -1
BITMAP
0780
38E0
3060
7030
7030
0030
03F0
1E30
3030
6030
E030
E070
E070
71B0
3F38
ENDCHAR
STARTCHAR uni0431
ENCODING 1073
BBX 14 21 6 -1
BITMAP
000C
0018
0FF8
13F0
2000
6000
6000
C000
CFE0
D870
E018
E01C
E01C
C00C
C00C
C00C
C01C
E01C
6018
3030
0FE0
ENDCHAR
STARTCHAR uni0432
ENCODING 1074
BBX 14 14 6 -1
BITMAP
FFF0
3018
300C
300C
301C
3038
3FC0
3038
300C
300C
300C
300C
7038
FFE0
ENDCHAR
STARTCHAR uni0433
ENCODING 1075
BBX 12 14 7 -1
BITMAP
FFF0
3030
3030
3010
3010
3000
3000
3000
3000
3000
3000
3000
3800
FE00
ENDCHAR
STARTCHAR uni0434
ENCODING 1076
BBX 14 18 6 -5
BITMAP
1FFC
0438
0438
0438
0838
0838
0838
0838
1038
1038
1038
2038
6038
FFFC
8004
8004
8004
8004
ENDCHAR
STARTCHAR uni0435
ENCODING 1077
BBX 12 15 7 -1
BITMAP
0F00
30C0
6060
6060
C030
C030
C030
FFF0
C000
C000
C000
E010
6030
3860
1F80
ENDCHAR
STARTCHAR uni0436
ENCODING 1078
BBX 18 15 4 -1
BITMAP
200100
D3F2C0
D0C4C0
08C400
08C400
08C400
04C800
07F800
18C600
10C200
30C300
30C300
30C300
60C180
E3F1C0
ENDCHAR
STARTCHAR uni0437
ENCODING 1079
BBX 14 15 6 -1
BITMAP
07C0
7870
6018
4018
4018
0038
0070
0780
00F0
0038
0018
601C
E018
6038
3FE0
ENDCHAR
STARTCHAR uni0438
ENCODING 1080
BBX 16 14 5 -1
BITMAP
F81F
300C
300C
301C
302C
304C
308C
330C
360C
380C
300C
300C
700E
F83F
ENDCHAR
STARTCHAR uni0439
ENCODING 1081
BBX 16 20 5 -1
BITMAP
0C30
0C30
07E0
0000
0000
0000
F81F
300C
300C
301C
302C
304C
308C
330C
360C
380C
300C
300C
700E
F83F
ENDCHAR
STARTCHAR uni043A
ENCODING 1082
BBX 14 15 6 -1
BITMAP
0018
F87C
7058
7080
7080
7100
7300
7F00
71C0
70E0
7060
7070
7030
7038
F81C
ENDCHAR
STARTCHAR uni043B
ENCODING 1083
BBX 16 14 5 -1
BITMAP
1FFF
060E
060E
060E
060E
060E
060E
060E
060E
060E
060E
C60E
CE0E
FC1F
ENDCHAR
STARTCHAR uni043C
ENCODING 1084
BBX 18 14 4 -1
BITMAP
7807C0
380700
3C0700
2C0B00
2E0B00
261300
261300
272300
232300
23C300
21C300
21C300
618380
F807C0
ENDCHAR
STARTCHAR uni043D
ENCODING 1085
BBX 16 14 5 -1
BITMAP
F81F
300C
300C
300C
300C
300C
3FFC
300C
300C
300C
300C
300C
700E
F83F
ENDCHAR
STARTCHAR uni043E
ENCODING 1086
BBX 14 15 6 -1
BITMAP
0780
1860
3030
6018
6018
E01C
E01C
E01C
E01C
E01C
6018
6018
7038
3070
1FC0
ENDCHAR
STARTCHAR uni043F
ENCODING 1087
BBX 16 14 5 -1
BITMAP
FFFF
300C
300C
300C
300C
300C
300C
300C
300C
300C
300C
300C
700E
F83F
ENDCHAR
STARTCHAR uni0440
ENCODING 1088
BBX 15 20 5 -6
BITMAP
09E0
7B38
7C0C
3C0C
3806
1806
1806
1806
1806
1806
1806
1806
1C0C
1E18
1BF0
1800
3800
3800
3800
FE00
ENDCHAR
STARTCHAR uni0441
ENCODING 1089
BBX 12 15 7 -1
BITMAP
0780
38E0
7060
6070
E070
C020
C000
C000
C000
C000
C000
E010
6030
3860
1F80
ENDCHAR
STARTCHAR uni0442
ENCODING 1090
BBX 14 14 6 -1
BITMAP
7FF8
6318
C30C
C30C
8304
0300
0300
0300
0300
0300
0300
0300
0780
1FE0
ENDCHAR
STARTCHAR uni0443
ENCODING 1091
BBX 16 19 5 -6
BITMAP
FE3F
380C
1808
1808
1C10
0C10
0E20
0620
0720
0740
0340
0380
0180
0180
0100
0100
1200
3E00
3C00
ENDCHAR
STARTCHAR uni0444
ENCODING 1092
BBX 18 26 4 -6
BITMAP
004000
03C000
01C000
00C000
00C000
00C000
00C000
00C000
00C000
07FC00
38C700
60C180
E0C1C0
C0C0C0
C0C0C0
C0C0C0
C0C0C0
E0C1C0
60C180
30C300
1FFC00
00C000
00C000
00C000
00C000
07F800
ENDCHAR
STARTCHAR uni0445
ENCODING 1093
BBX 14 14 6 -1
BITMAP
FEFC
3830
1C60
0C40
0E80
0700
0700
0380
0580
09C0
18E0
1060
6070
FDFC
ENDCHAR
STARTCHAR uni0446
ENCODING 1094
BBX 16 18 5 -5
BITMAP
FC3F
300C
300C
300C
300C
300C
300C
300C
300C
300C
300C
300C
700C
FFFF
0003
0001
0001
0001
ENDCHAR
STARTCHAR uni0447
ENCODING 1095
BBX 16 14 5 -1
BITMAP
FC3F
300C
300C
300C
300C
300C
301C
302C
386C
1F8C
000C
000C
001C
003F
ENDCHAR
STARTCHAR uni0448
ENCODING 1096
BBX 18 14 4 -1
BITMAP
F1E3C0
60C180
60C180
60C180
60C180
60C180
60C180
60C180
60C180
60C180
60C180
60C180
60C180
FFFFC0
ENDCHAR
STARTCHAR uni0449
ENCODING 1097
BBX 20 18 3 -5
BITMAP
F9F3E0
60C180
60C180
60C180
60C180
60C180
60C180
60C180
60C180
60C180
60C180
60C180
70C1C0
FFFFF0
000030
000010
000010
000010
ENDCHAR
STARTCHAR uni044A
ENCODING 1098
BBX 16 14 5 -1
BITMAP
FFC0
C380
8380
8380
0380
0380
03FC
0387
0383
0383
0383
0383
0386
07F8
ENDCHAR
STARTCHAR uni044B
ENCODING 1099
BBX 18 14 4 -1
BITMAP
F807C0
700380
600380
600380
600380
600380
7F8380
60E380
606380
606380
606380
606380
60C380
FF07C0
ENDCHAR
STARTCHAR uni044C
ENCODING 1100
BBX 12 14 7 -1
BITMAP
F800
7000
7000
7000
7000
7000
7FC0
7060
7030
7030
7030
7030
7060
FF80
ENDCHAR
STARTCHAR uni044D
ENCODING 1101
BBX 14 15 6 -1
BITMAP
0700
78E0
6030
6018
4018
4018
001C
0FFC
001C
001C
0018
6018
E030
6060
3FC0
ENDCHAR
STARTCHAR uni044E
ENCODING 1102
BBX 20 15 3 -1
BITMAP
000F00
F831C0
706060
60C070
70C030
71C030
71C030
7FC030
71C030
71C030
70C030
70C030
60E060
7060E0
F83F80
ENDCHAR
STARTCHAR uni044F
ENCODING 1103
BBX 14 14 6 -1
BITMAP
1FFC
3038
7038
7038
7038
3038
1FF8
0C38
1838
3838
3038
7038
7038
E07C
ENDCHAR
STARTCHAR uni0451
ENCODING 1105
BBX 12 19 7 -1
BITMAP
39C0
1980
0000
0000
0F00
30C0
6060
6060
C030
C030
C030
FFF0
C000
C000
C000
E010
6030
3860
1F80
ENDCHAR
STARTCHAR emdash
ENCODING 8212
BBX 26 2 0 8
BITMAP
FFFFFFC0
FFFFFFC0
ENDCHAR
STARTCHAR uni2016
ENCODING 8214
BBX 6 23 10 -2
BITMAP
84
84
84
84
84
84
84
84
84
84
84
84
84
84
84
84
84
84
84
84
84
84
84
ENDCHAR
STARTCHAR quoteleft
ENCODING 8216
BBX 4 4 17 15
BITMAP
70
60
F0
60
ENDCHAR
STARTCHAR quoteright
ENCODING 8217
BBX 4 4 5 15
BITMAP
F0
70
60
80
ENDCHAR
STARTCHAR quotedblleft
ENCODING 8220
BBX 10 4 14 15
BITMAP
3180
6380
F3C0
6180
ENDCHAR
STARTCHAR quotedblright
ENCODING 8221
BBX 10 4 2 15
BITMAP
F3C0
73C0
6180
8200
ENDCHAR
STARTCHAR ellipsis
ENCODING 8230
BBX 20 3 3 8
BITMAP
400020
E06070
E06070
ENDCHAR
STARTCHAR perthousand
ENCODING 8240
BBX 24 14 1 2
BITMAP
001800
003800
7C7000
CC7000
CEE000
EDC000
798000
030000
067C3E
0EEE67
1CC6E3
38EE67
707C3E
700000
ENDCHAR
STARTCHAR minute
ENCODING 8242
BBX 4 5 3 11
BITMAP
30
70
60
C0
80
ENDCHAR
STARTCHAR second
ENCODING 8243
BBX 9 5 2 11
BITMAP
3180
3380
6300
4600
8400
ENDCHAR
STARTCHAR uni203B
ENCODING 8251
BBX 18 17 4 1
BITMAP
C1E0C0
61E180
31E300
180600
0C0C00
061800
033000
71E380
F0C3C0
71E380
033000
061800
0C0C00
180600
31E300
61E180
C1E0C0
ENDCHAR
STARTCHAR Euro
ENCODING 8364
SWIDTH 648 0
DWIDTH 17 0
BBX 15 15 1 1
BITMAP
01F8
07FC
0E1C
0E00
1C00
FFE0
1C00
3C00
FFE0
FC02
1C06
1E0C
0FFC
07F8
00C0
ENDCHAR
STARTCHAR uni2103
ENCODING 8451
BBX 20 15 3 1
BITMAP
7C0F80
EC3FE0
C47040
C46000
FCE000
38E000
01C000
01C000
01C000
01E010
00E030
00F060
0079C0
003F80
000400
ENDCHAR
STARTCHAR uni2116
ENCODING 8470
BBX 23 14 2 2
BITMAP
007000
3C7000
3C7078
7C70CC
7C7186
7E7386
767306
767306
63730C
63F3B8
E1F1F0
E1F000
C0F3FC
80F3F8
ENDCHAR
STARTCHAR uni2160
ENCODING 8544
BBX 3 15 11 1
BITMAP
20
60
60
60
60
60
60
60
60
60
60
60
E0
60
60
ENDCHAR
STARTCHAR uni2161
ENCODING 8545
BBX 8 15 9 1
BITMAP
61
C3
C3
C3
C3
C3
C3
C3
C3
C3
C3
C3
C7
C7
C3
ENDCHAR
STARTCHAR uni2162
ENCODING 8546
BBX 14 15 6 1
BITMAP
2184
E31C
E31C
631C
630C
630C
630C
630C
631C
631C
E31C
E31C
E31C
E31C
630C
ENDCHAR
STARTCHAR uni2163
ENCODING 8547
BBX 17 15 4 1
BITMAP
230600
638380
638380
61C380
61C380
61C380
61C380
61C300
60C300
60C700
60C600
60C600
E06C00
E06C00
603800
ENDCHAR
STARTCHAR uni2164
ENCODING 8548
BBX 11 15 8 1
BITMAP
8180
C1C0
E0E0
E0E0
E0E0
E0C0
60C0
61C0
6180
6180
7180
3300
3300
1E00
1C00
ENDCHAR
STARTCHAR uni2165
ENCODING 8549
BBX 17 15 4 1
BITMAP
408080
E0E380
70E180
70E180
70E180
70E180
70E180
30C180
30C180
30C180
318180
198380
190380
1B0380
0E0180
ENDCHAR
STARTCHAR uni2166
ENCODING 8550
BBX 19 15 3 1
BITMAP
030220
E1CE60
E1CE60
61CE60
61CC60
61CC60
618C60
618C60
318C60
318C60
330C60
330C60
130C60
1E0C60
0C0420
ENDCHAR
STARTCHAR uni2167
ENCODING 8551
BBX 21 15 2 1
BITMAP
420888
E39998
619998
619998
619998
619998
619998
631998
231998
331998
331998
321998
361998
1E1998
0C1988
ENDCHAR
STARTCHAR uni2168
ENCODING 8552
BBX 18 15 4 1
BITMAP
2001C0
610380
63C700
61C600
606C00
607C00
603800
603800
603C00
606E00
60E600
60C300
E1C380
E38180
630180
ENDCHAR
STARTCHAR uni2169
ENCODING 8553
BBX 12 15 7 1
BITMAP
0030
00E0
F0C0
39C0
1B80
0F00
0F00
0F00
0F00
1D80
19C0
38E0
7070
E070
C030
ENDCHAR
STARTCHAR uni216A
ENCODING 8554
BBX 17 15 4 1
BITMAP
003080
006380
F0C180
39C180
1D8180
0F0180
070180
070180
0F0180
0D8180
18C180
38E380
707380
707380
603180
ENDCHAR
STARTCHAR uni216B
ENCODING 8555
BBX 20 15 3 1
BITMAP
006210
41C670
F18670
730670
3B0670
1E0670
0E0620
0C0660
1E0660
1B0660
338660
318660
61CE60
E0CE70
C04620
ENDCHAR
STARTCHAR uni2170
ENCODING 8560
BBX 4 15 11 1
BITMAP
60
70
60
00
00
20
60
60
60
60
60
60
E0
E0
60
ENDCHAR
STARTCHAR uni2171
ENCODING 8561
BBX 9 15 9 1
BITMAP
C300
E380
C300
0000
0000
4100
C300
C300
C300
C300
C300
C300
C700
C700
C300
ENDCHAR
STARTCHAR uni2172
ENCODING 8562
BBX 14 15 6 1
BITMAP
C318
638C
630C
8010
0000
610C
E31C
E318
E318
C318
C318
E318
E718
E718
6308
ENDCHAR
STARTCHAR uni2173
ENCODING 8563
BBX 17 15 5 1
BITMAP
C00000
E00000
C00000
000000
000000
420600
C70700
C38780
C38700
C38700
C18600
C18600
C08C00
C0D800
C07000
ENDCHAR
STARTCHAR uni2174
ENCODING 8564
BBX 11 10 8 1
BITMAP
8180
E1C0
E0E0
E1C0
61C0
61C0
6180
3300
3700
1C00
ENDCHAR
STARTCHAR uni2175
ENCODING 8565
BBX 16 15 5 1
BITMAP
0007
0003
0003
0004
0000
8183
C1C7
E1E7
E1C7
61C7
6187
6187
2307
3607
1C03
ENDCHAR
STARTCHAR uni2176
ENCODING 8566
BBX 20 15 3 1
BITMAP
000460
000670
000660
000000
000000
C18620
E1CE60
60CE60
60CC60
61CC60
318C60
318C60
310CE0
130C60
0E0460
ENDCHAR
STARTCHAR uni2177
ENCODING 8567
BBX 20 15 3 1
BITMAP
003330
0019B0
001330
002200
000000
861110
C73330
C33330
C33330
C73330
463330
663330
643370
2C3330
381330
ENDCHAR
STARTCHAR uni2178
ENCODING 8568
BBX 18 15 4 1
BITMAP
600000
700000
600000
000000
000000
2001C0
67C700
61EE00
607C00
603800
603C00
606E00
E0E700
E3C380
630180
ENDCHAR
STARTCHAR uni2179
ENCODING 8569
BBX 12 10 7 1
BITMAP
0070
F0E0
39C0
1F80
0700
0F00
1D80
38E0
7070
6030
ENDCHAR
STARTCHAR arrowleft
ENCODING 8592
BBX 25 10 1 4
BITMAP
04000000
08000000
18000000
30000000
FFFFFF80
70000000
38000000
18000000
08000000
04000000
ENDCHAR
STARTCHAR arrowup
ENCODING 8593
BBX 10 24 8 -3
BITMAP
0C00
0C00
1E00
3F00
6B80
8840
0800
0800
0800
0800
0800
0800
0800
0800
0800
0800
0800
0800
0800
0800
0800
0800
0800
0800
ENDCHAR
STARTCHAR arrowright
ENCODING 8594
BBX 25 10 0 4
BITMAP
00001000
00000800
00000C00
00000E00
FFFFFF80
00000700
00000E00
00000C00
00001000
00001000
ENDCHAR
STARTCHAR arrowdown
ENCODING 8595
BBX 10 25 8 -3
BITMAP
0800
0800
0800
0800
0800
0800
0800
0800
0800
0800
0800
0800
0800
0800
0800
0800
0800
0800
0800
C840
7B80
3F00
1E00
0C00
0800
ENDCHAR
STARTCHAR element
ENCODING 8712
BBX 16 16 5 1
BITMAP
07FF
1FFF
3000
6000
C000
C000
C000
FFFF
FFFF
C000
C000
C000
4000
6000
3C00
0FFF
ENDCHAR
STARTCHAR product
ENCODING 8719
BBX 20 22 3 -2
BITMAP
FFFFF0
7FFFE0
3801C0
3801C0
3801C0
3801C0
3801C0
3801C0
3801C0
3801C0
3801C0
3801C0
3801C0
3801C0
3801C0
3801C0
3801C0
3801C0
3801C0
3801C0
3801C0
FE07F0
ENDCHAR
STARTCHAR summation
ENCODING 8721
BBX 17 22 5 -3
BITMAP
FFFE00
700600
780200
3C0200
1C0000
0E0000
070000
078000
038000
01C000
00C000
00C000
018000
030000
060000
0C0000
080080
100100
300100
7FFF00
FFFF00
000100
ENDCHAR
STARTCHAR radical
ENCODING 8730
BBX 26 25 0 -3
BITMAP
00000040
00000040
00000080
00000180
00000100
00000200
00000200
08000400
38000400
7C000800
8E001000
06001000
07002000
03002000
03804000
0180C000
01C08000
00C10000
00E10000
00620000
00760000
00340000
003C0000
00180000
00100000
ENDCHAR
STARTCHAR proportional
ENCODING 8733
BBX 16 10 5 3
BITMAP
3C1F
7630
8160
80C0
8180
8180
8340
C760
7E3F
0800
ENDCHAR
STARTCHAR infinity
ENCODING 8734
BBX 18 8 4 5
BITMAP
3E1F00
637180
80E040
80C040
80C040
81C040
673B80
3E1F00
ENDCHAR
STARTCHAR angle
ENCODING 8736
BBX 18 16 4 0
BITMAP
000800
001000
003000
002000
004000
008000
018000
030000
020000
040000
0C0000
180000
100000
200000
600000
FFFFC0
ENDCHAR
STARTCHAR uni2225
ENCODING 8741
BBX 21 25 2 -3
BITMAP
000408
000808
000810
001010
001020
002020
002040
004040
004080
008080
008100
010100
010200
020200
020400
040400
040800
080800
101000
101000
202000
202000
404000
404000
808000
ENDCHAR
STARTCHAR logicaland
ENCODING 8743
BBX 14 21 6 -1
BITMAP
0300
0300
0380
0680
0480
04C0
0C40
0840
0860
1820
1020
1030
3010
2010
2010
6018
4008
4008
C00C
8004
0004
ENDCHAR
STARTCHAR logicalor
ENCODING 8744
BBX 14 21 6 -1
BITMAP
8004
8004
C00C
4008
4008
6018
2010
2010
3010
1020
1020
1020
0860
0840
0840
0CC0
0480
0480
0780
0300
0300
ENDCHAR
STARTCHAR intersection
ENCODING 8745
BBX 16 17 5 0
BITMAP
07E0
1FF8
300C
6006
4002
C003
C003
C003
C003
C003
C003
C003
C003
C003
C003
C003
C003
ENDCHAR
STARTCHAR union
ENCODING 8746
BBX 16 16 5 0
BITMAP
C003
C003
C003
C003
C003
C003
C003
C003
C003
C003
C003
C003
4006
6006
381C
0FF0
ENDCHAR
STARTCHAR integral
ENCODING 8747
BBX 6 23 10 -4
BITMAP
0C
10
10
10
10
10
10
10
10
20
20
20
20
20
20
20
20
20
20
20
20
40
80
ENDCHAR
STARTCHAR uni222E
ENCODING 8750
BBX 6 23 10 -4
BITMAP
0C
10
10
10
10
10
10
10
30
DC
A4
A4
A4
68
30
20
20
20
20
20
20
40
80
ENDCHAR
STARTCHAR therefore
ENCODING 8756
BBX 14 12 6 3
BITMAP
0300
0300
0000
0000
0000
0000
0000
0000
0000
4008
E01C
E01C
ENDCHAR
STARTCHAR uni2235
ENCODING 8757
BBX 14 12 6 3
BITMAP
E01C
E01C
0000
0000
0000
0000
0000
0000
0000
0000
0300
0300
ENDCHAR
STARTCHAR uni2236
ENCODING 8758
BBX 4 10 11 4
BITMAP
60
70
60
00
00
00
00
60
F0
60
ENDCHAR
STARTCHAR uni2237
ENCODING 8759
BBX 12 12 7 2
BITMAP
E070
E070
0000
0000
0000
0000
0000
0000
0000
6060
E070
4020
ENDCHAR
STARTCHAR uni223D
ENCODING 8765
BBX 20 7 3 5
BITMAP
800300
800DC0
803060
406020
40C030
218010
1E0010
ENDCHAR
STARTCHAR approxequal
ENCODING 8776
BBX 18 7 4 5
BITMAP
3F0040
61E180
803F00
000000
3F0040
E1E180
801F00
ENDCHAR
STARTCHAR uni224C
ENCODING 8780
BBX 21 14 2 1
BITMAP
4007E0
400C30
401010
202018
30C008
0F8008
000000
000000
000000
FFFFF8
000000
000000
000000
FFFFF8
ENDCHAR
STARTCHAR notequal
ENCODING 8800
BBX 18 17 4 0
BITMAP
000300
000200
000400
000800
001800
001000
FFFFC0
004000
00C000
008000
FFFFC0
020000
060000
040000
080000
100000
300000
ENDCHAR
STARTCHAR equivalence
ENCODING 8801
BBX 18 9 4 4
BITMAP
FFFFC0
FFFFC0
000000
000000
FFFFC0
000000
000000
000000
FFFFC0
ENDCHAR
STARTCHAR lessequal
ENCODING 8804
BBX 18 16 4 0
BITMAP
000040
0007C0
003E00
03E000
3F0000
F00000
F80000
1F0000
01F000
003F00
E003C0
7C0040
07C000
00F800
000F80
0000C0
ENDCHAR
STARTCHAR greaterequal
ENCODING 8805
BBX 18 16 4 0
BITMAP
800000
F80000
1F0000
01F000
003F00
0003C0
0007C0
003E00
03F000
3F0000
F001C0
800F80
00FC00
07C000
7C0000
C00000
ENDCHAR
STARTCHAR uni226E
ENCODING 8814
BBX 18 17 4 0
BITMAP
000800
001840
001380
001E00
007000
01E000
0E6000
384000
C0C000
708000
0E8000
038000
017000
031C00
020380
0600C0
040000
ENDCHAR
STARTCHAR uni226F
ENCODING 8815
BBX 18 17 4 0
BITMAP
000800
801800
701000
1C1000
03A000
00E000
007C00
004700
00C0C0
008380
009C00
017000
038000
0F0000
720000
C60000
040000
ENDCHAR
STARTCHAR uni2299
ENCODING 8857
BBX 18 19 4 0
BITMAP
00C000
073800
180600
200100
600180
400080
800040
800040
80C040
80C040
80C040
800040
800040
C000C0
400080
200100
300300
0C0C00
03F000
ENDCHAR
STARTCHAR perpendicular
ENCODING 8869
BBX 16 16 5 0
BITMAP
0180
0180
0180
0180
0180
0180
0180
0180
0180
0180
0180
0180
0180
0180
0180
FFFF
ENDCHAR
STARTCHAR uni2312
ENCODING 8978
BBX 21 7 2 6
BITMAP
01FE00
07FF80
0E01C0
180060
300030
400008
800008
ENDCHAR
STARTCHAR uni2460
ENCODING 9312
BBX 22 21 2 -1
BITMAP
00FC00
070380
080040
100020
200010
403808
407808
81F804
803004
803004
803004
803004
803004
803004
807808
407808
203810
200030
180060
060180
01FE00
ENDCHAR
STARTCHAR uni2461
ENCODING 9313
BBX 22 21 2 -1
BITMAP
00FC00
070380
080040
100020
200010
40FC08
41C608
838704
800704
800E04
801C04
807004
80E004
81C004
838308
43FE08
200010
200030
180060
060180
01FE00
ENDCHAR
STARTCHAR uni2462
ENCODING 9314
BBX 22 21 2 -1
BITMAP
00FC00
070380
080040
100020
200010
40FC08
438608
810704
800704
800E04
80F804
800E04
800704
800304
830708
43CE08
21FC10
200030
180060
060180
01FE00
ENDCHAR
STARTCHAR uni2463
ENCODING 9315
BBX 22 21 2 -1
BITMAP
00FC00
070380
080040
100020
201810
403808
403808
807804
80DC04
818C04
831C04
861C84
8FFF84
841E04
801C08
401C08
200810
200030
180060
060180
01FE00
ENDCHAR
STARTCHAR uni2464
ENCODING 9316
BBX 22 21 2 -1
BITMAP
00FC00
070380
080040
100020
200010
418308
41FE08
81C004
81C004
819004
81FE04
818704
800704
810704
830708
43DE08
20F810
200030
180060
060180
01FE00
ENDCHAR
STARTCHAR uni2465
ENCODING 9317
BBX 22 21 2 -1
BITMAP
00FC00
070380
080040
100020
200010
40FE08
41C708
838E04
838004
833C04
83EE04
838704
838704
838704
838608
41FE08
207010
200030
180060
060180
01FE00
ENDCHAR
STARTCHAR uni2466
ENCODING 9318
BBX 22 21 2 -1
BITMAP
00FC00
070380
080040
100020
200010
400008
47FF08
818704
800E04
800C04
801804
803804
803004
803004
807008
407008
203010
200030
180060
060180
01FE00
ENDCHAR
STARTCHAR uni2467
ENCODING 9319
BBX 22 21 2 -1
BITMAP
00FC00
070380
080040
100020
200010
40FC08
418F08
838604
819E04
81F804
807C04
81CE04
838704
830304
830708
41FE08
203010
200030
180060
060180
01FE00
ENDCHAR
STARTCHAR uni2468
ENCODING 9320
BBX 22 21 2 -1
BITMAP
00FC00
070380
080040
100020
200010
407B08
41C708
838704
870604
870C04
87BC04
83EC04
801C04
801C04
801C08
403808
201810
200030
180060
060180
01FE00
ENDCHAR
STARTCHAR uni2469
ENCODING 9321
BBX 22 21 2 -1
BITMAP
00FC00
070380
080040
100020
200010
430F08
470908
831984
831184
831084
833084
833084
831184
831184
831988
430F08
210210
200030
180060
060180
01FE00
ENDCHAR
STARTCHAR uni2474
ENCODING 9332
BBX 24 21 1 -1
BITMAP
100008
200008
200004
200004
401802
401C02
407C02
407802
801802
801801
801801
801801
801803
401802
401802
401802
403802
201C04
201804
200004
100008
ENDCHAR
STARTCHAR uni2475
ENCODING 9333
BBX 24 21 1 -1
BITMAP
100008
200008
200004
200004
401802
407E02
40E302
41C302
808302
800701
800701
800E01
801C03
403002
406002
40E002
41C082
21FF04
20FE04
200004
100008
ENDCHAR
STARTCHAR uni2476
ENCODING 9334
BBX 24 21 1 -1
BITMAP
100008
200008
200004
200004
403C02
40FE02
40C302
40C302
800302
800701
803E01
803C01
800703
400382
400382
408382
41C302
20FF04
207C04
200004
100008
ENDCHAR
STARTCHAR uni2477
ENCODING 9335
BBX 24 21 1 -1
BITMAP
100008
200008
200004
200004
400802
400C02
400C02
401C02
803E02
803601
806601
80C601
81C603
43FFC2
43FF82
410602
400E02
200E04
200604
200004
100008
ENDCHAR
STARTCHAR uni2478
ENCODING 9336
BBX 24 21 1 -1
BITMAP
100008
200008
200004
200004
408002
40FF82
40FE02
40E002
80E002
80E001
80FE01
80FF01
804303
400382
400382
41C382
41C702
20EE04
207C04
200004
100008
ENDCHAR
STARTCHAR uni2479
ENCODING 9337
BBX 24 21 1 -1
BITMAP
100008
200008
200004
200004
401C02
403F02
406382
40C302
80C002
81C001
81DE01
81E701
81C383
41C382
41C382
40C382
40E302
207704
203C04
200004
100008
ENDCHAR
STARTCHAR uni247A
ENCODING 9338
BBX 24 21 1 -1
BITMAP
100008
200008
200004
200004
400002
41FF82
41F382
400702
800602
800E01
800C01
800C01
801C03
401802
401802
403802
403802
203804
201804
200004
100008
ENDCHAR
STARTCHAR uni247B
ENCODING 9339
BBX 24 21 1 -1
BITMAP
100008
200008
200004
200004
401802
406E02
40C702
40C302
80C702
80EE01
807C01
803E01
806703
40C382
41C382
418382
41C382
20FF04
207E04
200004
100008
ENDCHAR
STARTCHAR uni247C
ENCODING 9340
BBX 24 21 1 -1
BITMAP
100008
200008
200004
200004
401D02
407F82
40E382
40C302
818302
818601
81CE01
81FE01
80E603
400E02
400E02
400E02
400C02
200C04
200C04
200004
100008
ENDCHAR
STARTCHAR uni247D
ENCODING 9341
BBX 24 21 1 -1
BITMAP
100008
200008
200004
200004
410302
438782
478C42
4F0C62
831862
831871
831871
831871
831873
431872
431862
431862
431C62
230FC4
230784
200004
100008
ENDCHAR
STARTCHAR uni247E
ENCODING 9342
BBX 24 21 1 -1
BITMAP
100008
200008
200004
200004
418082
4381C2
4783C2
478782
818182
818181
818181
818181
818183
418182
418182
438182
438182
2381C4
218184
200004
100008
ENDCHAR
STARTCHAR uni247F
ENCODING 9343
BBX 24 21 1 -1
BITMAP
100008
200008
200004
200004
410302
438FC2
479CE2
4F1862
830062
8300E1
8300C1
8301C1
830383
430602
430E02
430C02
431832
231FE4
231FC4
200004
100008
ENDCHAR
STARTCHAR uni2480
ENCODING 9344
BBX 24 21 1 -1
BITMAP
100008
200008
200004
200004
410782
438FC2
479862
4F1862
830062
8300E1
8307C1
830781
8300E3
430062
430072
431062
431862
231FE4
230F84
200004
100008
ENDCHAR
STARTCHAR uni2481
ENCODING 9345
BBX 24 21 1 -1
BITMAP
100008
200008
200004
200004
410082
4380C2
4781C2
4F0382
8303C2
8306C1
830EC1
830CC1
8318C3
433FFA
433FF2
4300C2
4300C2
2300C4
2300C4
200004
100008
ENDCHAR
STARTCHAR uni2482
ENCODING 9346
BBX 24 21 1 -1
BITMAP
100008
200008
200004
200004
410802
438FF2
478FC2
4F0C02
830C02
830C01
830FC1
831FE1
830873
430072
430072
431872
431862
231FE4
230F84
200004
100008
ENDCHAR
STARTCHAR uni2483
ENCODING 9347
BBX 24 21 1 -1
BITMAP
100008
200008
200004
200004
410182
4387E2
478C72
4F0C62
831802
831801
831BC1
831EE1
831C73
431872
431832
431872
431C62
230EE4
230784
200004
100008
ENDCHAR
STARTCHAR uni2484
ENCODING 9348
BBX 24 21 1 -1
BITMAP
100008
200008
200004
200004
410002
439FF2
479E72
4F0062
8300E2
8300C1
830181
830181
830183
430382
430302
430302
430302
230304
230304
200004
100008
ENDCHAR
STARTCHAR uni2485
ENCODING 9349
BBX 24 21 1 -1
BITMAP
100008
200008
200004
200004
410382
4386C2
478C72
4F0C32
830CE2
830CC1
830781
8307C1
830EE3
430C72
431832
431832
431832
230EE4
2307C4
200004
100008
ENDCHAR
STARTCHAR uni2486
ENCODING 9350
BBX 24 21 1 -1
BITMAP
100008
200008
200004
200004
4101A2
4387F2
478C72
4F1862
831862
831841
8318C1
831FC1
830EC3
4300C2
4301C2
430182
430182
230184
230084
200004
100008
ENDCHAR
STARTCHAR uni2487
ENCODING 9351
BBX 24 21 1 -1
BITMAP
100008
200008
200004
200004
418082
47E3C2
466222
4E6622
846632
806631
80E631
80C631
818633
430632
430632
460632
441622
2FF3E4
27E1C4
200004
100008
ENDCHAR
STARTCHAR uni2488
ENCODING 9352
BBX 16 15 5 1
BITMAP
1800
3800
7800
F800
3800
3800
3800
3800
3800
3800
3800
3800
3807
380F
1807
ENDCHAR
STARTCHAR uni2489
ENCODING 9353
BBX 18 15 4 1
BITMAP
0E0000
3F8000
718000
61C000
41C000
018000
038000
070000
0E0000
1C0000
380000
700000
604380
FFC3C0
7F8180
ENDCHAR
STARTCHAR uni248A
ENCODING 9354
BBX 18 15 4 1
BITMAP
1E0000
7F8000
618000
61C000
01C000
038000
1F0000
1E0000
038000
01C000
01C000
41C000
E18380
7F83C0
3E0180
ENDCHAR
STARTCHAR uni248B
ENCODING 9355
BBX 18 15 4 1
BITMAP
020000
030000
030000
070000
0F8000
0D8000
198000
318000
718000
FFF000
FFE000
418000
038380
0383C0
018180
ENDCHAR
STARTCHAR uni248C
ENCODING 9356
BBX 18 15 4 1
BITMAP
400000
7FC000
7F0000
700000
700000
700000
7F0000
7F8000
218000
01C000
01C000
E1C000
E38380
7703C0
3E0180
ENDCHAR
STARTCHAR uni248D
ENCODING 9357
BBX 18 15 4 1
BITMAP
0E0000
1F8000
31C000
71C000
600000
600000
EF0000
FB8000
E1C000
E1C000
E1C000
61C000
71C380
3B83C0
1E0180
ENDCHAR
STARTCHAR uni248E
ENCODING 9358
BBX 17 14 5 1
BITMAP
FF8000
FBC000
038000
030000
060000
060000
0E0000
0C0000
0C0000
1C0000
1C0000
1C0700
1C0780
0C0300
ENDCHAR
STARTCHAR uni248F
ENCODING 9359
BBX 18 15 4 1
BITMAP
0C0000
370000
63C000
618000
638000
770000
3E0000
1F0000
338000
71C000
E1C000
E0C000
E1C380
7F83C0
3F0180
ENDCHAR
STARTCHAR uni2490
ENCODING 9360
BBX 18 15 4 1
BITMAP
068000
3FC000
71C000
61C000
E18000
E18000
E70000
7F0000
330000
030000
030000
070000
070380
0703C0
030180
ENDCHAR
STARTCHAR uni2491
ENCODING 9361
BBX 23 15 2 1
BITMAP
300C00
383E00
783100
F06180
306180
30E1C0
30E1C0
30E1C0
30E1C0
30E1C0
30E180
306180
30639C
303F1E
301E0C
ENDCHAR
STARTCHAR uni2492
ENCODING 9362
BBX 23 15 2 1
BITMAP
300400
380E00
781E00
F03E00
300C00
300C00
300C00
300C00
300C00
300C00
300C00
300C00
300E1C
300E1E
300E0C
ENDCHAR
STARTCHAR uni2493
ENCODING 9363
BBX 23 15 2 1
BITMAP
300C00
383F00
787380
F0E180
304180
300380
300380
300700
300E00
301800
303000
307000
30E0DC
30FF9E
307F0C
ENDCHAR
STARTCHAR uni2494
ENCODING 9364
BBX 23 15 2 1
BITMAP
300E00
383F80
786180
F061C0
3001C0
300380
301F00
301E00
300380
3001C0
3001C0
3041C0
30E1DC
307F9E
303E0C
ENDCHAR
STARTCHAR uni2495
ENCODING 9365
BBX 23 15 2 1
BITMAP
300400
380600
780600
F00E00
301F00
301B00
303300
306300
30E300
30FFE0
31FFC0
308300
30071C
30071E
30030C
ENDCHAR
STARTCHAR uni2496
ENCODING 9366
BBX 23 15 2 1
BITMAP
300000
383FC0
783F80
F03000
303000
307000
307F00
307F80
3021C0
3001C0
3001C0
3061C0
3061DC
307F9E
303E0C
ENDCHAR
STARTCHAR uni2497
ENCODING 9367
BBX 23 15 2 1
BITMAP
300700
381F80
7839C0
F031C0
306000
306000
306F00
307B80
30F1C0
30E0C0
3060C0
3071C0
3071DC
303B9E
301F0C
ENDCHAR
STARTCHAR uni2498
ENCODING 9368
BBX 23 15 2 1
BITMAP
300000
387FC0
787DE0
F001C0
300180
300300
300300
300700
300600
300E00
300E00
300E00
300E1C
300E1E
30060C
ENDCHAR
STARTCHAR uni2499
ENCODING 9369
BBX 23 15 2 1
BITMAP
300C00
383700
7863C0
F06180
306380
307700
303E00
301F00
303380
3071C0
30E1C0
30E0C0
30E1DC
307F9E
303F0C
ENDCHAR
STARTCHAR uni249A
ENCODING 9370
BBX 23 15 2 1
BITMAP
300640
381FC0
7838E0
F070C0
3060C0
306180
306380
307F80
303900
300300
300300
300300
30031C
30031E
30030C
ENDCHAR
STARTCHAR uni249B
ENCODING 9371
BBX 24 15 1 1
BITMAP
0C0100
3F07C0
738C40
618C60
019C60
039870
031870
061870
0C1870
181870
301860
701C60
60CC6E
FF8FCF
7F0786
ENDCHAR
STARTCHAR SF100000
ENCODING 9472
BBX 26 2 0 8
BITMAP
FFFFFFC0
FFFFFFC0
ENDCHAR
STARTCHAR uni2501
ENCODING 9473
BBX 26 3 0 8
BITMAP
FFFFFFC0
FFFFFFC0
FFFFFFC0
ENDCHAR
STARTCHAR SF110000
ENCODING 9474
BBX 2 26 12 -4
BITMAP
C0
C0
C0
C0
C0
C0
C0
C0
C0
C0
C0
C0
C0
C0
C0
C0
C0
C0
C0
C0
C0
C0
C0
C0
C0
C0
ENDCHAR
STARTCHAR uni2503
ENCODING 9475
BBX 3 26 11 -4
BITMAP
E0
E0
E0
E0
E0
E0
E0
E0
E0
E0
E0
E0
E0
E0
E0
E0
E0
E0
E0
E0
E0
E0
E0
E0
E0
E0
ENDCHAR
STARTCHAR uni2504
ENCODING 9476
BBX 24 2 1 8
BITMAP
FC7E3F
FC7E3F
ENDCHAR
STARTCHAR uni2505
ENCODING 9477
BBX 24 3 1 8
BITMAP
FC7E3F
FC7E3F
FC7E3F
ENDCHAR
STARTCHAR uni2506
ENCODING 9478
BBX 2 23 12 -2
BITMAP
C0
C0
C0
C0
C0
C0
00
00
00
C0
C0
C0
C0
C0
C0
00
00
00
C0
C0
C0
C0
C0
ENDCHAR
STARTCHAR uni2507
ENCODING 9479
BBX 3 23 11 -2
BITMAP
E0
E0
E0
E0
E0
E0
00
00
00
E0
E0
E0
E0
E0
E0
00
00
00
E0
E0
E0
E0
E0
ENDCHAR
STARTCHAR uni2508
ENCODING 9480
BBX 24 2 1 8
BITMAP
F1E78F
F1E78F
ENDCHAR
STARTCHAR uni2509
ENCODING 9481
BBX 24 3 1 8
BITMAP
F1E78F
F1E78F
F1E78F
ENDCHAR
STARTCHAR uni250A
ENCODING 9482
BBX 2 23 12 -2
BITMAP
C0
C0
C0
C0
00
00
00
C0
C0
C0
C0
00
00
C0
C0
C0
C0
00
00
00
C0
C0
C0
ENDCHAR
STARTCHAR uni250B
ENCODING 9483
BBX 3 23 11 -2
BITMAP
E0
E0
E0
E0
00
00
00
E0
E0
E0
E0
00
00
E0
E0
E0
E0
00
00
00
E0
E0
E0
ENDCHAR
STARTCHAR SF010000
ENCODING 9484
BBX 14 14 12 -4
BITMAP
FFFC
FFFC
C000
C000
C000
C000
C000
C000
C000
C000
C000
C000
C000
C000
ENDCHAR
STARTCHAR uni250D
ENCODING 9485
BBX 14 15 12 -4
BITMAP
FFFC
FFFC
FFFC
C000
C000
C000
C000
C000
C000
C000
C000
C000
C000
C000
C000
ENDCHAR
STARTCHAR uni250E
ENCODING 9486
BBX 15 14 11 -4
BITMAP
FFFE
FFFE
E000
E000
E000
E000
E000
E000
E000
E000
E000
E000
E000
E000
ENDCHAR
STARTCHAR uni250F
ENCODING 9487
BBX 15 15 11 -4
BITMAP
FFFE
FFFE
FFFE
E000
E000
E000
E000
E000
E000
E000
E000
E000
E000
E000
E000
ENDCHAR
STARTCHAR SF030000
ENCODING 9488
BBX 14 14 0 -4
BITMAP
FFFC
FFFC
000C
000C
000C
000C
000C
000C
000C
000C
000C
000C
000C
000C
ENDCHAR
STARTCHAR uni2511
ENCODING 9489
BBX 14 15 0 -4
BITMAP
FFFC
FFFC
FFFC
000C
000C
000C
000C
000C
000C
000C
000C
000C
000C
000C
000C
ENDCHAR
STARTCHAR uni2512
ENCODING 9490
BBX 14 14 0 -4
BITMAP
FFFC
FFFC
001C
001C
001C
001C
001C
001C
001C
001C
001C
001C
001C
001C
ENDCHAR
STARTCHAR uni2513
ENCODING 9491
BBX 14 15 0 -4
BITMAP
FFFC
FFFC
FFFC
001C
001C
001C
001C
001C
001C
001C
001C
001C
001C
001C
001C
ENDCHAR
STARTCHAR SF020000
ENCODING 9492
BBX 14 14 12 8
BITMAP
C000
C000
C000
C000
C000
C000
C000
C000
C000
C000
C000
C000
FFFC
FFFC
ENDCHAR
STARTCHAR uni2515
ENCODING 9493
BBX 14 14 12 8
BITMAP
C000
C000
C000
C000
C000
C000
C000
C000
C000
C000
C000
FFFC
FFFC
FFFC
ENDCHAR
STARTCHAR uni2516
ENCODING 9494
BBX 15 14 11 8
BITMAP
E000
E000
E000
E000
E000
E000
E000
E000
E000
E000
E000
E000
FFFE
FFFE
ENDCHAR
STARTCHAR uni2517
ENCODING 9495
BBX 15 14 11 8
BITMAP
E000
E000
E000
E000
E000
E000
E000
E000
E000
E000
E000
FFFE
FFFE
FFFE
ENDCHAR
STARTCHAR SF040000
ENCODING 9496
BBX 14 14 0 8
BITMAP
000C
000C
000C
000C
000C
000C
000C
000C
000C
000C
000C
000C
FFFC
FFFC
ENDCHAR
STARTCHAR uni2519
ENCODING 9497
BBX 14 14 0 8
BITMAP
000C
000C
000C
000C
000C
000C
000C
000C
000C
000C
000C
FFFC
FFFC
FFFC
ENDCHAR
STARTCHAR uni251A
ENCODING 9498
BBX 14 14 0 8
BITMAP
001C
001C
001C
001C
001C
001C
001C
001C
001C
001C
001C
001C
FFFC
FFFC
ENDCHAR
STARTCHAR uni251B
ENCODING 9499
BBX 14 14 0 8
BITMAP
001C
001C
001C
001C
001C
001C
001C
001C
001C
001C
001C
FFFC
FFFC
FFFC
ENDCHAR
STARTCHAR SF080000
ENCODING 9500
BBX 14 26 12 -4
BITMAP
C000
C000
C000
C000
C000
C000
C000
C000
C000
C000
C000
C000
FFFC
FFFC
C000
C000
C000
C000
C000
C000
C000
C000
C000
C000
C000
C000
ENDCHAR
STARTCHAR uni251D
ENCODING 9501
BBX 14 26 12 -4
BITMAP
C000
C000
C000
C000
C000
C000
C000
C000
C000
C000
C000
FFFC
FFFC
FFFC
C000
C000
C000
C000
C000
C000
C000
C000
C000
C000
C000
C000
ENDCHAR
STARTCHAR uni251E
ENCODING 9502
BBX 15 26 11 -4
BITMAP
E000
E000
E000
E000
E000
E000
E000
E000
E000
E000
E000
E000
FFFE
7FFE
6000
6000
6000
6000
6000
6000
6000
6000
6000
6000
6000
6000
ENDCHAR
STARTCHAR uni251F
ENCODING 9503
BBX 15 26 11 -4
BITMAP
6000
6000
6000
6000
6000
6000
6000
6000
6000
6000
6000
6000
7FFE
FFFE
E000
E000
E000
E000
E000
E000
E000
E000
E000
E000
E000
E000
ENDCHAR
STARTCHAR uni2520
ENCODING 9504
BBX 15 26 11 -4
BITMAP
E000
E000
E000
E000
E000
E000
E000
E000
E000
E000
E000
E000
FFFE
FFFE
E000
E000
E000
E000
E000
E000
E000
E000
E000
E000
E000
E000
ENDCHAR
STARTCHAR uni2521
ENCODING 9505
BBX 15 26 11 -4
BITMAP
E000
E000
E000
E000
E000
E000
E000
E000
E000
E000
E000
FFFE
FFFE
FFFE
6000
6000
6000
6000
6000
6000
6000
6000
6000
6000
6000
6000
ENDCHAR
STARTCHAR uni2522
ENCODING 9506
BBX 15 26 11 -4
BITMAP
6000
6000
6000
6000
6000
6000
6000
6000
6000
6000
6000
FFFE
FFFE
FFFE
E000
E000
E000
E000
E000
E000
E000
E000
E000
E000
E000
E000
ENDCHAR
STARTCHAR uni2523
ENCODING 9507
BBX 15 26 11 -4
BITMAP
E000
E000
E000
E000
E000
E000
E000
E000
E000
E000
E000
FFFE
FFFE
FFFE
E000
E000
E000
E000
E000
E000
E000
E000
E000
E000
E000
E000
ENDCHAR
STARTCHAR SF090000
ENCODING 9508
BBX 14 26 0 -4
BITMAP
000C
000C
000C
000C
000C
000C
000C
000C
000C
000C
000C
000C
FFFC
FFFC
000C
000C
000C
000C
000C
000C
000C
000C
000C
000C
000C
000C
ENDCHAR
STARTCHAR uni2525
ENCODING 9509
BBX 14 26 0 -4
BITMAP
000C
000C
000C
000C
000C
000C
000C
000C
000C
000C
000C
FFFC
FFFC
FFFC
000C
000C
000C
000C
000C
000C
000C
000C
000C
000C
000C
000C
ENDCHAR
STARTCHAR uni2526
ENCODING 9510
BBX 14 26 0 -4
BITMAP
001C
001C
001C
001C
001C
001C
001C
001C
001C
001C
001C
001C
FFFC
FFFC
000C
000C
000C
000C
000C
000C
000C
000C
000C
000C
000C
000C
ENDCHAR
STARTCHAR uni2527
ENCODING 9511
BBX 14 26 0 -4
BITMAP
000C
000C
000C
000C
000C
000C
000C
000C
000C
000C
000C
000C
FFFC
FFFC
001C
001C
001C
001C
001C
001C
001C
001C
001C
001C
001C
001C
ENDCHAR
STARTCHAR uni2528
ENCODING 9512
BBX 14 26 0 -4
BITMAP
001C
001C
001C
001C
001C
001C
001C
001C
001C
001C
001C
001C
FFFC
FFFC
001C
001C
001C
001C
001C
001C
001C
001C
001C
001C
001C
001C
ENDCHAR
STARTCHAR uni2529
ENCODING 9513
BBX 14 26 0 -4
BITMAP
001C
001C
001C
001C
001C
001C
001C
001C
001C
001C
001C
FFFC
FFFC
FFFC
000C
000C
000C
000C
000C
000C
000C
000C
000C
000C
000C
000C
ENDCHAR
STARTCHAR uni252A
ENCODING 9514
BBX 14 26 0 -4
BITMAP
000C
000C
000C
000C
000C
000C
000C
000C
000C
000C
000C
FFFC
FFFC
FFFC
001C
001C
001C
001C
001C
001C
001C
001C
001C
001C
001C
001C
ENDCHAR
STARTCHAR uni252B
ENCODING 9515
BBX 14 26 0 -4
BITMAP
001C
001C
001C
001C
001C
001C
001C
001C
001C
001C
001C
FFFC
FFFC
FFFC
001C
001C
001C
001C
001C
001C
001C
001C
001C
001C
001C
001C
ENDCHAR
STARTCHAR SF060000
ENCODING 9516
BBX 26 14 0 -4
BITMAP
FFFFFFC0
FFFFFFC0
000C0000
000C0000
000C0000
000C0000
000C0000
000C0000
000C0000
000C0000
000C0000
000C0000
000C0000
000C0000
ENDCHAR
STARTCHAR uni252D
ENCODING 9517
BBX 26 15 0 -4
BITMAP
FFFC0000
FFFFFFC0
FFFFFFC0
000C0000
000C0000
000C0000
000C0000
000C0000
000C0000
000C0000
000C0000
000C0000
000C0000
000C0000
000C0000
ENDCHAR
STARTCHAR uni252E
ENCODING 9518
BBX 26 15 0 -4
BITMAP
000FFFC0
FFFFFFC0
FFFFFFC0
000C0000
000C0000
000C0000
000C0000
000C0000
000C0000
000C0000
000C0000
000C0000
000C0000
000C0000
000C0000
ENDCHAR
STARTCHAR uni252F
ENCODING 9519
BBX 26 15 0 -4
BITMAP
FFFFFFC0
FFFFFFC0
FFFFFFC0
000C0000
000C0000
000C0000
000C0000
000C0000
000C0000
000C0000
000C0000
000C0000
000C0000
000C0000
000C0000
ENDCHAR
STARTCHAR uni2530
ENCODING 9520
BBX 26 14 0 -4
BITMAP
FFFFFFC0
FFFFFFC0
001C0000
001C0000
001C0000
001C0000
001C0000
001C0000
001C0000
001C0000
001C0000
001C0000
001C0000
001C0000
ENDCHAR
STARTCHAR uni2531
ENCODING 9521
BBX 26 15 0 -4
BITMAP
FFFC0000
FFFFFFC0
FFFFFFC0
001C0000
001C0000
001C0000
001C0000
001C0000
001C0000
001C0000
001C0000
001C0000
001C0000
001C0000
001C0000
ENDCHAR
STARTCHAR uni2532
ENCODING 9522
BBX 26 15 0 -4
BITMAP
001FFFC0
FFFFFFC0
FFFFFFC0
001C0000
001C0000
001C0000
001C0000
001C0000
001C0000
001C0000
001C0000
001C0000
001C0000
001C0000
001C0000
ENDCHAR
STARTCHAR uni2533
ENCODING 9523
BBX 26 15 0 -4
BITMAP
FFFFFFC0
FFFFFFC0
FFFFFFC0
001C0000
001C0000
001C0000
001C0000
001C0000
001C0000
001C0000
001C0000
001C0000
001C0000
001C0000
001C0000
ENDCHAR
STARTCHAR SF070000
ENCODING 9524
BBX 26 14 0 8
BITMAP
000C0000
000C0000
000C0000
000C0000
000C0000
000C0000
000C0000
000C0000
000C0000
000C0000
000C0000
000C0000
FFFFFFC0
FFFFFFC0
ENDCHAR
STARTCHAR uni2535
ENCODING 9525
BBX 26 14 0 8
BITMAP
000C0000
000C0000
000C0000
000C0000
000C0000
000C0000
000C0000
000C0000
000C0000
000C0000
000C0000
FFFC0000
FFFFFFC0
FFFFFFC0
ENDCHAR
STARTCHAR uni2536
ENCODING 9526
BBX 26 14 0 8
BITMAP
000C0000
000C0000
000C0000
000C0000
000C0000
000C0000
000C0000
000C0000
000C0000
000C0000
000C0000
000FFFC0
FFFFFFC0
FFFFFFC0
ENDCHAR
STARTCHAR uni2537
ENCODING 9527
BBX 26 14 0 8
BITMAP
000C0000
000C0000
000C0000
000C0000
000C0000
000C0000
000C0000
000C0000
000C0000
000C0000
000C0000
FFFFFFC0
FFFFFFC0
FFFFFFC0
ENDCHAR
STARTCHAR uni2538
ENCODING 9528
BBX 26 14 0 8
BITMAP
001C0000
001C0000
001C0000
001C0000
001C0000
001C0000
001C0000
001C0000
001C0000
001C0000
001C0000
001C0000
FFFFFFC0
FFFFFFC0
ENDCHAR
STARTCHAR uni2539
ENCODING 9529
BBX 26 14 0 8
BITMAP
001C0000
001C0000
001C0000
001C0000
001C0000
001C0000
001C0000
001C0000
001C0000
001C0000
001C0000
FFFC0000
FFFFFFC0
FFFFFFC0
ENDCHAR
STARTCHAR uni253A
ENCODING 9530
BBX 26 14 0 8
BITMAP
001C0000
001C0000
001C0000
001C0000
001C0000
001C0000
001C0000
001C0000
001C0000
001C0000
001C0000
001FFFC0
FFFFFFC0
FFFFFFC0
ENDCHAR
STARTCHAR uni253B
ENCODING 9531
BBX 26 14 0 8
BITMAP
001C0000
001C0000
001C0000
001C0000
001C0000
001C0000
001C0000
001C0000
001C0000
001C0000
001C0000
FFFFFFC0
FFFFFFC0
FFFFFFC0
ENDCHAR
STARTCHAR SF050000
ENCODING 9532
BBX 26 26 0 -4
BITMAP
000C0000
000C0000
000C0000
000C0000
000C0000
000C0000
000C0000
000C0000
000C0000
000C0000
000C0000
000C0000
FFFFFFC0
FFFFFFC0
000C0000
000C0000
000C0000
000C0000
000C0000
000C0000
000C0000
000C0000
000C0000
000C0000
000C0000
000C0000
ENDCHAR
STARTCHAR uni253D
ENCODING 9533
BBX 26 26 0 -4
BITMAP
000C0000
000C0000
000C0000
000C0000
000C0000
000C0000
000C0000
000C0000
000C0000
000C0000
000C0000
FFFC0000
FFFFFFC0
FFFFFFC0
000C0000
000C0000
000C0000
000C0000
000C0000
000C0000
000C0000
000C0000
000C0000
000C0000
000C0000
000C0000
ENDCHAR
STARTCHAR uni253E
ENCODING 9534
BBX 26 26 0 -4
BITMAP
000C0000
000C0000
000C0000
000C0000
000C0000
000C0000
000C0000
000C0000
000C0000
000C0000
000C0000
000FFFC0
FFFFFFC0
FFFFFFC0
000C0000
000C0000
000C0000
000C0000
000C0000
000C0000
000C0000
000C0000
000C0000
000C0000
000C0000
000C0000
ENDCHAR
STARTCHAR uni253F
ENCODING 9535
BBX 26 26 0 -4
BITMAP
000C0000
000C0000
000C0000
000C0000
000C0000
000C0000
000C0000
000C0000
000C0000
000C0000
000C0000
FFFFFFC0
FFFFFFC0
FFFFFFC0
000C0000
000C0000
000C0000
000C0000
000C0000
000C0000
000C0000
000C0000
000C0000
000C0000
000C0000
000C0000
ENDCHAR
STARTCHAR uni2540
ENCODING 9536
BBX 26 26 0 -4
BITMAP
001C0000
001C0000
001C0000
001C0000
001C0000
001C0000
001C0000
001C0000
001C0000
001C0000
001C0000
001C0000
FFFFFFC0
FFFFFFC0
000C0000
000C0000
000C0000
000C0000
000C0000
000C0000
000C0000
000C0000
000C0000
000C0000
000C0000
000C0000
ENDCHAR
STARTCHAR uni2541
ENCODING 9537
BBX 26 26 0 -4
BITMAP
000C0000
000C0000
000C0000
000C0000
000C0000
000C0000
000C0000
000C0000
000C0000
000C0000
000C0000
000C0000
FFFFFFC0
FFFFFFC0
001C0000
001C0000
001C0000
001C0000
001C0000
001C0000
001C0000
001C0000
001C0000
001C0000
001C0000
001C0000
ENDCHAR
STARTCHAR uni2542
ENCODING 9538
BBX 26 26 0 -4
BITMAP
001C0000
001C0000
001C0000
001C0000
001C0000
001C0000
001C0000
001C0000
001C0000
001C0000
001C0000
001C0000
FFFFFFC0
FFFFFFC0
001C0000
001C0000
001C0000
001C0000
001C0000
001C0000
001C0000
001C0000
001C0000
001C0000
001C0000
001C0000
ENDCHAR
STARTCHAR uni2543
ENCODING 9539
BBX 26 26 0 -4
BITMAP
001C0000
001C0000
001C0000
001C0000
001C0000
001C0000
001C0000
001C0000
001C0000
001C0000
001C0000
FFFC0000
FFFFFFC0
FFFFFFC0
000C0000
000C0000
000C0000
000C0000
000C0000
000C0000
000C0000
000C0000
000C0000
000C0000
000C0000
000C0000
ENDCHAR
STARTCHAR uni2544
ENCODING 9540
BBX 26 26 0 -4
BITMAP
001C0000
001C0000
001C0000
001C0000
001C0000
001C0000
001C0000
001C0000
001C0000
001C0000
001C0000
001FFFC0
FFFFFFC0
FFFFFFC0
000C0000
000C0000
000C0000
000C0000
000C0000
000C0000
000C0000
000C0000
000C0000
000C0000
000C0000
000C0000
ENDCHAR
STARTCHAR uni2545
ENCODING 9541
BBX 26 26 0 -4
BITMAP
000C0000
000C0000
000C0000
000C0000
000C0000
000C0000
000C0000
000C0000
000C0000
000C0000
000C0000
FFFC0000
FFFFFFC0
FFFFFFC0
001C0000
001C0000
001C0000
001C0000
001C0000
001C0000
001C0000
001C0000
001C0000
001C0000
001C0000
001C0000
ENDCHAR
STARTCHAR uni2546
ENCODING 9542
BBX 26 26 0 -4
BITMAP
000C0000
000C0000
000C0000
000C0000
000C0000
000C0000
000C0000
000C0000
000C0000
000C0000
000C0000
000FFFC0
FFFFFFC0
FFFFFFC0
001C0000
001C0000
001C0000
001C0000
001C0000
001C0000
001C0000
001C0000
001C0000
001C0000
001C0000
001C0000
ENDCHAR
STARTCHAR uni2547
ENCODING 9543
BBX 26 26 0 -4
BITMAP
001C0000
001C0000
001C0000
001C0000
001C0000
001C0000
001C0000
001C0000
001C0000
001C0000
001C0000
FFFFFFC0
FFFFFFC0
FFFFFFC0
000C0000
000C0000
000C0000
000C0000
000C0000
000C0000
000C0000
000C0000
000C0000
000C0000
000C0000
000C0000
ENDCHAR
STARTCHAR uni2548
ENCODING 9544
BBX 26 26 0 -4
BITMAP
000C0000
000C0000
000C0000
000C0000
000C0000
000C0000
000C0000
000C0000
000C0000
000C0000
000C0000
FFFFFFC0
FFFFFFC0
FFFFFFC0
001C0000
001C0000
001C0000
001C0000
001C0000
001C0000
001C0000
001C0000
001C0000
001C0000
001C0000
001C0000
ENDCHAR
STARTCHAR uni2549
ENCODING 9545
BBX 26 26 0 -4
BITMAP
001C0000
001C0000
001C0000
001C0000
001C0000
001C0000
001C0000
001C0000
001C0000
001C0000
001C0000
FFFC0000
FFFFFFC0
FFFFFFC0
001C0000
001C0000
001C0000
001C0000
001C0000
001C0000
001C0000
001C0000
001C0000
001C0000
001C0000
001C0000
ENDCHAR
STARTCHAR uni254A
ENCODING 9546
BBX 26 26 0 -4
BITMAP
001C0000
001C0000
001C0000
001C0000
001C0000
001C0000
001C0000
001C0000
001C0000
001C0000
001C0000
001FFFC0
FFFFFFC0
FFFFFFC0
001C0000
001C0000
001C0000
001C0000
001C0000
001C0000
001C0000
001C0000
001C0000
001C0000
001C0000
001C0000
ENDCHAR
STARTCHAR uni254B
ENCODING 9547
BBX 26 26 0 -4
BITMAP
001C0000
001C0000
001C0000
001C0000
001C0000
001C0000
001C0000
001C0000
001C0000
001C0000
001C0000
FFFFFFC0
FFFFFFC0
FFFFFFC0
001C0000
001C0000
001C0000
001C0000
001C0000
001C0000
001C0000
001C0000
001C0000
001C0000
001C0000
001C0000
ENDCHAR
STARTCHAR filledbox
ENCODING 9632
BBX 20 20 3 -1
BITMAP
FFFFF0
FFFFF0
FFFFF0
FFFFF0
FFFFF0
FFFFF0
FFFFF0
FFFFF0
FFFFF0
FFFFF0
FFFFF0
FFFFF0
FFFFF0
FFFFF0
FFFFF0
FFFFF0
FFFFF0
FFFFF0
FFFFF0
FFFFF0
ENDCHAR
STARTCHAR H22073
ENCODING 9633
BBX 20 20 3 -1
BITMAP
FFFFF0
800010
800010
800010
800010
800010
800010
800010
800010
800010
800010
800010
800010
800010
800010
800010
800010
800010
800010
FFFFF0
ENDCHAR
STARTCHAR triagup
ENCODING 9650
BBX 18 19 4 0
BITMAP
008000
00C000
00C000
01E000
01E000
03F000
03F000
07F800
07F800
0FFC00
0FFC00
1FFE00
1FFE00
3FFF00
3FFF00
7FFF80
7FFF80
FFFFC0
FFFFC0
ENDCHAR
STARTCHAR uni25B3
ENCODING 9651
BBX 18 19 4 0
BITMAP
008000
00C000
00C000
012000
012000
021000
021000
040800
040800
080400
080400
100200
100200
200100
200100
400080
400080
800040
FFFFC0
ENDCHAR
STARTCHAR uni25C6
ENCODING 9670
BBX 20 19 3 0
BITMAP
006000
00F000
01F800
03FC00
07FE00
0FFF00
1FFF80
3FFFC0
7FFFE0
FFFFF0
7FFFE0
3FFFC0
1FFF80
0FFF00
07FE00
03FC00
01F800
00F000
004000
ENDCHAR
STARTCHAR uni25C7
ENCODING 9671
BBX 20 19 3 0
BITMAP
006000
00F000
019800
030C00
060600
0C0300
180180
3000C0
600060
C00030
600060
3000C0
180180
0C0300
060600
030C00
019800
00F000
004000
ENDCHAR
STARTCHAR circle
ENCODING 9675
BBX 18 19 4 0
BITMAP
00C000
073800
180600
200100
600180
400080
800040
800040
800040
800040
800040
800040
800040
C000C0
400080
200100
300300
0C0C00
03F000
ENDCHAR
STARTCHAR uni25CE
ENCODING 9678
BBX 18 19 4 0
BITMAP
00C000
073800
180600
21E100
461880
880480
900240
900240
A00240
A00140
A00240
A00240
900240
880440
440880
43F100
200100
180600
07F800
ENDCHAR
STARTCHAR H18533
ENCODING 9679
BBX 18 19 4 0
BITMAP
00C000
07F800
1FFE00
3FFF00
7FFF80
7FFF80
FFFFC0
FFFFC0
FFFFC0
FFFFC0
FFFFC0
FFFFC0
FFFFC0
FFFFC0
7FFF80
3FFF00
3FFF00
0FFC00
03F000
ENDCHAR
STARTCHAR uni2605
ENCODING 9733
BBX 18 17 4 0
BITMAP
00C000
00C000
00C000
01E000
01E000
01E000
FFFFC0
7FFF80
1FFE00
0FFC00
07F800
07F800
07F800
0FFC00
0E1C00
0C0C00
100200
ENDCHAR
STARTCHAR uni2606
ENCODING 9734
BBX 18 17 4 0
BITMAP
00C000
00C000
014000
012000
012000
012000
FE1FC0
600180
100200
080400
040800
040800
080800
09E400
0A1400
140C00
180200
ENDCHAR
STARTCHAR female
ENCODING 9792
BBX 12 20 7 -1
BITMAP
0F00
39C0
6060
4020
C030
8010
8030
C020
4020
2040
1F80
0600
0600
0600
0600
0600
3FC0
0600
0600
0600
ENDCHAR
STARTCHAR male
ENCODING 9794
BBX 12 19 7 -1
BITMAP
0600
0F00
1680
6660
0600
0600
0600
0600
1F80
30C0
4020
4020
C030
8010
C030
4020
6060
30C0
0F00
ENDCHAR
STARTCHAR uni3000
ENCODING 12288
BBX 1 1 0 0
BITMAP
00
ENDCHAR
STARTCHAR uni3001
ENCODING 12289
BBX 5 4 4 -1
BITMAP
80
70
38
18
ENDCHAR
STARTCHAR uni3002
ENCODING 12290
BBX 7 5 3 -1
BITMAP
7C
EE
C6
E6
7C
ENDCHAR
STARTCHAR uni3003
ENCODING 12291
BBX 10 10 8 5
BITMAP
0800
18C0
1980
3180
3100
2300
6200
4200
8400
8400
ENDCHAR
STARTCHAR uni3005
ENCODING 12293
BBX 14 15 6 1
BITMAP
0800
0E00
0E00
0E00
1DF8
1FFC
393C
3070
6060
80C0
0380
03C0
01C0
00C0
0040
ENDCHAR
STARTCHAR uni3008
ENCODING 12296
BBX 10 23 12 -2
BITMAP
0040
0040
0080
0100
0300
0600
0C00
1800
1800
3000
6000
E000
E000
6000
3000
1800
0C00
0400
0600
0300
0180
0080
0040
ENDCHAR
STARTCHAR uni3009
ENCODING 12297
BBX 10 23 4 -2
BITMAP
8000
C000
4000
2000
3000
1800
0C00
0600
0600
0300
0180
00C0
01C0
0180
0300
0600
0C00
0800
1800
3000
6000
4000
8000
ENDCHAR
STARTCHAR uni300A
ENCODING 12298
BBX 18 23 8 -2
BITMAP
004040
0040C0
008080
010100
030300
060600
0C0C00
1C1800
183800
303000
606000
E0C000
E0E000
706000
303000
181800
0C0C00
060400
060600
030300
018180
008080
004040
ENDCHAR
STARTCHAR uni300B
ENCODING 12299
BBX 18 23 0 -2
BITMAP
808000
C08000
404000
202000
303000
181800
0C0C00
060E00
070600
030300
018180
00C1C0
01C1C0
018380
030300
060600
0C0C00
081800
181800
303000
606000
404000
808000
ENDCHAR
STARTCHAR uni300C
ENCODING 12300
BBX 10 21 12 -1
BITMAP
FFC0
FFC0
C000
C000
C000
C000
C000
C000
C000
C000
C000
C000
C000
C000
C000
C000
C000
C000
C000
C000
C000
ENDCHAR
STARTCHAR uni300D
ENCODING 12301
BBX 10 21 4 -1
BITMAP
00C0
00C0
00C0
00C0
00C0
00C0
00C0
00C0
00C0
00C0
00C0
00C0
00C0
00C0
00C0
00C0
00C0
00C0
00C0
FFC0
FFC0
ENDCHAR
STARTCHAR uni300E
ENCODING 12302
BBX 10 21 11 -1
BITMAP
FFC0
8040
9FC0
9000
9000
9000
9000
9000
9000
9000
9000
9000
9000
9000
9000
9000
9000
9000
9000
9000
F000
ENDCHAR
STARTCHAR uni300F
ENCODING 12303
BBX 10 21 5 -1
BITMAP
03C0
0240
0240
0240
0240
0240
0240
0240
0240
0240
0240
0240
0240
0240
0240
0240
0240
0240
0240
FE40
FFC0
ENDCHAR
STARTCHAR uni3010
ENCODING 12304
BBX 10 21 12 -1
BITMAP
FFC0
FF00
FC00
F800
F000
F000
E000
E000
E000
C000
C000
C000
C000
E000
E000
E000
F000
F000
F800
FC00
FF80
ENDCHAR
STARTCHAR uni3011
ENCODING 12305
BBX 10 21 4 -1
BITMAP
FFC0
3FC0
0FC0
07C0
03C0
03C0
01C0
01C0
00C0
00C0
00C0
00C0
00C0
01C0
01C0
01C0
03C0
03C0
07C0
0FC0
7FC0
ENDCHAR
STARTCHAR uni3013
ENCODING 12307
BBX 12 10 7 4
BITMAP
FFF0
FFF0
FFF0
FFF0
0000
0000
FFF0
FFF0
FFF0
FFF0
ENDCHAR
STARTCHAR uni3014
ENCODING 12308
BBX 10 20 12 -1
BITMAP
1FC0
FE00
C000
C000
C000
C000
C000
C000
C000
C000
C000
C000
C000
C000
C000
C000
C000
E000
FF00
07C0
ENDCHAR
STARTCHAR uni3015
ENCODING 12309
BBX 10 20 4 -1
BITMAP
FE00
1FC0
00C0
00C0
00C0
00C0
00C0
00C0
00C0
00C0
00C0
00C0
00C0
00C0
00C0
00C0
00C0
01C0
3FC0
F000
ENDCHAR
STARTCHAR uni3016
ENCODING 12310
BBX 9 21 11 -1
BITMAP
FF00
8100
8200
8400
8800
8800
9000
9000
9000
9000
9000
9000
9000
9000
9000
9000
8800
8800
8400
8200
FF80
ENDCHAR
STARTCHAR uni3017
ENCODING 12311
BBX 9 21 6 -1
BITMAP
7F80
4080
2080
1080
0880
0880
0480
0480
0480
0480
0480
0480
0480
0480
0480
0480
0880
0880
1080
2080
FF80
ENDCHAR
STARTCHAR uni3041
ENCODING 12353
BBX 16 18 5 -1
BITMAP
0300
0300
0200
02E0
3F00
0400
0440
0440
07F8
0CC6
1482
2501
4701
8601
8E03
9A02
6004
0038
ENDCHAR
STARTCHAR uni3042
ENCODING 12354
BBX 20 24 3 -3
BITMAP
018000
00C000
00C000
008000
008E00
39FC00
1FC000
010000
011800
010800
011800
03FF00
0610C0
0A3060
326060
63C030
438030
830030
870060
8D8060
D980C0
700180
000600
000800
ENDCHAR
STARTCHAR uni3043
ENCODING 12355
BBX 16 12 5 2
BITMAP
8000
8000
C000
C01C
C002
4002
4003
4403
4803
3800
3000
1000
ENDCHAR
STARTCHAR uni3044
ENCODING 12356
BBX 21 15 3 1
BITMAP
800000
C00000
C00000
C00300
C000C0
C00060
C00020
400030
430030
420030
4400F8
6C0010
380000
180000
080000
ENDCHAR
STARTCHAR uni3045
ENCODING 12357
BBX 9 19 9 0
BITMAP
1000
0C00
0700
0100
0000
0000
0000
1F00
E080
0080
0080
0180
0180
0100
0100
0300
0200
0400
0800
ENDCHAR
STARTCHAR uni3046
ENCODING 12358
BBX 12 25 7 -3
BITMAP
0800
0400
0380
01C0
0040
0000
0000
0000
0000
0FE0
F830
7010
0010
0010
0010
0010
0030
0030
0020
0060
0040
00C0
0080
0100
0600
ENDCHAR
STARTCHAR uni3047
ENCODING 12359
BBX 15 18 5 0
BITMAP
0200
0180
00C0
0000
0000
0040
03E0
1CC0
0080
0100
0200
0400
0800
1C00
3200
6100
C082
007E
ENDCHAR
STARTCHAR uni3048
ENCODING 12360
BBX 20 23 3 -3
BITMAP
008000
007000
003800
001800
000000
000000
001800
007C00
0F9800
0E3000
002000
004000
008000
010000
030000
060000
0C0000
1B8000
30C000
704000
E02000
C01FF0
0003C0
ENDCHAR
STARTCHAR uni3049
ENCODING 12361
BBX 16 17 5 0
BITMAP
0800
0400
0400
040E
0B03
5F03
3800
0800
0800
09FC
0E06
0802
3802
6802
C806
38F8
0800
ENDCHAR
STARTCHAR uni304A
ENCODING 12362
BBX 22 22 2 -2
BITMAP
060000
038000
018000
010000
0100F0
010018
01E01C
3FC03C
050040
010000
010000
010780
013860
01C030
030018
070018
0D0018
990030
F10070
6911E0
070F00
030000
ENDCHAR
STARTCHAR uni304B
ENCODING 12363
BBX 24 20 1 -1
BITMAP
00C000
00E000
00C000
00C000
008000
00BC20
83C618
7F020C
330306
020206
02020E
04021F
040202
0C0600
080400
180C00
300C00
311800
60F000
406000
ENDCHAR
STARTCHAR uni304C
ENCODING 12364
BBX 26 21 0 -2
BITMAP
00C00000
00E00180
00C000C0
00C00E00
00800300
00806000
01FE1000
DF020C00
73020600
02020600
02020700
04021F00
04020200
0C060000
08060000
180C0000
100C0000
31180000
60F80000
60700000
00400000
ENDCHAR
STARTCHAR uni304D
ENCODING 12365
BBX 16 24 5 -3
BITMAP
1800
2C00
0600
0238
02F0
0F80
7D80
0080
00DE
0078
87A0
7C30
0018
0008
0006
0FFF
700F
8002
8000
8000
4000
7000
1FE0
01E0
ENDCHAR
STARTCHAR uni304E
ENCODING 12366
BBX 20 23 3 -3
BITMAP
3C00C0
0C0430
043310
02F180
038080
FD0000
018000
008E00
007800
03E000
7C2000
003000
001800
000C00
078600
787E00
800600
800000
800000
C00000
600000
3FE000
0FE000
ENDCHAR
STARTCHAR uni304F
ENCODING 12367
BBX 10 24 8 -3
BITMAP
0180
00C0
01C0
0180
0300
0600
0C00
1800
3000
4000
8000
8000
8000
4000
2000
1800
0C00
0C00
0600
0300
0180
0180
00C0
00C0
ENDCHAR
STARTCHAR uni3050
ENCODING 12368
BBX 16 24 5 -3
BITMAP
0180
0080
01C0
0380
0300
0604
0803
1033
2019
4008
8000
8000
8000
4000
2000
1000
1800
0C00
0600
0300
0380
0180
00C0
00C0
ENDCHAR
STARTCHAR uni3051
ENCODING 12369
BBX 22 23 2 -3
BITMAP
400700
200180
300180
200180
600180
600180
4001FC
41FF80
400180
800180
800180
880180
900180
900180
900100
E00100
E00300
600300
600200
600600
000400
000C00
001000
ENDCHAR
STARTCHAR uni3052
ENCODING 12370
BBX 24 23 1 -3
BITMAP
400F06
200313
300198
200188
600180
400100
4001F8
41FF00
800100
800100
800100
800100
800100
900100
A00100
A00100
E00300
E00200
600200
600400
000400
000800
001000
ENDCHAR
STARTCHAR uni3053
ENCODING 12371
BBX 18 19 4 -1
BITMAP
0C0000
07FC00
003E00
006000
018000
000000
000000
000000
000000
000000
000000
800000
800000
800000
800000
400000
3007C0
1FFFC0
007000
ENDCHAR
STARTCHAR uni3054
ENCODING 12372
BBX 20 20 3 -1
BITMAP
000060
100130
0FF0D0
007CC0
00F040
010000
000000
000000
000000
000000
000000
000000
800000
800000
800000
800000
800000
600380
3FFF80
03F800
ENDCHAR
STARTCHAR uni3055
ENCODING 12373
BBX 18 23 4 -3
BITMAP
060000
07E000
061800
030700
018E00
807C00
47E000
7F1000
001800
000C00
000600
000200
000300
07FF80
1803C0
200180
400000
400000
200000
300000
1C0000
07F800
01FC00
ENDCHAR
STARTCHAR uni3056
ENCODING 12374
BBX 22 23 2 -3
BITMAP
060020
0FE018
0618CC
030764
018E20
00F800
C7E000
7E3000
001800
000C00
000400
000600
000300
0FFF80
300380
400180
400000
400000
400000
200000
1C0000
0FF800
01F800
ENDCHAR
STARTCHAR uni3057
ENCODING 12375
BBX 16 22 5 -2
BITMAP
C000
C000
6000
4000
4000
4000
4000
4000
4000
C000
C000
C000
8000
8000
8000
8000
8000
8001
C002
400C
70F8
1FE0
ENDCHAR
STARTCHAR uni3058
ENCODING 12376
BBX 18 23 4 -3
BITMAP
C00000
600000
300000
300000
603000
609800
604800
606000
600000
600000
400000
400000
400000
400000
400000
400000
400040
400080
400100
200600
303C00
1FF000
030000
ENDCHAR
STARTCHAR uni3059
ENCODING 12377
BBX 23 25 1 -3
BITMAP
003800
000C00
000C00
000C00
000800
000800
00FFFE
8F0800
780800
000800
007800
008C00
010400
010400
010400
008400
006C00
003C00
000C00
000C00
000800
001800
001000
002000
004000
ENDCHAR
STARTCHAR uni305A
ENCODING 12378
BBX 24 25 1 -3
BITMAP
003818
000C0C
000C64
000830
000800
000800
00FFFF
9F0800
700800
000800
007800
008C00
010C00
010400
008400
008400
006C00
003C00
000C00
000C00
000800
001800
001000
002000
004000
ENDCHAR
STARTCHAR uni305B
ENCODING 12379
BBX 25 21 0 -1
BITMAP
00008000
00006000
00006000
03806000
00C06000
00C06000
00C06000
00C06300
00FFFF80
87F04000
7EC04000
10C04000
00C0C000
00C68000
00C18000
00410000
00400000
00600000
00300000
001FFC00
0000C000
ENDCHAR
STARTCHAR uni305C
ENCODING 12380
BBX 26 19 0 -1
BITMAP
0001C180
00006CC0
03804600
00804200
00804000
00804000
0080C600
00BFFF80
87C0C000
78808000
00808000
00808000
00878000
00830000
00800000
00400000
00400000
0038F800
0007F800
ENDCHAR
STARTCHAR uni305D
ENCODING 12381
BBX 20 23 3 -3
BITMAP
000C00
047600
078E00
030800
001000
002000
004000
008000
0301E0
061FF0
09EC00
1E3000
784000
E08000
C08000
010000
010000
010000
008000
00C000
007000
003E00
000E00
ENDCHAR
STARTCHAR uni305E
ENCODING 12382
BBX 24 23 1 -3
BITMAP
000C00
047208
03C706
018C23
001813
003018
006000
008000
0100F0
020FF8
04FC00
1F1000
782000
E04000
C08000
008000
008000
008000
008000
004000
007000
003F00
000F00
ENDCHAR
STARTCHAR uni305F
ENCODING 12383
BBX 22 22 2 -2
BITMAP
030000
018000
018000
010000
017000
03C000
DF0000
3203F0
060018
040038
040040
080000
080000
180000
100000
300000
204000
604000
E02000
C03000
001FFC
0001F8
ENDCHAR
STARTCHAR uni3060
ENCODING 12384
BBX 24 22 1 -2
BITMAP
030000
010007
010003
030018
02700C
03C004
9F0000
7C03E0
040030
0C0038
0800C8
080000
100000
100000
300000
200000
604000
604000
C04000
C02000
801FFC
0007F8
ENDCHAR
STARTCHAR uni3061
ENCODING 12385
BBX 20 23 3 -3
BITMAP
070000
030000
030000
020000
023C00
83E000
7F0000
040000
040000
040000
040000
0C0000
083FC0
09C020
0B0030
1C0030
180030
180030
000060
0000E0
0001C0
000F00
007000
ENDCHAR
STARTCHAR uni3062
ENCODING 12386
BBX 22 23 2 -3
BITMAP
0C0000
060000
060000
060018
04788C
07E064
FF0020
740020
080000
080000
080000
080000
087F80
198060
160020
1C0020
380020
180060
000060
0000C0
000380
000E00
00F000
ENDCHAR
STARTCHAR uni3063
ENCODING 12387
BBX 18 11 4 2
BITMAP
01FF00
0E0080
B80040
600040
000040
000040
0000C0
000080
000180
000300
003C00
ENDCHAR
STARTCHAR uni3064
ENCODING 12388
BBX 23 16 2 0
BITMAP
001FC0
00F030
038018
0E000C
FC0004
780004
000006
000004
000004
00000C
000008
000018
000030
0000E0
000380
001C00
ENDCHAR
STARTCHAR uni3065
ENCODING 12389
BBX 26 18 0 0
BITMAP
00000180
000000C0
00000600
007FC200
01803000
06001800
FC000800
78000800
00000800
00000800
00000800
00001800
00001800
00003000
00006000
0001C000
00070000
00780000
ENDCHAR
STARTCHAR uni3066
ENCODING 12390
BBX 20 21 3 -2
BITMAP
000040
000FF0
01FB90
9F0C00
F81800
602000
004000
004000
008000
008000
010000
010000
010000
010000
010000
018000
008000
00C000
007800
003F80
000780
ENDCHAR
STARTCHAR uni3067
ENCODING 12391
BBX 24 21 1 -2
BITMAP
000040
001FF8
01F380
8F0400
7C0804
301022
002013
004019
00C008
008000
008000
018000
018000
018000
018000
008000
00C000
006000
003800
001FC0
000380
ENDCHAR
STARTCHAR uni3068
ENCODING 12392
BBX 15 22 5 -2
BITMAP
3800
0C00
0C00
0C00
0C00
0C00
0C00
0C3C
04F8
07C0
0700
0C00
1000
2000
4000
4000
8000
8000
8000
4000
3FFE
07F8
ENDCHAR
STARTCHAR uni3069
ENCODING 12393
BBX 18 22 4 -2
BITMAP
380380
1800C0
0C0600
080300
080100
080000
080000
083C00
0CF800
07C000
070000
1C0000
300000
600000
400000
800000
800000
800000
800000
400000
3FFE00
07FC00
ENDCHAR
STARTCHAR uni306A
ENCODING 12394
BBX 22 24 2 -3
BITMAP
008000
00C000
00C000
008000
019800
81F800
7F8000
020000
060038
04001C
0C00FC
080300
180400
300400
600400
600400
400400
000400
000600
01FF00
0207C0
040460
020C00
01F800
ENDCHAR
STARTCHAR uni306B
ENCODING 12395
BBX 22 21 2 -2
BITMAP
600000
300000
3007C0
303FE0
2040E0
600100
600000
400000
400000
400000
400000
C80000
C80000
C90000
508000
508000
5070F8
701FFC
600000
200000
200000
ENDCHAR
STARTCHAR uni306C
ENCODING 12396
BBX 24 21 1 -2
BITMAP
003000
001000
001000
001000
201200
203DE0
20F018
132008
142004
186004
184006
384006
6C8006
478006
C70006
830004
8783FC
8D841C
58081E
600663
000181
ENDCHAR
STARTCHAR uni306D
ENCODING 12397
BBX 24 22 1 -2
BITMAP
060000
030000
030000
030000
020000
020000
020000
0F07F0
7B1818
326008
06800C
07000C
0A000C
0E000C
0C000C
14000C
34000C
2207E8
72083C
CE083E
C604E7
040300
ENDCHAR
STARTCHAR uni306E
ENCODING 12398
BBX 22 19 2 -1
BITMAP
007E00
0191C0
061060
181030
303018
20200C
40200C
40400C
80C004
808004
81800C
83000C
82000C
860018
4C0038
780030
3000C0
000180
000600
ENDCHAR
STARTCHAR uni306F
ENCODING 12399
BBX 22 22 2 -2
BITMAP
400200
300180
300080
300080
200080
200080
6080F8
407FF0
400480
400080
800080
800080
800080
900080
900080
A00080
A01F80
A061E0
6080B8
60808C
60E380
603E00
ENDCHAR
STARTCHAR uni3070
ENCODING 12400
BBX 24 22 1 -2
BITMAP
400606
20019B
30018D
300184
600100
600100
408178
407FF0
C00900
C00100
800100
800180
900180
A00180
A00180
A00180
A01E80
A0E1E0
E081F8
E10198
60C300
603E00
ENDCHAR
STARTCHAR uni3071
ENCODING 12401
BBX 24 23 1 -2
BITMAP
00000F
000611
600111
600191
60018E
600100
600100
400138
C077F0
C01F00
800100
800100
800100
800100
A00180
A00180
A00180
A00180
C0FFE0
C100F8
C10198
C08380
607F00
ENDCHAR
STARTCHAR uni3072
ENCODING 12402
BBX 22 21 2 -2
BITMAP
000180
070180
0F0180
F60080
0C00C0
0C0140
180140
180160
300130
300138
20011C
20010C
600304
600200
600600
600400
200C00
201800
307000
1FE000
030000
ENDCHAR
STARTCHAR uni3073
ENCODING 12403
BBX 24 21 1 -2
BITMAP
000106
060193
1F0199
FC018C
0C0188
1801C0
180140
100160
300170
200130
200218
20021C
400200
400600
400400
400C00
401800
203800
307000
1FC000
070000
ENDCHAR
STARTCHAR uni3074
ENCODING 12404
BBX 26 21 0 -2
BITMAP
00000780
03018840
0F808840
FB008880
2600C780
0C00C000
0C00C000
08012000
18013000
10011800
10011800
20010C00
20010E00
20020000
20020000
20060000
200C0000
20080000
10380000
0CF00000
07C00000
ENDCHAR
STARTCHAR uni3075
ENCODING 12405
BBX 22 21 2 -2
BITMAP
004000
006000
003800
001C00
000C00
001800
002000
004000
008000
008000
004000
002000
003000
003FE0
00D810
030808
8C0C0C
F80C1C
F11C2C
70F800
001000
ENDCHAR
STARTCHAR uni3076
ENCODING 12406
BBX 25 20 0 -2
BITMAP
00300000
00180000
000E0000
00060400
000C0380
00101880
00200C00
00400400
00400000
00200000
00200000
00100000
000FE000
007C1800
018C0C00
86060600
DC060E00
790E1600
30FC0000
10080000
ENDCHAR
STARTCHAR uni3077
ENCODING 12407
BBX 24 19 1 -1
BITMAP
002000
001800
000E00
000E1E
000821
001021
006012
00400C
004000
002000
003000
001800
003FE0
00CC18
830C0C
840406
D8041E
788C22
307C00
ENDCHAR
STARTCHAR uni3078
ENCODING 12408
BBX 24 12 1 2
BITMAP
01C000
023000
041800
080C00
100600
F00300
6001C0
0000E0
000078
00001E
00000F
000003
ENDCHAR
STARTCHAR uni3079
ENCODING 12409
BBX 24 16 1 1
BITMAP
00000E
000002
000030
000018
01E000
061000
0C0800
180600
300300
F00180
0000C0
000070
000038
00001E
000007
000001
ENDCHAR
STARTCHAR uni307A
ENCODING 12410
BBX 25 16 1 2
BITMAP
00001800
00006400
00004400
00004400
01C04400
02303800
04180000
080C0000
10060000
F0030000
60018000
00006000
00003800
00001E00
00000F00
00000380
ENDCHAR
STARTCHAR uni307B
ENCODING 12411
BBX 22 21 2 -2
BITMAP
4000E0
60FFF0
600100
600080
600080
400090
4000F0
C007C0
803880
800080
880080
900080
900080
900080
900080
900080
A03FF0
E040BC
E0408C
604100
603E00
ENDCHAR
STARTCHAR uni307C
ENCODING 12412
BBX 25 21 0 -2
BITMAP
4000E000
207FF200
30018180
30008480
20008600
60009A00
6000F000
407F8000
400C8000
40008000
48008000
88008000
88008000
90008000
90008000
500F8000
5030F000
6040DC00
60408400
70338000
300C0000
ENDCHAR
STARTCHAR uni307D
ENCODING 12413
BBX 25 21 0 -1
BITMAP
00000300
4001EC80
207FC880
20010880
60018480
60018300
40017000
4001C000
407F0000
80110000
80010000
80010000
90010000
90018000
90018000
90078000
E03FE000
6040B800
60418C00
60618000
601E0000
ENDCHAR
STARTCHAR uni307E
ENCODING 12414
BBX 16 24 5 -3
BITMAP
0100
00C0
00C0
0040
0040
0042
807F
7FF0
0040
0040
0044
407E
3FF8
0040
0040
0040
0040
0040
3FC0
40FC
804E
80C3
6180
1F00
ENDCHAR
STARTCHAR uni307F
ENCODING 12415
BBX 22 20 2 -2
BITMAP
003C00
07DC00
031C00
001800
003000
002000
006000
004040
008060
018060
07FC60
1A07E0
6200E0
4400F8
8C009C
880184
900100
A00200
400400
000800
ENDCHAR
STARTCHAR uni3080
ENCODING 12416
BBX 23 22 2 -2
BITMAP
180000
060000
060000
060000
06F000
9F8000
7C00F0
040108
04010C
0C010C
36010E
460096
460080
440080
4C0080
3C0040
180040
080040
080060
0800E0
0E07E0
03FF80
ENDCHAR
STARTCHAR uni3081
ENCODING 12417
BBX 22 21 2 -2
BITMAP
001800
000800
000800
200800
300800
103F80
11F0E0
171038
1C3018
18200C
28600C
4C4004
C48004
878004
830004
83800C
8D800C
988018
F00030
4000E0
000380
ENDCHAR
STARTCHAR uni3082
ENCODING 12418
BBX 14 24 6 -3
BITMAP
0C00
0600
0200
0200
0600
8400
4400
3C00
1C00
1C00
6800
9000
9010
9008
5008
3F04
2704
2004
2004
2004
100C
100C
0838
07E0
ENDCHAR
STARTCHAR uni3083
ENCODING 12419
BBX 19 18 4 -1
BITMAP
004000
002000
1FF000
100000
183FC0
09C040
060060
1E0060
F300C0
010F80
008000
00C000
004000
006000
003000
003000
001800
001000
ENDCHAR
STARTCHAR uni3084
ENCODING 12420
BBX 24 23 1 -3
BITMAP
000800
000600
03C600
043E00
0C0070
0C078E
061803
036001
018001
078003
BCC003
78619E
002078
003000
001800
001800
000C00
000600
000600
000300
000300
000380
000100
ENDCHAR
STARTCHAR uni3085
ENCODING 12421
BBX 16 17 5 -1
BITMAP
0380
0440
8840
89FC
8E62
8821
9021
A821
A821
C821
C461
C443
C346
40F8
0080
0100
0200
ENDCHAR
STARTCHAR uni3086
ENCODING 12422
BBX 22 22 2 -3
BITMAP
00F000
010800
810C00
420F80
423460
42C410
430618
42060C
46060C
4A060C
8A060C
92060C
920408
F10418
E10418
608C30
6068E0
201F80
001800
001000
002000
004000
ENDCHAR
STARTCHAR uni3087
ENCODING 12423
BBX 12 18 7 -1
BITMAP
0600
0600
0600
0400
0470
07C0
0400
0400
0400
0400
0200
0200
0200
7F80
82E0
8230
C610
3800
ENDCHAR
STARTCHAR uni3088
ENCODING 12424
BBX 16 23 5 -3
BITMAP
0300
0180
0180
0180
0180
0180
019F
01FC
0180
0180
0180
0180
0180
0080
0080
0080
0080
1FE0
60FC
809F
8087
C180
3F00
ENDCHAR
STARTCHAR uni3089
ENCODING 12425
BBX 16 23 5 -3
BITMAP
0800
0400
0300
0300
0700
1800
2000
4000
4000
4000
4000
4000
4078
4386
CC03
D001
E001
E001
C003
0006
000E
0038
01C0
ENDCHAR
STARTCHAR uni308A
ENCODING 12426
BBX 12 23 7 -3
BITMAP
8100
46C0
4860
5060
5020
D030
A030
A030
E030
C030
C030
C030
C030
C020
4060
0060
0060
00C0
00C0
0180
0300
0200
0400
ENDCHAR
STARTCHAR uni308B
ENCODING 12427
BBX 18 22 4 -3
BITMAP
11F000
0F1800
043800
006000
004000
00C000
018000
010000
020000
043000
09CF00
0E0180
1C0080
3800C0
7000C0
E000C0
03C080
0C6180
083180
041700
03FC00
00C000
ENDCHAR
STARTCHAR uni308C
ENCODING 12428
BBX 26 23 0 -3
BITMAP
06000000
03000000
03000000
03000000
02038000
020C4000
06304000
0F404000
7A80C000
2680C000
0500C000
0600C000
0C008000
0C008000
1C008000
1C018000
34018000
74018000
64008040
F4008180
0E00FE00
06002000
04000000
ENDCHAR
STARTCHAR uni308D
ENCODING 12429
BBX 20 23 3 -3
BITMAP
001000
007800
07CC00
031800
003000
002000
004000
008000
010000
030000
067F80
0D8040
0E0020
380030
700030
E00030
400030
000060
0000E0
0001C0
000380
001C00
01E000
ENDCHAR
STARTCHAR uni308E
ENCODING 12430
BBX 18 18 4 0
BITMAP
040000
020000
020000
020000
040000
040000
060000
3E3E00
04C100
050080
0E0080
1400C0
1C0080
340180
240180
540300
CC0C00
043000
ENDCHAR
STARTCHAR uni308F
ENCODING 12431
BBX 22 23 2 -3
BITMAP
020000
010000
018000
010000
010000
020000
030000
078000
7F07C0
331830
026018
02800C
07000C
0A000C
0E000C
1A000C
120018
320018
620030
F200E0
CE0380
860400
020000
ENDCHAR
STARTCHAR uni3090
ENCODING 12432
BBX 20 22 3 -3
BITMAP
003000
0FD800
073800
003000
006000
004000
00C000
008000
00FF00
03C0C0
0F0020
1F0030
320010
460010
840010
8C0030
881F30
9821A0
9040E0
E020C0
403780
000C00
ENDCHAR
STARTCHAR uni3091
ENCODING 12433
BBX 22 23 2 -3
BITMAP
000C00
047E00
038800
001800
001000
002000
005F00
00E180
0180C0
0300C0
0600C0
04F080
011980
011300
00FC00
00C000
030000
040000
1803E0
3E0C18
E1F81C
C0707C
000004
ENDCHAR
STARTCHAR uni3092
ENCODING 12434
BBX 18 23 4 -3
BITMAP
038000
018000
018000
011800
82F800
7F8000
040000
040000
080180
1001C0
3F83C0
608E00
E0F000
C0C000
83C000
04C000
084000
104000
100000
100000
100000
1C0C00
07FE00
ENDCHAR
STARTCHAR uni3093
ENCODING 12435
BBX 22 21 2 -2
BITMAP
006000
003000
003000
003000
006000
00C000
008000
018000
010000
020000
060000
044000
0BA000
0C3000
181000
301004
301008
601018
601870
C00DE0
C00F80
ENDCHAR
STARTCHAR uni30A1
ENCODING 12449
BBX 17 16 5 0
BITMAP
007E00
FF8300
600780
010800
01B000
01C000
018000
018000
010000
010000
020000
020000
040000
040000
080000
100000
ENDCHAR
STARTCHAR uni30A2
ENCODING 12450
BBX 22 22 2 -2
BITMAP
000060
807FF0
7FC038
7C003C
3000F0
003180
003E00
003800
003000
003000
003000
002000
006000
006000
004000
00C000
008000
018000
010000
030000
020000
040000
ENDCHAR
STARTCHAR uni30A3
ENCODING 12451
BBX 12 18 7 -1
BITMAP
0030
0030
0060
00C0
0080
0100
0300
0480
0880
1080
6080
8080
0080
0080
0080
0180
0180
0080
ENDCHAR
STARTCHAR uni30A4
ENCODING 12452
BBX 15 24 6 -3
BITMAP
0008
0004
000E
000C
001C
0038
0030
0060
00C0
01C0
0360
0660
1C60
3060
6060
8060
0060
0060
0060
0060
0060
0060
0060
0060
ENDCHAR
STARTCHAR uni30A5
ENCODING 12453
BBX 15 16 6 0
BITMAP
0200
0300
0200
83FC
FC0E
800C
8008
8018
C010
C010
0020
0060
0040
0080
0100
0200
ENDCHAR
STARTCHAR uni30A6
ENCODING 12454
BBX 20 22 3 -2
BITMAP
00C000
006000
006000
006000
C067E0
7FFF70
200070
2000E0
2000C0
2000C0
300180
300180
200100
000300
000600
000600
000C00
001800
001000
002000
004000
018000
ENDCHAR
STARTCHAR uni30A7
ENCODING 12455
BBX 17 11 5 2
BITMAP
00FC00
3F0000
018000
018000
008000
008000
018000
010000
013F00
FFFF80
400000
ENDCHAR
STARTCHAR uni30A8
ENCODING 12456
BBX 22 14 2 2
BITMAP
0007C0
0FFFC0
07C000
003000
003800
003000
003000
003000
003000
002000
002000
807FF8
FFC07C
300000
ENDCHAR
STARTCHAR uni30A9
ENCODING 12457
BBX 16 17 5 0
BITMAP
0180
0040
0040
0040
00FF
7FC0
01C0
0340
0240
0440
0840
1040
2040
C040
0240
01C0
00C0
ENDCHAR
STARTCHAR uni30AA
ENCODING 12458
BBX 20 22 3 -2
BITMAP
003000
001C00
000C00
000800
000800
000FF0
DFFFF0
783800
007800
006800
00C800
01C800
018800
030800
060800
080800
300800
400800
000800
007800
001800
000800
ENDCHAR
STARTCHAR uni30AB
ENCODING 12459
BBX 19 22 4 -2
BITMAP
004000
003000
003800
003000
002000
006000
406FC0
3FFC60
3CC040
018040
0180C0
0300C0
030080
060180
0C0180
080100
180300
200200
408600
806400
001C00
001800
ENDCHAR
STARTCHAR uni30AC
ENCODING 12460
BBX 23 21 2 -2
BITMAP
006000
00300C
003006
006032
006018
00CFC8
7FFEC0
3980C0
018080
030080
030080
060180
040100
0C0100
180300
300200
200600
408600
806C00
003C00
001800
ENDCHAR
STARTCHAR uni30AD
ENCODING 12461
BBX 20 23 3 -2
BITMAP
060000
038000
018000
018000
008380
009F00
00F000
07C000
7C4000
004000
0060F0
0027E0
003C00
01F000
DF1000
781000
001800
001800
000800
000C00
000C00
000E00
000600
ENDCHAR
STARTCHAR uni30AE
ENCODING 12462
BBX 23 23 2 -3
BITMAP
07001C
01804E
010034
0183B0
008F00
00F800
03C000
7CC000
004000
0060F0
0067E0
003C00
00E000
0F3000
FC1000
301000
001800
001800
000800
000C00
000C00
000600
000600
ENDCHAR
STARTCHAR uni30AF
ENCODING 12463
BBX 18 23 4 -3
BITMAP
008000
006000
006000
00E380
01DCC0
0181C0
030180
060300
0C0300
100600
200E00
000C00
001800
003800
007000
006000
00C000
018000
030000
040000
180000
200000
C00000
ENDCHAR
STARTCHAR uni30B0
ENCODING 12464
BBX 23 23 2 -3
BITMAP
000008
00C044
00E036
01C330
01BF90
030380
070300
060300
0C0600
300400
600C00
001800
001000
003000
006000
00C000
018000
030000
060000
0C0000
180000
600000
800000
ENDCHAR
STARTCHAR uni30B1
ENCODING 12465
BBX 20 20 3 -1
BITMAP
020000
030000
030000
060000
060060
0C07F0
1BF800
100800
200C00
C00C00
000800
001800
001000
003000
006000
004000
008000
010000
020000
040000
ENDCHAR
STARTCHAR uni30B2
ENCODING 12466
BBX 24 20 1 -1
BITMAP
020003
030011
03000C
060004
0600E0
0C07F0
1FFC00
300800
600C00
800C00
001800
001800
003000
003000
006000
004000
008000
010000
020000
040000
ENDCHAR
STARTCHAR uni30B3
ENCODING 12467
BBX 16 14 5 1
BITMAP
003E
7FFF
7803
0002
0002
0006
0006
0004
0004
000C
000C
81FC
7F8C
2000
ENDCHAR
STARTCHAR uni30B4
ENCODING 12468
BBX 22 18 2 1
BITMAP
000018
00000C
000044
000030
001F30
FFFF00
7C0380
000300
000200
000200
000200
000600
000400
000400
000400
001C00
FFFE00
380000
ENDCHAR
STARTCHAR uni30B5
ENCODING 12469
BBX 24 22 1 -2
BITMAP
000300
020180
0181C0
018080
018080
018080
81FFFF
FFC08F
398080
018180
018180
018180
018180
018100
008100
000300
000200
000600
000400
000800
000800
003000
ENDCHAR
STARTCHAR uni30B6
ENCODING 12470
BBX 26 22 0 -2
BITMAP
00030180
000188C0
0301C6C0
01808600
01808000
01808000
81BFFF00
7FF8BF00
39818000
01818000
01818000
01818000
01818000
01810000
00830000
00030000
00020000
00060000
00040000
000C0000
00080000
00100000
ENDCHAR
STARTCHAR uni30B7
ENCODING 12471
BBX 20 21 3 -2
BITMAP
300000
1C0000
0E0000
020000
000000
000000
000010
800020
780060
1C00C0
000180
000300
000E00
001C00
007800
00F000
03C000
4F8000
3E0000
1C0000
080000
ENDCHAR
STARTCHAR uni30B8
ENCODING 12472
BBX 20 21 3 -2
BITMAP
200000
1C0080
0E0060
020720
000180
000080
000010
800020
780060
1C00C0
000180
000300
000E00
001C00
003800
00F000
03C000
4F8000
3E0000
180000
080000
ENDCHAR
STARTCHAR uni30B9
ENCODING 12473
BBX 19 18 4 0
BITMAP
000600
20FF00
1F8700
0C0E00
000C00
001800
003000
003000
006000
00C000
01A000
031800
060E00
0C0700
1801C0
2001E0
C000E0
000060
ENDCHAR
STARTCHAR uni30BA
ENCODING 12474
BBX 23 20 2 0
BITMAP
00000C
000046
000022
001F30
1FFF10
1E0700
000C00
000C00
001800
003000
003000
006000
00C000
01B000
030C00
060300
0C01C0
1800E0
600060
800070
ENDCHAR
STARTCHAR uni30BB
ENCODING 12475
BBX 22 20 2 -1
BITMAP
018000
00C000
006000
006000
004000
004020
0043F8
005C3C
01E038
874060
784080
304100
004000
004000
004000
004000
004000
002000
001FFC
0001E0
ENDCHAR
STARTCHAR uni30BC
ENCODING 12476
BBX 25 19 1 -1
BITMAP
01800700
00C00180
00801C80
00800C00
00800600
0083E000
00BC7000
01C07000
1E80C000
F0810000
60820000
00800000
00800000
00800000
00800000
00800000
00400000
003FF800
00078000
ENDCHAR
STARTCHAR uni30BD
ENCODING 12477
BBX 17 19 5 -1
BITMAP
000600
000300
C00380
600300
700600
300600
300C00
101800
001800
003000
003000
006000
00C000
008000
010000
020000
040000
080000
300000
ENDCHAR
STARTCHAR uni30BE
ENCODING 12478
BBX 23 21 2 -1
BITMAP
00001C
000066
000232
000310
C00380
600380
700700
300600
380E00
100C00
001800
001800
003000
007000
006000
00C000
018000
030000
060000
0C0000
100000
ENDCHAR
STARTCHAR uni30BF
ENCODING 12479
BBX 17 23 5 -3
BITMAP
018000
00C000
00C300
01BF80
010380
030300
060600
0C0600
1C0C00
230C00
41D800
00F000
007000
006000
00C000
018000
010000
020000
040000
080000
300000
400000
800000
ENDCHAR
STARTCHAR uni30C0
ENCODING 12480
BBX 23 23 2 -3
BITMAP
01801C
00C006
00C366
01FFB0
010390
030300
060600
0C0600
1C0C00
230C00
41D800
00F000
007000
006000
00C000
018000
030000
060000
0C0000
180000
300000
400000
800000
ENDCHAR
STARTCHAR uni30C1
ENCODING 12481
BBX 22 24 2 -3
BITMAP
000400
000700
000F00
003C00
00F000
03B000
1C1800
001800
001800
003FFC
8FF83C
7C1800
201000
001000
003000
003000
002000
006000
006000
004000
008000
018000
020000
040000
ENDCHAR
STARTCHAR uni30C2
ENCODING 12482
BBX 24 24 1 -3
BITMAP
000800
000600
000F04
003C03
007013
03E018
0C100C
101800
001800
001FF8
87FFFC
7C1000
201000
003000
003000
003000
002000
006000
004000
00C000
008000
018000
010000
060000
ENDCHAR
STARTCHAR uni30C3
ENCODING 12483
BBX 15 14 6 1
BITMAP
0800
040C
860E
C20C
4218
4010
0030
0020
0060
0040
0080
0100
0200
0400
ENDCHAR
STARTCHAR uni30C4
ENCODING 12484
BBX 19 18 4 -3
BITMAP
020180
0100C0
8180E0
C181C0
C08180
600380
600300
000600
000600
000C00
001800
001800
003000
006000
00C000
018000
020000
040000
ENDCHAR
STARTCHAR uni30C5
ENCODING 12485
BBX 24 21 1 -1
BITMAP
000008
000006
000013
010089
01806C
8080E0
40C0C0
60C0C0
604180
200180
200300
000300
000600
000600
000C00
001800
003000
006000
00C000
018000
020000
ENDCHAR
STARTCHAR uni30C6
ENCODING 12486
BBX 21 22 2 -2
BITMAP
000180
047FC0
03E000
000000
000000
000000
0000F0
80FFF8
7F1000
301800
001800
001800
001000
003000
003000
006000
006000
004000
00C000
008000
010000
020000
ENDCHAR
STARTCHAR uni30C7
ENCODING 12487
BBX 24 22 1 -2
BITMAP
000200
087F84
07C003
000009
00000C
000004
000060
00FFF0
FF2000
603000
003000
003000
002000
006000
006000
004000
00C000
008000
010000
030000
020000
0C0000
ENDCHAR
STARTCHAR uni30C8
ENCODING 12488
BBX 10 24 8 -3
BITMAP
8000
6000
6000
6000
6000
4000
4000
4000
4000
4000
7C00
4700
41C0
40C0
4040
4000
4000
6000
6000
6000
6000
6000
6000
4000
ENDCHAR
STARTCHAR uni30C9
ENCODING 12489
BBX 14 24 6 -3
BITMAP
C000
6000
3000
2010
200C
20C4
2060
2030
2000
2000
3C00
2300
21C0
20C0
2040
2000
6000
6000
6000
6000
6000
6000
6000
2000
ENDCHAR
STARTCHAR uni30CA
ENCODING 12490
BBX 22 23 2 -3
BITMAP
003000
001800
001800
001800
001800
001800
001800
003FFC
FFF01C
701000
001000
003000
003000
003000
003000
002000
006000
004000
004000
008000
018000
010000
020000
ENDCHAR
STARTCHAR uni30CB
ENCODING 12491
BBX 24 12 1 3
BITMAP
000080
07FFC0
03FC00
000000
000000
000000
000000
000000
000000
8003F8
7FFFFE
3E0007
ENDCHAR
STARTCHAR uni30CC
ENCODING 12492
BBX 17 21 5 -2
BITMAP
000200
003F00
0FC380
060300
000600
000600
000C00
080C00
061800
01B000
00F000
007000
00F800
019C00
030E00
060600
0C0600
180000
200000
400000
800000
ENDCHAR
STARTCHAR uni30CD
ENCODING 12493
BBX 19 24 4 -3
BITMAP
008000
00E000
003000
001000
000000
000C00
01FE00
3E1C00
001800
003000
006000
00C000
036400
064300
084180
3040C0
404060
804060
004000
004000
004000
006000
004000
004000
ENDCHAR
STARTCHAR uni30CE
ENCODING 12494
BBX 16 21 5 -2
BITMAP
0004
0002
0003
0007
0006
000E
000C
0018
0018
0030
0060
0060
00C0
0180
0300
0600
0C00
1800
3000
4000
8000
ENDCHAR
STARTCHAR uni30CF
ENCODING 12495
BBX 24 11 1 3
BITMAP
010000
018080
01C060
038030
03001C
06000E
0C0006
180007
300003
600003
800000
ENDCHAR
STARTCHAR uni30D0
ENCODING 12496
BBX 25 14 1 3
BITMAP
00000700
00000180
00001C80
00000C00
03020400
01810000
0380C000
03007000
06003800
0C001C00
18000C00
30000E00
40000600
80000000
ENDCHAR
STARTCHAR uni30D1
ENCODING 12497
BBX 25 14 1 3
BITMAP
00000F00
00001080
00001080
00001100
03000F00
01810000
0180C000
03006000
06003000
0E001800
0C000C00
30000C00
60000600
80000000
ENDCHAR
STARTCHAR uni30D2
ENCODING 12498
BBX 18 20 4 -1
BITMAP
E00000
300000
300000
300000
300000
300000
300E00
303E00
3FF800
200000
200000
200000
200000
200000
200000
200000
300000
100000
1801C0
07FFC0
ENDCHAR
STARTCHAR uni30D3
ENCODING 12499
BBX 20 21 3 -2
BITMAP
800000
600060
300030
300390
2000C0
2000C0
200000
203E00
3FFC00
200000
200000
200000
200000
200000
200000
200000
200000
300000
180180
0FFF80
00F000
ENDCHAR
STARTCHAR uni30D4
ENCODING 12500
BBX 20 21 3 -1
BITMAP
0000E0
C00110
700110
300110
300090
200060
200000
200C00
203E00
3FF800
200000
200000
200000
200000
200000
200000
200000
200000
300000
1803C0
0FFF80
ENDCHAR
STARTCHAR uni30D5
ENCODING 12501
BBX 20 20 3 -2
BITMAP
000040
C1FFE0
7FC070
300070
000060
0000C0
0000C0
000180
000180
000300
000600
000600
000C00
001800
003000
006000
004000
008000
030000
040000
ENDCHAR
STARTCHAR uni30D6
ENCODING 12502
BBX 24 22 1 -1
BITMAP
000004
000013
00000D
00000C
80FFC0
FFC0E0
6000C0
0000C0
000180
000180
000300
000300
000600
000C00
000C00
001800
003000
006000
00C000
008000
010000
060000
ENDCHAR
STARTCHAR uni30D7
ENCODING 12503
BBX 26 23 0 -2
BITMAP
00000780
00000840
00000840
00000840
8003E780
67FE7000
7E007000
30006000
0000C000
0000C000
00018000
00018000
00030000
00030000
00060000
000C0000
00080000
00180000
00300000
00600000
00C00000
01000000
06000000
ENDCHAR
STARTCHAR uni30D8
ENCODING 12504
BBX 24 11 1 2
BITMAP
01E000
023000
041800
180C00
F00300
600180
0000E0
000078
00001E
00000F
000003
ENDCHAR
STARTCHAR uni30D9
ENCODING 12505
BBX 24 15 1 2
BITMAP
000008
000006
000062
000030
01C018
023000
0C0800
180400
F00300
600180
0000E0
000038
00001E
00000F
000003
ENDCHAR
STARTCHAR uni30DA
ENCODING 12506
BBX 24 15 1 1
BITMAP
00003C
000042
000042
01E064
023018
0C0800
180600
F00300
600180
0000E0
000070
00003E
00000F
000007
000001
ENDCHAR
STARTCHAR uni30DB
ENCODING 12507
BBX 20 22 3 -2
BITMAP
008000
006000
006000
006000
006000
006000
0040C0
E7FFE0
3F4000
004000
004000
004200
204100
204080
2040C0
604060
604070
C04030
C04030
C16000
00C000
004000
ENDCHAR
STARTCHAR uni30DC
ENCODING 12508
BBX 23 22 2 -2
BITMAP
008000
00C010
00600C
004046
004030
004010
0041C0
FFFFC0
7E4000
004000
004000
004000
204200
204180
6040C0
6040C0
C04060
C04060
C04030
81C000
00C000
004000
ENDCHAR
STARTCHAR uni30DD
ENCODING 12509
BBX 22 24 2 -3
BITMAP
000078
008084
006084
006084
006078
006000
006000
0060E0
C7FFE0
7F6000
006000
006000
006200
006100
206080
2060C0
206060
602070
E02030
C02030
C1E000
00E000
006000
004000
ENDCHAR
STARTCHAR uni30DE
ENCODING 12510
BBX 24 14 1 1
BITMAP
00000C
80FFFE
7FE007
78000F
00001C
000038
000070
0080C0
006180
003600
001800
001C00
000C00
000600
ENDCHAR
STARTCHAR uni30DF
ENCODING 12511
BBX 12 21 7 -2
BITMAP
2000
1C00
0780
01E0
0060
0000
0000
4000
3000
1F00
07C0
00C0
0000
0000
0000
8000
6000
3E00
07E0
01F0
0030
ENDCHAR
STARTCHAR uni30E0
ENCODING 12512
BBX 22 19 2 0
BITMAP
002000
001000
001800
003800
003800
003000
006000
006000
00C000
008200
018100
0100C0
030060
020030
040038
8C0FD8
7FF81C
3E000C
100000
ENDCHAR
STARTCHAR uni30E1
ENCODING 12513
BBX 17 20 5 -1
BITMAP
000200
000300
000380
000380
000600
000600
000C00
021C00
019800
007000
007000
00F800
00CC00
018C00
030400
060000
0C0000
100000
600000
800000
ENDCHAR
STARTCHAR uni30E2
ENCODING 12514
BBX 20 18 3 0
BITMAP
000F80
1FFE00
0F0000
008000
00C000
00C000
00C000
00C1F0
81FF30
FFC000
30C000
00C000
00C000
00C000
00C000
004000
006060
001FF0
ENDCHAR
STARTCHAR uni30E3
ENCODING 12515
BBX 18 16 4 -1
BITMAP
060000
020000
020180
011FC0
01E0C0
1F0180
F10200
008400
008000
008000
00C000
004000
004000
006000
006000
002000
ENDCHAR
STARTCHAR uni30E4
ENCODING 12516
BBX 24 20 1 -2
BITMAP
03C000
00C000
004000
00403C
0043E6
007E07
03E00F
BE2018
782020
0030C0
001000
001000
001800
001800
000800
000C00
000C00
000C00
000E00
000600
ENDCHAR
STARTCHAR uni30E5
ENCODING 12517
BBX 18 10 4 3
BITMAP
001800
0FFC00
001800
001000
001000
003000
002000
002000
83FFC0
FC01C0
ENDCHAR
STARTCHAR uni30E6
ENCODING 12518
BBX 24 13 1 2
BITMAP
043F80
03C1C0
000180
000100
000300
000300
000200
000200
000600
000600
83FFFE
7F800F
300000
ENDCHAR
STARTCHAR uni30E7
ENCODING 12519
BBX 12 12 7 2
BITMAP
8FF0
7030
0030
0030
0020
8FE0
7020
0060
0060
0040
0040
FFE0
ENDCHAR
STARTCHAR uni30E8
ENCODING 12520
BBX 16 17 5 0
BITMAP
EFFE
7C03
0003
0003
0006
0006
0006
7FFE
3C06
0006
0004
0004
0004
000C
80FC
7FDC
2000
ENDCHAR
STARTCHAR uni30E9
ENCODING 12521
BBX 18 23 4 -3
BITMAP
000600
1FFF00
0FC000
000000
000000
000000
000780
9FFFC0
7C01C0
200300
000300
000600
000600
000C00
000800
001800
003000
006000
00C000
018000
020000
040000
080000
ENDCHAR
STARTCHAR uni30EA
ENCODING 12522
BBX 12 22 7 -2
BITMAP
0040
8030
4030
6020
6020
6020
6020
6020
6020
6020
6020
6020
6020
6020
0060
0060
0040
00C0
0080
0180
0100
0200
ENDCHAR
STARTCHAR uni30EB
ENCODING 12523
BBX 25 17 1 0
BITMAP
00180000
040C0000
060C0000
02080000
02080000
06080000
06080080
04080100
04080200
0C080400
08080800
18083000
1008E000
300BC000
201F8000
400E0000
80040000
ENDCHAR
STARTCHAR uni30EC
ENCODING 12524
BBX 18 17 4 0
BITMAP
C00000
600000
300000
300000
200000
200040
200080
200100
200200
200C00
201800
207000
21C000
278000
7E0000
7C0000
300000
ENDCHAR
STARTCHAR uni30ED
ENCODING 12525
BBX 18 14 4 1
BITMAP
E3FF80
7F00C0
2000C0
200080
300180
300180
300180
300100
100100
100300
100600
1FFF00
100000
100000
ENDCHAR
STARTCHAR uni30EE
ENCODING 12526
BBX 14 14 6 1
BITMAP
8FFC
F00C
800C
4018
4018
C010
4030
4020
0060
00C0
0080
0100
0200
0400
ENDCHAR
STARTCHAR uni30EF
ENCODING 12527
BBX 19 19 4 -1
BITMAP
803FC0
FFFFE0
4001E0
400180
400180
400380
400300
C00300
E00600
400600
000C00
000800
001800
003000
006000
004000
008000
010000
060000
ENDCHAR
STARTCHAR uni30F0
ENCODING 12528
BBX 22 24 2 -3
BITMAP
001800
000C00
000400
000400
000400
000440
0FFFE0
07C400
000400
040400
060400
020400
020400
020438
8FFFFC
7F0400
300400
000400
000C00
000C00
000C00
000C00
000C00
000400
ENDCHAR
STARTCHAR uni30F1
ENCODING 12529
BBX 24 15 1 2
BITMAP
0007C0
0FFCE0
0780E0
000180
003200
001C00
001800
001800
001000
001000
001000
001000
83FFFE
7FC01F
300000
ENDCHAR
STARTCHAR uni30F2
ENCODING 12530
BBX 18 20 4 -2
BITMAP
401F80
3FFC80
0801C0
000180
000300
000300
807E00
7FC600
180C00
000C00
001800
003000
002000
006000
00C000
018000
030000
040000
080000
100000
ENDCHAR
STARTCHAR uni30F3
ENCODING 12531
BBX 18 17 4 0
BITMAP
800000
600000
380000
1C0000
0000C0
000080
000100
000600
000C00
001800
006000
00C000
038000
070000
9C0000
780000
300000
ENDCHAR
STARTCHAR uni30F4
ENCODING 12532
BBX 24 23 1 -2
BITMAP
000008
00E046
003033
003018
003008
C03FF0
7FFE30
300070
300060
300060
3000C0
3000C0
300080
300180
000100
000300
000600
000400
000C00
001800
003000
004000
008000
ENDCHAR
STARTCHAR uni30F5
ENCODING 12533
BBX 14 16 6 0
BITMAP
0080
00C0
0080
0180
47FC
3B04
020C
0608
0408
0808
1018
2010
4030
8120
00E0
00C0
ENDCHAR
STARTCHAR uni30F6
ENCODING 12534
BBX 16 16 5 0
BITMAP
0400
0600
0400
0C04
187F
37C0
6020
8030
0060
0040
00C0
0080
0100
0200
0400
0800
ENDCHAR
STARTCHAR uni3105
ENCODING 12549
BBX 18 21 4 -1
BITMAP
030000
038000
030000
060000
060000
0C0000
180700
30FF80
7FE3C0
FC0380
600300
000300
000600
000600
000E00
000C00
021C00
033800
01F000
00E000
00C000
ENDCHAR
STARTCHAR uni3106
ENCODING 12550
BBX 16 22 5 -1
BITMAP
0100
0180
01C0
0180
0300
0600
0604
0C7E
1FE7
1C07
000E
000C
1C1C
0718
03B0
00F0
00F8
01FC
031E
0E0F
3807
C003
ENDCHAR
STARTCHAR uni3107
ENCODING 12551
BBX 16 19 5 0
BITMAP
001C
CFFE
7F87
7803
6003
6003
6003
6003
6003
6003
6003
6003
6003
6003
E003
C003
C007
C007
C007
ENDCHAR
STARTCHAR uni3108
ENCODING 12552
BBX 16 21 5 -1
BITMAP
0018
01FC
FFF0
D800
C000
4000
4000
4000
4000
4000
4000
4000
4000
4000
4000
4000
C000
C00C
C7FF
FFFF
4000
ENDCHAR
STARTCHAR uni3109
ENCODING 12553
BBX 18 22 4 -1
BITMAP
010000
018000
038000
030000
070000
060000
0C0000
181F80
37FFC0
7F81C0
31C1C0
038180
038180
030300
030300
060300
0E0600
0C0E00
18DC00
307C00
C03800
003000
ENDCHAR
STARTCHAR uni310A
ENCODING 12554
BBX 18 21 4 -1
BITMAP
018000
00C000
00E000
00C000
00C000
00C000
00C300
01FFC0
FFFFC0
7F8000
018000
030000
030000
030000
021800
060C00
040600
0C1F00
1FF380
1F0180
0C0000
ENDCHAR
STARTCHAR uni310B
ENCODING 12555
BBX 16 21 5 -1
BITMAP
01F8
FFFC
7838
0070
0060
00C0
0180
031C
07FE
0387
0006
000C
000C
0018
0018
0030
0020
0860
07C0
0780
0300
ENDCHAR
STARTCHAR uni310C
ENCODING 12556
BBX 18 21 4 -1
BITMAP
003000
0C3800
0E3000
0C3000
083000
183000
106700
30FF80
3FE1C0
38C180
00C300
018300
018300
030300
020600
060600
0C0600
198C00
30FC00
607800
807000
ENDCHAR
STARTCHAR uni310D
ENCODING 12557
BBX 16 20 5 -1
BITMAP
0302
0303
0707
0606
0C0E
080C
1818
3030
6060
40C0
80C0
C060
6030
3018
381C
1C0E
0E07
0F07
0703
0200
ENDCHAR
STARTCHAR uni310E
ENCODING 12558
BBX 18 21 4 -1
BITMAP
000780
01FFC0
FFC000
618000
01C000
018000
030000
060000
047E00
0FFF00
0E0600
000600
000C00
000C00
001800
001800
003000
003000
06E000
01C000
01C000
ENDCHAR
STARTCHAR uni310F
ENCODING 12559
BBX 18 20 4 0
BITMAP
000180
107FC0
1FFCC0
1A0000
180000
180000
180000
180000
180000
180000
180000
180000
180000
100000
100000
300000
200000
200000
400000
800000
ENDCHAR
STARTCHAR uni3110
ENCODING 12560
BBX 12 21 7 -1
BITMAP
0060
0070
0030
0020
6020
6020
6020
6020
6020
6020
6020
4020
41E0
4E20
F820
E020
4060
0060
0060
0060
0020
ENDCHAR
STARTCHAR uni3111
ENCODING 12561
BBX 14 21 6 -1
BITMAP
0080
00C0
01E0
01C0
0380
0300
0600
0C00
1800
3000
6000
C000
6000
3800
0E00
0380
01E0
0078
003C
001C
0008
ENDCHAR
STARTCHAR uni3112
ENCODING 12562
BBX 18 19 4 0
BITMAP
000F80
01FFC0
FFC000
60C000
00C000
00C000
00C000
00C000
00C000
00C000
00C000
00C000
00C000
00C000
00C000
00C000
00C000
00C000
004000
ENDCHAR
STARTCHAR uni3113
ENCODING 12563
BBX 19 21 4 -1
BITMAP
00C000
00E000
006000
106000
1C6380
184180
084100
084100
084100
084100
084100
084300
1BFF00
1FC300
084000
004000
004000
004000
00FFC0
FFFFE0
F80000
ENDCHAR
STARTCHAR uni3114
ENCODING 12564
BBX 15 21 6 -1
BITMAP
0040
0060
00E0
01C0
038C
070E
0E1C
1838
3070
6060
80C0
01C0
03E0
0EC0
18C0
70C0
C0C0
00C0
00C0
00C0
00C0
ENDCHAR
STARTCHAR uni3115
ENCODING 12565
BBX 18 22 4 -1
BITMAP
000300
3FFF80
3FF1C0
080180
000300
000300
000300
087E00
0FF200
0C0000
0C0000
0C0000
0C0000
0C0000
0C0000
180000
180000
100000
300000
200000
600000
C00000
ENDCHAR
STARTCHAR uni3116
ENCODING 12566
BBX 14 20 6 0
BITMAP
0010
01FC
FFFC
7818
4018
4008
4008
4008
4608
4308
4388
4188
4108
4008
4018
4018
C018
C3F8
FFF8
C008
ENDCHAR
STARTCHAR uni3117
ENCODING 12567
BBX 16 20 5 0
BITMAP
001C
03FE
FF87
7806
0C06
0C06
0C0C
0C0C
0C0C
0D18
0CF8
0C70
0C20
0C00
0C00
0C00
0C00
0C00
0C00
0C00
ENDCHAR
STARTCHAR uni3118
ENCODING 12568
BBX 18 21 4 -1
BITMAP
006000
007000
006000
006000
006000
006000
00CF80
03FFC0
FFC000
78C000
008000
018000
018600
03FF00
03F700
030600
000C00
000C00
001800
001000
002000
ENDCHAR
STARTCHAR uni3119
ENCODING 12569
BBX 17 19 4 0
BITMAP
018000
01C000
01C000
01C000
018000
038000
030000
060000
060000
0C0000
0C0800
180C00
180600
300600
600300
E03F80
FFFF80
FF8180
600180
ENDCHAR
STARTCHAR uni311A
ENCODING 12570
BBX 16 21 5 -1
BITMAP
4006
E007
700F
380C
0C18
0630
0360
01C0
0180
0180
0180
0180
0180
0180
0180
0180
0180
0180
0180
0180
0100
ENDCHAR
STARTCHAR uni311B
ENCODING 12571
BBX 17 21 5 -1
BITMAP
000F00
7FFF80
FF8000
018000
018000
018000
018000
018000
078000
1F8000
300000
600000
600000
400000
400000
600000
600000
300800
381800
1FF000
03C000
ENDCHAR
STARTCHAR uni311C
ENCODING 12572
BBX 18 22 4 -1
BITMAP
008000
00E000
00C000
00C000
004000
007F80
FFFFC0
7C4000
004000
004000
006000
07E000
0C0000
180000
100000
300000
300000
300000
180000
1C0800
0FF800
07F000
ENDCHAR
STARTCHAR uni311D
ENCODING 12573
BBX 18 21 4 -1
BITMAP
040800
070E00
060C00
060C00
060C00
060C00
060C00
063FC0
0FFFC0
FE1800
461800
061000
061000
063000
062000
062000
060000
030000
038400
01FE00
003E00
ENDCHAR
STARTCHAR uni311E
ENCODING 12574
BBX 18 21 4 -1
BITMAP
000F00
7FFF80
3F6000
007000
0C7000
0C6000
186000
186000
30FF80
77FFC0
FEC380
618300
018300
010300
030600
060600
040C00
0C0800
181800
203000
400000
ENDCHAR
STARTCHAR uni311F
ENCODING 12575
BBX 18 21 4 -1
BITMAP
00C000
1FF000
FC6000
406000
006000
006000
006000
006000
006000
002000
002000
003000
003000
001800
001C00
000C00
000E00
000700
000380
0001C0
000080
ENDCHAR
STARTCHAR uni3120
ENCODING 12576
BBX 16 21 5 -1
BITMAP
0180
01C0
01C0
0380
0308
060C
0C1E
1838
1030
7060
FEE0
FFC0
4180
0310
0618
0C0C
181E
31F7
FF87
FC03
6000
ENDCHAR
STARTCHAR uni3121
ENCODING 12577
BBX 16 21 5 -1
BITMAP
0038
1FFC
7F9C
3018
0018
1030
0830
0670
0760
03E0
01C0
00E0
01F0
0338
0338
061C
0C0E
180F
3007
4003
8000
ENDCHAR
STARTCHAR uni3122
ENCODING 12578
BBX 16 21 5 -1
BITMAP
007C
3FFE
1E0E
040C
0E08
0E18
0C10
1800
1000
3000
607E
FFFF
7C0E
000E
000C
001C
0018
0010
0030
0020
0040
ENDCHAR
STARTCHAR uni3123
ENCODING 12579
BBX 16 21 5 -1
BITMAP
7000
7000
7000
6000
6000
6000
6000
6000
6004
60FF
FFFF
F806
0006
0006
000C
000C
000C
0008
0018
0010
0010
ENDCHAR
STARTCHAR uni3124
ENCODING 12580
BBX 18 21 4 -1
BITMAP
038000
018000
018000
018000
018000
018600
03FF00
FFF000
7B0000
03E000
03E000
02C000
06C000
06C000
0CC000
0CC000
18C000
10C000
20E180
407FC0
800000
ENDCHAR
STARTCHAR uni3125
ENCODING 12581
BBX 16 21 5 -1
BITMAP
0030
0038
003C
0038
0070
0060
00E0
00C0
0180
0180
0300
0200
0600
0C00
1800
1800
3000
600C
FFFF
FF0F
4000
ENDCHAR
STARTCHAR uni3126
ENCODING 12582
BBX 18 21 4 -1
BITMAP
004000
007000
083000
0E3000
063000
063000
063000
063000
063000
063000
043000
043000
0C3000
0C3000
083000
183000
183000
301800
200F80
6007C0
800180
ENDCHAR
STARTCHAR uni3127
ENCODING 12583
BBX 2 22 12 -1
BITMAP
C0
C0
C0
C0
C0
C0
C0
C0
C0
C0
C0
C0
C0
C0
C0
C0
C0
C0
C0
C0
C0
C0
ENDCHAR
STARTCHAR uni3128
ENCODING 12584
BBX 18 22 4 -1
BITMAP
000400
000600
000700
000600
000E00
600C00
300C00
081C00
061800
033800
01B000
00E000
00F000
00F800
019C00
031E00
060F00
0C0700
180380
3001C0
6001C0
800080
ENDCHAR
STARTCHAR uni3129
ENCODING 12585
BBX 16 21 5 -1
BITMAP
0008
300E
380E
1806
1806
1806
1806
1806
1006
1006
3006
3006
3006
3007
2007
2007
6007
6FFF
FFC7
F003
4000
ENDCHAR
STARTCHAR uni3220
ENCODING 12832
BBX 24 20 1 -1
BITMAP
200008
200004
200004
400002
400002
400002
400002
C00002
8000C1
81FFE1
87FFF1
820003
C00003
400002
400002
400002
400002
200004
200004
100008
ENDCHAR
STARTCHAR uni3221
ENCODING 12833
BBX 24 20 1 -1
BITMAP
200008
200004
200004
400002
400002
400602
41FF02
C0FC02
800001
800001
800001
800003
C000C3
47FFE2
47FFF2
400002
400002
200004
200004
100008
ENDCHAR
STARTCHAR uni3222
ENCODING 12834
BBX 24 20 1 -1
BITMAP
200008
200004
200004
400002
400002
400702
40FF02
C06002
800001
803F01
807E01
800003
C00003
401FE2
47FFF2
420002
400002
200004
200004
100008
ENDCHAR
STARTCHAR uni3223
ENCODING 12835
BBX 24 20 1 -1
BITMAP
200008
200004
200004
400002
400002
4003C2
4FFFE2
C7EC72
866C61
866CE1
87CFE1
83CFE3
C300E3
43FFC2
43E1C2
4000C2
400002
200004
200004
100008
ENDCHAR
STARTCHAR uni3224
ENCODING 12836
BBX 24 20 1 -1
BITMAP
200008
200004
200004
400002
400F02
40FF82
401802
C01802
803801
807F01
81FB81
803303
C06603
4067C2
41FFE2
47E032
400002
200004
200004
100008
ENDCHAR
STARTCHAR uni3225
ENCODING 12837
BBX 24 20 1 -1
BITMAP
200008
200004
200004
400002
403C02
401C02
400C02
C00002
80FFE1
87FFF1
800001
806403
C0E703
41C382
4301C2
4401C2
400082
200004
200004
100008
ENDCHAR
STARTCHAR uni3226
ENCODING 12838
BBX 24 20 1 -1
BITMAP
200008
200004
200004
400002
407002
403802
403802
C03002
8031E1
803FC1
807C01
81F043
CFB043
423042
4038E2
401FE2
400F02
200004
200004
100008
ENDCHAR
STARTCHAR uni3227
ENCODING 12839
BBX 24 20 1 -1
BITMAP
200008
200004
200004
400002
406002
403002
401802
C11802
80CC01
81CE01
818701
830783
C703C3
4403E2
4801FA
400002
400002
200004
200004
100008
ENDCHAR
STARTCHAR uni3228
ENCODING 12840
BBX 24 20 1 -1
BITMAP
200008
200004
200004
404002
403002
403002
403002
C03E02
80FE01
83E601
806C01
806C23
C0CC23
40CC22
418EF2
4207E2
440102
200004
200004
100008
ENDCHAR
STARTCHAR uni3229
ENCODING 12841
BBX 24 20 1 -1
BITMAP
200008
200004
200004
403002
401802
401802
401802
C01802
803FE1
87FFE1
801801
801803
C01803
401802
401802
401802
401802
201004
200004
100008
ENDCHAR
STARTCHAR uni4E00
ENCODING 19968
BBX 22 4 2 7
BITMAP
000FF8
7FFFFC
FFFFFC
7C0000
ENDCHAR
STARTCHAR uni4E01
ENCODING 19969
BBX 20 19 3 0
BITMAP
0000C0
003FE0
1FFFF0
FFFFF0
787800
007800
007000
007000
007000
007000
007000
007000
007000
007000
007000
07F000
01F000
00F000
00E000
ENDCHAR
STARTCHAR uni4E03
ENCODING 19971
BBX 22 20 2 -1
BITMAP
008000
01E000
00F000
00F000
00F000
00F000
007078
0071FC
007FF8
007F80
03FC00
0FF010
7F7010
FC7010
707038
00703C
0078FC
007FF8
003FF0
000100
ENDCHAR
STARTCHAR uni4E07
ENCODING 19975
BBX 20 19 3 0
BITMAP
000040
003FF0
7FFFF0
FFFC00
787000
00F000
00F000
01FF80
01FFC0
03E3C0
038780
078780
070700
0E0F00
1C0E00
38FE00
607E00
803C00
003800
ENDCHAR
STARTCHAR uni4E08
ENCODING 19976
BBX 22 22 2 -2
BITMAP
00C000
00F000
007800
007800
007000
007000
007F80
03FFC0
3FFC00
1E7000
0E7000
0FF000
03E000
01E000
01E000
01F000
03F800
0F3E00
1E1F80
F00FF0
0003FC
000100
ENDCHAR
STARTCHAR uni4E09
ENCODING 19977
BBX 22 16 2 1
BITMAP
001F80
07FFC0
07FF00
010000
000000
000200
003F00
07FF80
03FE00
000000
000000
000000
0007F8
FFFFFC
FFFFFC
7C0000
ENDCHAR
STARTCHAR uni4E0A
ENCODING 19978
BBX 24 20 1 -1
BITMAP
006000
007800
003C00
003C00
003800
003800
003800
0039E0
003FF0
003FE0
003800
003800
003800
003800
003800
003800
003FFC
FFFFFE
7FFFFF
300000
ENDCHAR
STARTCHAR uni4E0B
ENCODING 19979
BBX 20 20 3 -1
BITMAP
0003E0
03FFF0
FFFFF0
FFE000
70F000
00F000
00E000
00E000
00FE00
00FF00
00EF00
00E700
00E000
00E000
00E000
00E000
00E000
00E000
00E000
004000
ENDCHAR
STARTCHAR uni4E0C
ENCODING 19980
BBX 21 21 3 -1
BITMAP
0000C0
007FF0
FFFFF8
FFFC00
7F1E00
079E00
071E00
070E00
070E00
070E00
070E00
060E00
0E0E00
0E0E00
0C0E00
1C0E00
180E00
300C00
400C00
000C00
000400
ENDCHAR
STARTCHAR uni4E0D
ENCODING 19981
BBX 19 19 4 0
BITMAP
000180
007FC0
3FFFE0
7FF000
307800
00F000
01E000
01E000
03E000
07FF00
0FEFC0
1CE3E0
38E1E0
70E0E0
C0E000
00E000
01E000
01E000
00C000
ENDCHAR
STARTCHAR uni4E0E
ENCODING 19982
BBX 20 22 3 -2
BITMAP
030000
038000
01C000
01C100
01DFC0
01FFC0
03FC00
038000
0381C0
07FFE0
07FFF0
03C0F0
0000E0
03FDE0
FFFFE0
7F81C0
0001C0
001BC0
000F80
000F80
000700
000400
ENDCHAR
STARTCHAR uni4E10
ENCODING 19984
BBX 18 21 4 -1
BITMAP
000100
01FFC0
FFFFC0
7FE000
00E000
10E700
1CFF80
1EFC00
1CE000
38E700
3BFF80
7FFFC0
3E03C0
180380
000380
000780
000700
007F00
003F00
001E00
001C00
ENDCHAR
STARTCHAR uni4E11
ENCODING 19985
BBX 22 18 2 0
BITMAP
000180
007FC0
07FFE0
03E1E0
0073C0
0073C0
00F380
00FF80
0FFF80
07FF80
03E300
00E700
01C700
01C700
01C7F0
FFFFF8
7FFFFC
300000
ENDCHAR
STARTCHAR uni4E13
ENCODING 19987
BBX 20 23 3 -2
BITMAP
00C000
007000
007000
007000
007000
007F00
0FFF80
07FC00
01E000
00FFF0
0FFFF0
FFFC00
79C000
01FF00
03FF80
01EF80
008E00
011C00
01F000
00F800
007C00
003C00
001C00
ENDCHAR
STARTCHAR uni4E14
ENCODING 19988
BBX 22 18 2 0
BITMAP
001F00
07FF80
03F780
038700
038700
039F00
03FF00
03E700
038700
038700
03FF00
03FF00
038700
038700
038730
07FFF8
FFFFFC
380000
ENDCHAR
STARTCHAR uni4E15
ENCODING 19989
BBX 22 20 2 -1
BITMAP
0007C0
0FFFE0
1FFFF0
0C3C00
003C00
007800
007000
00F400
01F3C0
03F3F0
07F1F0
0E70F0
1C7070
307000
407000
007000
0031F0
FFFFF8
7FFFFC
300000
ENDCHAR
STARTCHAR uni4E16
ENCODING 19990
BBX 24 20 1 -1
BITMAP
000300
0003C0
0039E0
0039C0
0639C0
07B9C0
03B9C0
03B9FE
03FFFE
FFFFFF
7FB980
13B980
03BF80
03BFC0
031800
030000
0707E0
07FFF0
07FFF8
010000
ENDCHAR
STARTCHAR uni4E18
ENCODING 19992
BBX 22 19 2 0
BITMAP
000800
001C00
003E00
003E00
00F800
01E000
0F0000
070000
070F80
07FFC0
07FF00
070E00
070E00
070E00
071C00
071C70
0FFFF8
FFFFFC
7E000C
ENDCHAR
STARTCHAR uni4E19
ENCODING 19993
BBX 20 19 3 0
BITMAP
000E00
007F00
1FFF00
0FF000
00F000
00E080
00FFC0
EFFFE0
7FF0F0
71C0E0
71F0E0
33BCE0
331CE0
360DE0
3C01E0
300FC0
3007C0
3003C0
000380
ENDCHAR
STARTCHAR uni4E1A
ENCODING 19994
BBX 20 18 3 0
BITMAP
003800
003C00
039C00
03DC00
039C00
039D80
039DC0
739DE0
399BC0
3D9B80
1D9F00
099C00
019800
019800
0198C0
0FFFF0
FFFFF0
780000
ENDCHAR
STARTCHAR uni4E1B
ENCODING 19995
BBX 22 19 2 0
BITMAP
001000
001800
061E00
071E00
071C00
061C00
0E1C00
0E1800
0E3800
0F3C00
1FB600
19F700
38E3C0
70C3E0
6181FC
830040
003FC0
FFFFE0
7FF9E0
ENDCHAR
STARTCHAR uni4E1C
ENCODING 19996
BBX 18 22 4 -2
BITMAP
018000
01C000
01C000
03C000
03BE00
3FFF00
7FFC00
1F8000
0FC000
0DE000
18DE00
3FFF00
3FF800
38C000
00CC00
10CF00
30C780
F0C3C0
F7C1C0
63C080
01C000
018000
ENDCHAR
STARTCHAR uni4E1D
ENCODING 19997
BBX 20 18 3 0
BITMAP
060600
070700
070700
0F0F00
0ECF80
0DFDC0
19DFC0
3FBF80
3B3F00
160600
0C6DE0
3FBF80
3E1E00
1C1C00
000080
03FFE0
FFFFF0
7E0000
ENDCHAR
STARTCHAR uni4E1E
ENCODING 19998
BBX 23 20 1 -1
BITMAP
001E00
0FFF00
0FCF00
061C00
0030C0
0061E0
0033C0
07BF00
3FFC00
1FBE00
073F00
073B80
0E39E0
1D39F8
38F0FE
607020
807080
00FFE0
1FFFE0
0F0000
ENDCHAR
STARTCHAR uni4E22
ENCODING 20002
BBX 22 20 2 -1
BITMAP
000E00
001F00
007E00
01F000
067800
003F00
01FF80
07FF00
03F800
0038F8
00FFFC
FFFFFC
FFF000
00F000
01E700
038780
0EFFC0
0FF3C0
0F81C0
0400C0
ENDCHAR
STARTCHAR uni4E24
ENCODING 20004
BBX 20 20 3 -1
BITMAP
000700
03FF80
3FFF80
3F9800
039C00
0399C0
037FE0
FFFFF0
7FF8F0
7730E0
773CE0
77FEE0
7EE7E0
7CE6E0
78C1E0
7081E0
700FE0
3007C0
0003C0
000100
ENDCHAR
STARTCHAR uni4E25
ENCODING 20005
BBX 22 22 2 -2
BITMAP
0001C0
007FE0
03FF80
01F760
003670
0736F0
03B7C0
01B700
0037F8
07FFFC
07FFC0
070000
070000
070000
060000
0E0000
0E0000
1C0000
1C0000
380000
600000
800000
ENDCHAR
STARTCHAR uni4E27
ENCODING 20007
BBX 22 22 2 -2
BITMAP
00E000
00F000
00F000
00EE00
03FE00
07FC00
03E600
08EF00
06EE00
07F880
02FFE0
0FFFE0
FFE300
777780
063E00
061C00
061E00
06CF80
0787E0
0F03FC
0F0000
060000
ENDCHAR
STARTCHAR uni4E28
ENCODING 20008
BBX 4 22 11 -2
BITMAP
E0
F0
F0
F0
70
70
70
70
70
70
70
70
70
70
70
70
70
F0
F0
F0
70
60
ENDCHAR
STARTCHAR uni4E2A
ENCODING 20010
BBX 23 22 2 -2
BITMAP
00C000
00E000
01E000
01E000
03F000
039800
071C00
07CF00
0EEFC0
1C77F0
3873FE
6071E0
C07000
007000
007000
007000
007000
007000
00F000
00F000
00E000
006000
ENDCHAR
STARTCHAR uni4E2B
ENCODING 20011
BBX 15 22 6 -2
BITMAP
001C
F01E
F83E
783C
3870
00E0
0D80
0700
0780
0780
0700
0700
0700
0700
0700
0700
0700
0700
0700
0700
0700
0600
ENDCHAR
STARTCHAR uni4E2C
ENCODING 20012
BBX 10 20 8 -1
BITMAP
0300
0380
03C0
0380
0380
7B80
3B80
1F80
0B80
0380
0780
3F80
FB80
F380
6380
0380
0380
0380
0380
0180
ENDCHAR
STARTCHAR uni4E2D
ENCODING 20013
BBX 18 23 4 -2
BITMAP
030000
01C000
01E000
01E000
01C000
01C300
01FF80
FFFFC0
7DC3C0
71C380
71C700
71FF00
7FFF00
3DC000
31C000
01C000
01C000
01C000
01C000
01C000
01C000
008000
008000
ENDCHAR
STARTCHAR uni4E30
ENCODING 20016
BBX 21 23 3 -2
BITMAP
00C000
00F000
00F000
00F000
00F200
01FF00
0FFF00
07F000
00FE00
0FFF00
0FFE00
00F000
00FFF0
1FFFF8
FFF000
60F000
00E000
006000
006000
006000
006000
006000
006000
ENDCHAR
STARTCHAR uni4E32
ENCODING 20018
BBX 15 24 6 -3
BITMAP
0600
0780
0780
0730
0FF8
FF3C
6738
67F0
7FF0
2700
07FC
FFFE
E71C
E738
7FF8
7FE8
6700
0700
0700
0700
0600
0200
0200
0200
ENDCHAR
STARTCHAR uni4E34
ENCODING 20020
BBX 20 20 3 -1
BITMAP
083800
0E1C00
0F1C00
0E3840
EE3FE0
EE3FE0
EE7400
6E6E00
6EE700
EEC300
EF0000
EE0FF0
EEFFF0
EEEE70
4EEEE0
0EEEE0
0EFFE0
0EFFE0
0E6000
040000
ENDCHAR
STARTCHAR uni4E36
ENCODING 20022
BBX 6 5 10 7
BITMAP
80
F8
7C
3C
1C
ENDCHAR
STARTCHAR uni4E38
ENCODING 20024
BBX 22 19 2 0
BITMAP
010000
01C000
01E000
01C000
01C000
01CE00
01FF00
07FF00
3FCE00
1D8E00
038C00
0F9C00
079C08
07DC08
07DC18
0EDC1C
1C0FFC
380FFC
E007F8
ENDCHAR
STARTCHAR uni4E39
ENCODING 20025
BBX 22 20 2 -1
BITMAP
001F00
07FF80
03E780
038700
03E700
03B700
03B700
038778
03FFFC
FFFFFC
7F0700
230700
070700
070700
060700
0E0700
0C3F00
1C1F00
180F00
200600
ENDCHAR
STARTCHAR uni4E3A
ENCODING 20026
BBX 19 21 4 -1
BITMAP
002000
003800
003800
1C7C00
0E7800
077000
077000
00F780
03FFC0
7FF9E0
3FE1C0
01C1C0
03F9C0
03B9C0
071B80
0E0380
0C0380
187780
303F00
401F00
800E00
ENDCHAR
STARTCHAR uni4E3B
ENCODING 20027
BBX 20 19 3 0
BITMAP
038000
01E000
00F000
007000
002000
000F00
1FFF80
1FFE00
0EF000
00F000
00F600
00FF00
0FFF00
07E000
006000
006000
007FE0
FFFFF0
FFF3F0
ENDCHAR
STARTCHAR uni4E3D
ENCODING 20029
BBX 20 18 3 0
BITMAP
0007E0
FFFFF0
FFE070
000000
018780
3FDFC0
19D9C0
19D9C0
19DDC0
1FDFC0
1FDBC0
3BD9C0
39D9C0
39D9C0
3FFFC0
139BC0
0181C0
000180
ENDCHAR
STARTCHAR uni4E3E
ENCODING 20030
BBX 24 23 1 -2
BITMAP
000200
010700
00E780
0E7700
077600
030C40
001FF0
0FFFF0
3F8C00
13C600
077700
0773C0
0EFDE0
1DFEF8
38707F
60FF80
8FFFC0
077000
007000
007000
003000
002000
002000
ENDCHAR
STARTCHAR uni4E3F
ENCODING 20031
BBX 10 20 8 -1
BITMAP
0300
0380
03C0
03C0
03C0
0380
0380
0380
0780
0700
0700
0F00
0E00
0E00
1C00
1C00
3800
7000
4000
8000
ENDCHAR
STARTCHAR uni4E43
ENCODING 20035
BBX 20 20 3 -1
BITMAP
0007C0
007FE0
0FFBE0
1FC3C0
0CE380
00E700
01EE00
01CFE0
01CFF0
0384F0
0380F0
0700E0
0E00E0
0E01E0
1C01C0
3833C0
601FC0
800F80
000F00
000600
ENDCHAR
STARTCHAR uni4E45
ENCODING 20037
BBX 22 20 2 -1
BITMAP
018000
01C000
01E000
01C000
039800
03FE00
07FE00
07BC00
0E3800
0C7800
107000
20F000
01F800
01DC00
038E00
070F00
0E0780
1C07C0
7003F0
8001FC
ENDCHAR
STARTCHAR uni4E47
ENCODING 20039
BBX 24 20 1 -1
BITMAP
001C00
003F00
00FF00
01F800
07E000
3CF000
00F000
00E0C0
00EFE0
00FFF0
1FFC00
FFE004
7CE004
00E004
00E00E
00E00F
00F07F
007FFE
003FFC
0007C0
ENDCHAR
STARTCHAR uni4E48
ENCODING 20040
BBX 18 19 4 0
BITMAP
018000
01C000
01E000
03CC00
038E00
071F00
0F1F00
1E3C00
1C7800
307000
40E000
81C000
038C00
070700
0C3F80
1FFBC0
7FC3C0
3F01C0
1C00C0
ENDCHAR
STARTCHAR uni4E49
ENCODING 20041
BBX 24 20 1 -1
BITMAP
000C00
038E00
03CF00
01EF00
00CF00
0C4E00
1F0E00
071E00
039C00
01FC00
01F800
00F800
00F800
00FC00
01FE00
07DF80
0F0FE0
3C07FC
C003FF
0000E0
ENDCHAR
STARTCHAR uni4E4B
ENCODING 20043
BBX 24 20 1 -1
BITMAP
038000
01E000
00F000
007000
002780
007FC0
07FF80
1FDF00
0E3C00
007000
00E000
018000
020000
7E0000
FF8000
21F800
007FFF
001FFC
0007F0
000080
ENDCHAR
STARTCHAR uni4E4C
ENCODING 20044
BBX 20 24 3 -3
BITMAP
00C000
00F000
00F000
00E000
019C00
07FE00
07FE00
070E00
031C00
07FC00
077C00
073800
073FE0
0FFFF0
07E0F0
0608F0
01FEE0
7FFEE0
FF80E0
7009E0
0007C0
0007C0
000380
000200
ENDCHAR
STARTCHAR uni4E4D
ENCODING 20045
BBX 19 23 3 -2
BITMAP
010000
018000
01C000
03C000
03C1C0
038FE0
07FFC0
0FFE00
0C6000
187780
307FC0
607F80
806000
0061C0
007FE0
007FE0
006000
006000
006000
006000
00E000
00E000
006000
ENDCHAR
STARTCHAR uni4E4E
ENCODING 20046
BBX 22 23 2 -2
BITMAP
000800
001E00
007F00
01FC00
0FF180
0073C0
0F7BC0
07FF00
03BC00
0139F8
01FFFC
FFFFFC
FF3800
003800
003800
003800
003800
007800
007800
03F000
01F000
00F000
006000
ENDCHAR
STARTCHAR uni4E4F
ENCODING 20047
BBX 24 21 1 -1
BITMAP
000800
001E00
007E00
00F800
03E000
0FC000
00F000
007780
00FFC0
3FEFC0
3F1E00
087800
00F000
03C000
070000
FF0000
7FF000
00FFFF
003FFC
0007F0
0001C0
ENDCHAR
STARTCHAR uni4E50
ENCODING 20048
BBX 18 21 4 -1
BITMAP
001000
003C00
00FC00
13F000
1F0000
1D8000
1DE000
19E000
38E700
3BFF80
3FFF80
3EE000
00E000
10EE00
30E780
70E3C0
F0E3C0
EFE1C0
43C000
01C000
018000
ENDCHAR
STARTCHAR uni4E52
ENCODING 20050
BBX 22 20 2 -1
BITMAP
000E00
001F00
007E00
07E000
038000
038780
03FFC0
03FF80
038E00
039E00
039CF0
03FFFC
FFFFFC
7F0000
00C000
01E000
03C000
078000
0E0000
300000
ENDCHAR
STARTCHAR uni4E53
ENCODING 20051
BBX 20 20 3 -1
BITMAP
000E00
003F00
007E00
07E000
070000
070700
077F80
07FF00
03FC00
031C00
031C00
033FE0
7FFFF0
FFC000
600000
001C00
000F00
000700
000780
000300
ENDCHAR
STARTCHAR uni4E54
ENCODING 20052
BBX 24 23 1 -2
BITMAP
000800
001C00
007E00
01F800
07E000
00F0C0
00FFE0
3FFFE0
3FCE00
0B8700
070780
071FE0
0DCFFC
19CEFF
21CE20
C18E00
038E00
038C00
030C00
070C00
0C0C00
100C00
000800
ENDCHAR
STARTCHAR uni4E56
ENCODING 20054
BBX 20 24 3 -3
BITMAP
003800
007C00
01F800
07E000
18F000
00FFE0
3FFFF0
FFE000
6CEC80
0FEFC0
06EDC0
7EEF80
7EEE40
06EC40
1EEC60
FEEFE0
76E7E0
00E000
00E000
006000
006000
004000
004000
004000
ENDCHAR
STARTCHAR uni4E58
ENCODING 20056
BBX 22 23 2 -2
BITMAP
001800
003C00
00FE00
03F000
0C7000
007FC0
3FFFE0
1F7400
0377C0
03F780
1FF640
0F7640
0F77E0
3F7BC0
18FC00
01FE00
03F780
0F73C0
1C71F8
3070FC
C07000
007000
006000
ENDCHAR
STARTCHAR uni4E59
ENCODING 20057
BBX 19 18 4 0
BITMAP
01C000
0FE000
FFF000
FFE000
278000
0F0000
1E0000
3C0000
380000
700080
700080
E00080
E00180
E001C0
E007E0
FFFFC0
7FFF80
1FFE00
ENDCHAR
STARTCHAR uni4E5C
ENCODING 20060
BBX 24 18 1 0
BITMAP
060000
078000
078300
0387C0
038FC0
03BFC0
03F380
03E380
0F8780
3F1F84
FF0F04
F70F06
27040E
03800F
03C03F
03FFFE
00FFFC
003FC0
ENDCHAR
STARTCHAR uni4E5D
ENCODING 20061
BBX 24 20 1 -1
BITMAP
01C000
00E000
00F000
00F000
00E000
00E700
00FF80
01FF80
1FE700
3FC700
19CE00
01CE00
01CE04
038C04
038C06
070C06
0E0E0F
1C0FFF
3007FE
C001F8
ENDCHAR
STARTCHAR uni4E5E
ENCODING 20062
BBX 22 22 2 -2
BITMAP
018000
01C000
01E000
03C000
079F00
07FF80
0FFC00
1C0000
380000
60F800
8FFC00
1FF000
0DE000
03C010
038010
070030
070038
060038
07007C
07FFF8
03FFF0
003E00
ENDCHAR
STARTCHAR uni4E5F
ENCODING 20063
BBX 24 20 1 -1
BITMAP
00E000
007800
007000
007000
007300
0077C0
0E7FC0
0F7F80
07F380
07F380
0FF780
3E7F00
FE7F04
767704
06700E
06200E
07001F
07E3FF
03FFFE
01FFF0
ENDCHAR
STARTCHAR uni4E60
ENCODING 20064
BBX 16 20 5 -1
BITMAP
003E
7FFF
7FEF
380F
000F
1C0F
0E0F
0F0F
060E
00CE
038E
0E0E
3C0E
F80E
F01E
619E
00FC
007C
0078
0030
ENDCHAR
STARTCHAR uni4E61
ENCODING 20065
BBX 16 22 5 -2
BITMAP
00C0
01E0
01E0
03D8
039C
061E
0C3E
3FF8
1EF8
01CE
038F
071F
1FFE
1F9E
1E3C
0078
00F0
01E0
03C0
0780
1E00
F000
ENDCHAR
STARTCHAR uni4E66
ENCODING 20070
BBX 20 22 3 -2
BITMAP
018000
01E000
01E780
01E3E0
00C1E0
00FF60
1FFF80
1FC700
00CF00
00CE00
00CFC0
0FFFF0
FFF0F0
78C0E0
00C0E0
00C9E0
00C7C0
01C7C0
01C380
01C000
01C000
00C000
ENDCHAR
STARTCHAR uni4E69
ENCODING 20073
BBX 22 20 2 -1
BITMAP
001800
201C00
1C1E00
1E1C00
0C1C00
0C1C00
0DDC00
0FFC00
0E1C00
0C1C00
0C1C00
CF9C00
7FDC10
63DC10
639C10
639C18
7FDC3C
7FCFFC
300FF8
0003E0
ENDCHAR
STARTCHAR uni4E70
ENCODING 20080
BBX 18 19 4 0
BITMAP
000400
07FF00
7FF780
388780
00EC00
1EF000
06E000
38E000
1CE000
0CE380
01FFC0
FFFFC0
FDC000
03C000
039800
079F00
0F0F80
1C0780
700380
ENDCHAR
STARTCHAR uni4E71
ENCODING 20081
BBX 23 18 2 0
BITMAP
00C600
01F700
03E780
0F0700
3F8700
038700
07F700
3FF700
FF0700
670700
07E700
7FF708
3EF708
38E70C
18E71E
1FE7FE
1FE3FC
1801F8
ENDCHAR
STARTCHAR uni4E73
ENCODING 20083
BBX 22 20 2 -1
BITMAP
03C800
07CE00
0F4700
387700
06E600
37C600
198600
1FE600
3CE600
118600
030600
03E600
0F8608
FF8608
FB8618
63861C
0387FC
0F07FC
0703F8
060000
ENDCHAR
STARTCHAR uni4E7E
ENCODING 20094
BBX 22 22 2 -2
BITMAP
030000
038600
038700
034700
07E700
3FCEE0
0E0FF0
07CF80
7FF800
32D300
3FDFC0
31FFC0
1FF700
178E00
07EC08
7FFC08
FE1C18
06183C
061FFC
060FFC
0607F0
020000
ENDCHAR
STARTCHAR uni4E86
ENCODING 20102
BBX 16 20 5 -1
BITMAP
003C
FFFE
7FBF
7C3C
0070
0340
03C0
01C0
01C0
01C0
00C0
00C0
01C0
01C0
01C0
0DC0
07C0
03C0
03C0
0180
ENDCHAR
STARTCHAR uni4E88
ENCODING 20104
BBX 20 22 3 -2
BITMAP
001C00
07FE00
1FDF00
0E1E00
03B000
01E000
00E0C0
007FE0
3FFFF0
FFE1F0
70F380
007200
007000
007000
007000
007000
00F000
07F000
03E000
01E000
01C000
008000
ENDCHAR
STARTCHAR uni4E89
ENCODING 20105
BBX 22 23 2 -2
BITMAP
00C000
00E000
00E000
01DE00
03FF00
037E00
063800
086F80
0FFFC0
0FF3C0
0077FC
1FFFFC
FFF380
707380
0FFF80
1FF000
007000
007000
007000
037000
01F000
00F000
007000
ENDCHAR
STARTCHAR uni4E8B
ENCODING 20107
BBX 21 24 3 -3
BITMAP
00C000
00F000
00F1F0
01FFF8
FFF800
F8EF00
0BFF80
0FE700
06FF80
07E000
067F80
0FFF80
0F67F0
07FFF8
7FE700
307F00
0FFF80
066000
006000
006000
03E000
01E000
00E000
008000
ENDCHAR
STARTCHAR uni4E8C
ENCODING 20108
BBX 22 14 2 2
BITMAP
001F00
0FFF80
0FFF80
03E000
000000
000000
000000
000000
000000
000000
000FF8
FFFFFC
FFFFFC
7C0000
ENDCHAR
STARTCHAR uni4E8D
ENCODING 20109
BBX 21 21 3 -1
BITMAP
000400
003E00
0FFF00
07F000
000000
000000
0003F0
03FFF8
FFFF00
FC7000
007800
007000
007000
007000
007000
007000
007000
07F000
03F000
01F000
00E000
ENDCHAR
STARTCHAR uni4E8E
ENCODING 20110
BBX 22 21 2 -1
BITMAP
000200
007F80
07FF80
03F800
003800
003800
003FF8
03FFFC
FFFFFC
7E3800
003800
003800
003800
003800
003800
003800
003800
03F800
00F800
007800
007000
ENDCHAR
STARTCHAR uni4E8F
ENCODING 20111
BBX 21 21 3 -1
BITMAP
000800
00FE00
0FFE00
07E000
000020
000FF0
03FFF8
FFF000
FDC000
43C000
03FE00
07FF00
07CF00
030E00
000E00
000E00
001E00
01FC00
00FC00
007C00
003800
ENDCHAR
STARTCHAR uni4E91
ENCODING 20113
BBX 20 18 3 0
BITMAP
000400
007F00
07FF00
07F000
000000
0001E0
00FFF0
7FFFF0
FFE000
71F000
01E000
03CE00
070780
0E1FC0
1FFBC0
1FC1C0
1F00C0
0C0000
ENDCHAR
STARTCHAR uni4E92
ENCODING 20114
BBX 22 18 2 0
BITMAP
000780
00FFC0
0FFF80
07F000
00F000
00E400
00FF00
01FF00
01CF00
038E00
07FE00
07FE00
079C00
001C00
001CF0
0FFFF8
FFFFFC
3C0000
ENDCHAR
STARTCHAR uni4E93
ENCODING 20115
BBX 21 21 3 -1
BITMAP
000E00
03FF00
0FFE00
078000
000000
000060
007FF0
3FFFF8
FF9E00
639E00
078E00
070E00
070E00
070E00
060E00
0E0C00
0C0C00
180C00
300C00
000C00
000C00
ENDCHAR
STARTCHAR uni4E94
ENCODING 20116
BBX 22 17 2 1
BITMAP
000300
007FC0
07FFC0
03F000
007800
007800
007000
007F00
0FFF80
0FF3C0
02E780
00C700
01C700
01C600
01FFF8
FFFFFC
7FC00C
ENDCHAR
STARTCHAR uni4E95
ENCODING 20117
BBX 20 23 3 -2
BITMAP
003000
003C00
041C00
071C00
079C00
031F80
07FF80
3FFC00
1B1C00
031C00
031DE0
07FFF0
FFFFF0
FF1C00
071C00
071C00
061C00
0E1C00
0C1C00
181C00
201800
401800
000800
ENDCHAR
STARTCHAR uni4E98
ENCODING 20120
BBX 21 20 3 -1
BITMAP
000E00
01FF80
1FFE00
0F8000
000600
107F00
1FFF80
0E0780
0E7780
0FFF00
0FC700
060700
07FF00
07FE00
060600
020000
001FE0
7FFFF0
FFFFF8
400000
ENDCHAR
STARTCHAR uni4E9A
ENCODING 20122
BBX 21 18 3 0
BITMAP
000700
01FF80
3FFF80
1FF800
03BC00
03BD80
03B9C0
43B9E0
3BBBC0
3FBB00
1FBE00
1FBC00
03B800
03B800
01B9C0
7FFFF0
FFFFF8
600000
ENDCHAR
STARTCHAR uni4E9B
ENCODING 20123
BBX 20 20 3 -1
BITMAP
003800
043C00
071C00
071980
0719C0
27DBC0
3FFF00
3F1820
3B1820
3B1830
3BDCF0
3F1FF0
FC0FE0
F07800
67FC00
03E000
000000
003FC0
7FFFE0
1E0000
ENDCHAR
STARTCHAR uni4E9F
ENCODING 20127
BBX 20 20 3 -1
BITMAP
003C00
1FFE00
1F9E00
0C3800
00E000
00E180
00EFC0
0E7FE0
FF71C0
FF7F80
6E7780
7E63C0
7E67E0
64E7E0
03ECE0
01F000
00C0C0
07FFF0
FFFFF0
700000
ENDCHAR
STARTCHAR uni4EA0
ENCODING 20128
BBX 22 10 2 10
BITMAP
00F000
007800
003C00
001C00
000800
0000F0
007FFC
FFFFFC
FF8000
200000
ENDCHAR
STARTCHAR uni4EA1
ENCODING 20129
BBX 22 18 2 0
BITMAP
00F000
007800
003C00
003C00
001800
0003F8
03FFFC
FFFFF8
7F0000
078000
078000
078000
070000
070000
0707C0
0FFFE0
07FFE0
070000
ENDCHAR
STARTCHAR uni4EA2
ENCODING 20130
BBX 20 20 3 -1
BITMAP
03C000
01E000
00E000
004000
003F80
0FFFC0
7FC000
380000
007000
0FF800
07F800
063800
063000
0E3040
0E7060
0C7060
1C7070
383FF0
603FF0
800FC0
ENDCHAR
STARTCHAR uni4EA4
ENCODING 20132
BBX 22 22 2 -2
BITMAP
03C000
01E000
00E000
006100
007FC0
7FFFC0
3F8000
061E00
070F00
0F8700
0E3300
1C3800
363800
43B800
01F000
00F000
00F000
01FC00
07BF00
1E0FE0
F007FC
0003C0
ENDCHAR
STARTCHAR uni4EA5
ENCODING 20133
BBX 20 21 3 -1
BITMAP
03C000
01E000
00F000
006000
0023C0
03FFF0
FFFFF0
7FC000
01D800
039C00
073C00
0FF800
1FFC00
0CEE00
01DE00
03BC00
0E7800
1CFE00
21C780
478380
1C0180
ENDCHAR
STARTCHAR uni4EA6
ENCODING 20134
BBX 20 20 3 -1
BITMAP
01E000
00F000
007000
0020C0
00FFE0
FFFFF0
7F3800
039C00
039C00
039C00
139B80
3319C0
7319E0
7718E0
671800
0E1C00
0CFC00
187800
203800
003000
ENDCHAR
STARTCHAR uni4EA7
ENCODING 20135
BBX 21 23 3 -2
BITMAP
00E000
007800
003800
001980
00FFE0
07FFC0
03C700
00C700
00E600
006C00
187FF0
0FFFF8
0FE000
0E0000
0E0000
0C0000
0C0000
1C0000
180000
380000
300000
600000
800000
ENDCHAR
STARTCHAR uni4EA8
ENCODING 20136
BBX 18 24 4 -3
BITMAP
038000
01E000
00E000
007F80
7FFFC0
FF8000
60F800
0FFC00
0C3800
07FC00
060000
00FC00
1FDE00
0E3E00
00A000
00E000
00E000
00E000
006000
00E000
07E000
01E000
01C000
008000
ENDCHAR
STARTCHAR uni4EA9
ENCODING 20137
BBX 22 20 2 -1
BITMAP
01F000
00F800
007800
003800
000070
00FFF8
FFFFFC
7F8000
200000
001FC0
1FFFC0
0FF1E0
0E7DE0
0FFFC0
0FFDC0
0671C0
067FC0
07FFC0
068380
020180
ENDCHAR
STARTCHAR uni4EAB
ENCODING 20139
BBX 20 23 3 -2
BITMAP
010000
00E000
00F000
007FC0
0FFFC0
3FC000
007E00
07EE00
077C00
03F000
013C00
0FFE00
0F3800
00E000
007FE0
0FFFF0
FFF000
607000
007000
007000
03F000
00F000
006000
ENDCHAR
STARTCHAR uni4EAC
ENCODING 20140
BBX 20 22 3 -2
BITMAP
01E000
00F000
007000
0037E0
01FFF0
FFFE00
7C0400
003E00
07FF00
078F00
070E00
03FC00
03FE00
037000
087000
0C7780
1C73C0
3C71C0
1BF0C0
10F000
00E000
004000
ENDCHAR
STARTCHAR uni4EAD
ENCODING 20141
BBX 20 23 3 -2
BITMAP
030000
01E000
00E000
007F80
0FFF80
1FC000
00FC00
07FC00
033C00
03F800
210FE0
2FFFF0
7F01E0
E0FF00
FFFF00
4E7000
007000
007000
007000
07F000
01F000
00E000
006000
ENDCHAR
STARTCHAR uni4EAE
ENCODING 20142
BBX 20 22 3 -2
BITMAP
01E000
00F000
006300
01FF80
3FFC00
1C7800
07FC00
071C00
03FC00
03E0C0
207FE0
7FFFF0
FE31C0
E7FB00
E3FC00
073820
073020
073060
0E3060
1C3FF0
383FF0
400FC0
ENDCHAR
STARTCHAR uni4EB2
ENCODING 20146
BBX 20 22 3 -2
BITMAP
01E000
00F000
006200
01FF00
0FFF00
071E00
031C00
0398E0
01FFF0
FFFFF0
787000
007300
07FF80
1FFF80
046000
046780
1C63C0
1C73C0
1FE1C0
19E000
00E000
00C000
ENDCHAR
STARTCHAR uni4EB3
ENCODING 20147
BBX 20 22 3 -2
BITMAP
01C000
00E000
00FF80
0FFF80
1F9800
04FC00
07DC00
077800
03F080
231FE0
3FFFE0
7F71E0
E1F300
E3C000
0FC000
11FE40
03FC60
7FC060
3DC070
00FFF0
00FFE0
001F00
ENDCHAR
STARTCHAR uni4EB5
ENCODING 20149
BBX 21 23 3 -2
BITMAP
030000
01C000
01C300
00FF80
7FFC00
3E3000
0C3E00
0F7F00
7E7600
0D3600
FE7680
FC77C0
4CD3C0
3D80C0
1F9800
07BC00
0FF000
1F3800
3F1E00
C7CFC0
0787F8
070180
060000
ENDCHAR
STARTCHAR uni4EBA
ENCODING 20154
BBX 24 18 1 0
BITMAP
006000
007000
007800
007800
00F000
00F000
00E000
01F000
01F800
03B800
039C00
071E00
0E0F80
0C07C0
1C07E0
3003F8
6001FE
8000FF
ENDCHAR
STARTCHAR uni4EBB
ENCODING 20155
BBX 10 20 2 -1
BITMAP
0380
03C0
03C0
0380
0780
0700
0E00
1E00
1E00
3700
6700
8700
0700
0700
0700
0700
0700
0F00
0E00
0600
ENDCHAR
STARTCHAR uni4EBF
ENCODING 20159
BBX 22 20 2 -1
BITMAP
030000
038000
038000
0781C0
070FE0
07FFE0
0E7FC0
1C2780
1E0E00
3E1E00
661C00
C63808
063808
0E7008
0E701C
0E701C
0E7CFC
0E3FFC
0E3FF8
040000
ENDCHAR
STARTCHAR uni4EC0
ENCODING 20160
BBX 24 22 1 -2
BITMAP
018700
01C380
01E3C0
03C3C0
038380
038380
07038C
0F03FE
0FFFFF
1F7FE0
3B0380
630380
830380
030380
030380
030380
070380
070380
030380
030100
000100
000100
ENDCHAR
STARTCHAR uni4EC1
ENCODING 20161
BBX 23 21 2 -1
BITMAP
020000
038000
038000
078000
078000
0701C0
0E7FE0
0E7FE0
1E3E00
1E0000
360000
660000
C60000
860078
06FFFC
07FFFE
066000
0E0000
0E0000
0E0000
060000
ENDCHAR
STARTCHAR uni4EC2
ENCODING 20162
BBX 21 19 3 0
BITMAP
060800
070E00
078F00
070E00
070E00
0E0E40
1E0FF0
1CFFF8
3E7C70
7E1C70
661C70
8E1C70
0E38E0
0E38E0
0E30E0
0E69E0
0EC7C0
0E83C0
050380
ENDCHAR
STARTCHAR uni4EC3
ENCODING 20163
BBX 22 19 2 0
BITMAP
030000
038000
03C000
038018
0781FC
073FFC
0E7FC0
0E21C0
1F01C0
3F01C0
7701C0
C701C0
8701C0
0701C0
0701C0
0719C0
070FC0
0707C0
060380
ENDCHAR
STARTCHAR uni4EC4
ENCODING 20164
BBX 24 18 1 0
BITMAP
0003E0
067FF0
07FF00
078000
070000
071800
071E00
071E00
071C00
061C00
061E00
0E3F00
0C3380
1C73C0
18E1F0
31C0FC
63007F
840000
ENDCHAR
STARTCHAR uni4EC5
ENCODING 20165
BBX 24 20 1 -1
BITMAP
030000
038000
038000
0781C0
070FE0
0F7FE0
0E39C0
1E61C0
1E71C0
3E3B80
661F80
461F00
860F00
060F00
0E1FC0
0E3BF0
0E61FC
0F80FF
0E0020
040000
ENDCHAR
STARTCHAR uni4EC6
ENCODING 20166
BBX 23 21 2 -1
BITMAP
000C00
038E00
03C700
03C700
078700
070700
0F0700
0E0700
1E0780
3F07F8
37077C
67073E
87071E
070704
070700
070700
0F0700
0E0700
0E0F00
060700
000600
ENDCHAR
STARTCHAR uni4EC7
ENCODING 20167
BBX 23 19 2 0
BITMAP
020000
03B800
039C00
079C00
071C80
0E1BC0
0E1FE0
1CFFE0
3FF9C0
36BB80
663B80
863380
063380
0E7384
0E630C
0EE38C
0EC3FE
0D81FE
0E00F8
ENDCHAR
STARTCHAR uni4EC9
ENCODING 20169
BBX 24 19 1 0
BITMAP
020000
038000
03C080
03F7C0
079FE0
071DE0
0E19C0
0E19C0
1F19C0
3F19C0
3719C0
4739C0
8739C2
0731C6
0771C6
0761FF
07C0FF
078038
060000
ENDCHAR
STARTCHAR uni4ECA
ENCODING 20170
BBX 24 22 1 -2
BITMAP
006000
007000
007800
007000
00F800
01EC00
01CF00
038780
07F3C0
0E7BF0
1C39FC
3810FF
601E00
87FF00
0FEF80
060F00
000E00
001E00
003C00
007C00
003800
003000
ENDCHAR
STARTCHAR uni4ECB
ENCODING 20171
BBX 24 22 1 -2
BITMAP
00E000
00F000
00F000
00F000
01F800
01DC00
038E00
038780
071FC0
0F1FF8
1F9DFF
3B9CFC
639C00
839C00
031C00
031C00
071C00
0E0C00
0C0C00
300C00
000C00
000800
ENDCHAR
STARTCHAR uni4ECD
ENCODING 20173
BBX 23 20 2 -1
BITMAP
018000
01C000
03C070
03C3F8
03FFF8
073E70
071E60
0F1EE0
1F1DF0
1F1DFC
3719DE
67381C
C7301C
07701C
076038
07C038
0783F8
0701F0
0700F0
020040
ENDCHAR
STARTCHAR uni4ECE
ENCODING 20174
BBX 24 18 1 0
BITMAP
000E00
060700
038780
038700
038700
038700
070700
070600
060F00
0F8F00
0FCF80
1DFDC0
18FDE0
3078F0
6070F8
80E07C
01807F
060000
ENDCHAR
STARTCHAR uni4ED1
ENCODING 20177
BBX 22 20 2 -1
BITMAP
00C000
00E000
01E000
01E000
03B000
03B800
071E00
0E0F80
1C07E0
3E1BFC
773DF0
C73C00
077800
07C100
070100
070180
070380
078FC0
03FF80
01FE00
ENDCHAR
STARTCHAR uni4ED3
ENCODING 20179
BBX 24 22 1 -2
BITMAP
006000
007000
007800
00F000
00F800
01FC00
01CE00
038780
0703E0
0E1DF8
1FFEFF
3BEE60
638E00
839C00
03FC80
03BC80
0398C0
0381C0
03C1C0
01FFE0
01FFC0
003C00
ENDCHAR
STARTCHAR uni4ED4
ENCODING 20180
BBX 24 20 1 -1
BITMAP
030000
0381F0
03BFF8
07BEF8
0710E0
0F0180
0E0300
1E039E
3E0FFF
36FFFF
6679C0
8601C0
0601C0
0601C0
0601C0
0E01C0
0E0FC0
0E0780
060380
000300
ENDCHAR
STARTCHAR uni4ED5
ENCODING 20181
BBX 23 19 2 0
BITMAP
020800
030E00
078F00
078F00
070F00
0E0E00
0C0E10
1C0FFC
3DFFFE
3CF600
6C0600
8C0600
0C0600
0C0600
0C07E0
0CFFF0
1C7FF0
1C0000
0C0000
ENDCHAR
STARTCHAR uni4ED6
ENCODING 20182
BBX 24 19 1 0
BITMAP
000C00
020E00
030F00
078600
078600
07C6F0
0E77F0
0E77F0
1C7E70
1E7E60
36F7E0
67E6E0
8666C4
066606
0E6007
0E700F
0E3FFF
0E1FFE
0607F0
ENDCHAR
STARTCHAR uni4ED7
ENCODING 20183
BBX 24 20 1 -1
BITMAP
020600
030700
038700
038700
078700
070700
0E07F0
1E7FF0
1E7F80
3E0700
76E600
463E00
863E00
061E00
0E1F00
0E1FC0
0E3BF0
0EE1FE
0F80FF
040000
ENDCHAR
STARTCHAR uni4ED8
ENCODING 20184
BBX 23 21 2 -1
BITMAP
000200
030380
0383C0
03C1C0
0381C0
0781C0
0701D8
0F07FC
0FFFFE
1EFDC0
1E01C0
3E61C0
7639C0
463DC0
861DC0
0609C0
0601C0
060FC0
0E07C0
0603C0
000380
ENDCHAR
STARTCHAR uni4ED9
ENCODING 20185
BBX 22 19 2 0
BITMAP
020400
030700
078380
078380
070380
0F0380
0E0380
1C0398
1E031C
3E431C
76731C
46731C
86737C
0677FC
067FDC
067C1C
0E701C
0E000C
060000
ENDCHAR
STARTCHAR uni4EDD
ENCODING 20189
BBX 22 20 2 -1
BITMAP
018000
01E000
01E000
01E000
03F000
03B800
071C00
0E1F00
0C0FC0
1807F0
30FBFC
6FFDC0
87F000
00E000
00C000
00C000
00C000
03FF80
7FFFC0
180000
ENDCHAR
STARTCHAR uni4EDE
ENCODING 20190
BBX 22 20 2 -1
BITMAP
030000
03C000
03C000
038030
0781FC
073FFC
0F7E3C
0F03BC
1F03BC
1B1338
373738
677738
C77E38
072E38
070C38
071878
0733F0
0721F0
0740E0
0200C0
ENDCHAR
STARTCHAR uni4EDF
ENCODING 20191
BBX 23 21 2 -1
BITMAP
020000
030180
0383C0
078FC0
071F00
0F7E00
0E0F00
1C0700
1E07FC
3EFFFE
77FE00
46C600
860600
060600
0E0600
0E0600
0E0600
0E0600
0E0600
0E0600
040400
ENDCHAR
STARTCHAR uni4EE1
ENCODING 20193
BBX 22 20 2 -1
BITMAP
001800
061C00
071C00
071C00
0739E0
0E3FE0
0C7F00
1C4000
3C8400
3F3F00
6EFF00
4E5E00
8E1C10
0E3808
0E3808
0E301C
0E301C
0E3FFC
0E3FFC
040FC0
ENDCHAR
STARTCHAR uni4EE3
ENCODING 20195
BBX 23 21 2 -1
BITMAP
002000
003800
031DC0
039DE0
039CE0
079C60
071C00
0E1FE0
1C1FE0
1EFE00
3EFE00
760E00
C60600
060700
060384
0E0384
0E01CC
0E00FC
0E00FC
0E003E
00001E
ENDCHAR
STARTCHAR uni4EE4
ENCODING 20196
BBX 24 22 1 -2
BITMAP
006000
007000
007000
00F000
00F800
01DC00
03CE00
038F00
07E780
0E73E0
1C71F8
3820FE
603C61
8FFE00
0F9F00
001C00
013800
00E000
00F800
007800
003800
001000
ENDCHAR
STARTCHAR uni4EE5
ENCODING 20197
BBX 20 17 3 1
BITMAP
000200
000380
01E3C0
00F3C0
E07380
703380
700380
708700
310700
330F00
360E00
3C1E00
7C3FC0
F879E0
F8F0F0
71C0F0
370070
ENDCHAR
STARTCHAR uni4EE8
ENCODING 20200
BBX 23 20 1 -1
BITMAP
030000
038000
03C000
0383F0
073FF0
071F80
0E0000
0E0000
1E00C0
3F1FE0
371FE0
470E00
870000
070000
070018
071FFE
07FFFE
077800
0E0000
060000
ENDCHAR
STARTCHAR uni4EEA
ENCODING 20202
BBX 24 19 1 0
BITMAP
020000
038000
0398C0
038E60
070E70
070670
0E04E0
0E70E0
1E38E0
3E1DC0
761DC0
660F80
860780
060780
060FC0
061DF0
0E71F8
0FC0FF
060020
ENDCHAR
STARTCHAR uni4EEB
ENCODING 20203
BBX 22 20 2 -1
BITMAP
010000
038600
03C600
03C700
038E00
070E80
071CC0
0E19E0
1F39C0
1F3380
374700
678600
870C60
071878
0731FC
077FBC
07FE1C
07780C
076000
020000
ENDCHAR
STARTCHAR uni4EEC
ENCODING 20204
BBX 21 20 3 -1
BITMAP
060000
076000
077000
0E3860
0E3FF0
1C83F8
1CC078
3CE070
3EE030
6EE030
4EE030
8CE030
0CE030
0CE030
0CE030
0CE038
0CE1F8
0CE0F0
0C4070
000060
ENDCHAR
STARTCHAR uni4EF0
ENCODING 20208
BBX 22 21 2 -1
BITMAP
030000
030400
078E00
071F00
071C10
0EF078
0EE7FC
1CE39C
3E639C
36639C
66679C
C6FB9C
0EF3FC
0EF378
0EE338
0E6330
0E0300
0E0300
0E0300
0C0300
000300
ENDCHAR
STARTCHAR uni4EF2
ENCODING 20210
BBX 22 22 2 -2
BITMAP
030E00
03C780
03C780
038700
078700
070730
0E8FFC
1EFFFC
1EF71C
3E6738
6667F8
467FF8
867F00
066700
060700
0E0700
0E0700
0E0700
0E0700
060300
000200
000200
ENDCHAR
STARTCHAR uni4EF3
ENCODING 20211
BBX 24 19 1 0
BITMAP
020000
030200
038380
0783C0
0703C0
0763C0
0E3B98
0E399C
1F39BC
3F3FF0
373FC0
473180
873182
073382
077D86
077987
0771FF
0730FE
060078
ENDCHAR
STARTCHAR uni4EF5
ENCODING 20213
BBX 23 22 2 -2
BITMAP
062000
073800
07B800
0731E0
0E7FF0
0E7FC0
1CC700
1CC700
3F0700
7E073C
4E1FFE
8FFFFE
0EF700
0E0700
0E0700
0E0700
0C0700
0C0700
0C0600
000600
000600
000200
ENDCHAR
STARTCHAR uni4EF6
ENCODING 20214
BBX 22 22 2 -2
BITMAP
020600
030700
038780
078700
073700
0E7760
0E7FF0
1C7FE0
1EC700
3E8700
7707FC
47FFFC
86FFEC
060700
060700
0E0700
0E0700
0E0700
060700
000300
000200
000200
ENDCHAR
STARTCHAR uni4EF7
ENCODING 20215
BBX 24 22 1 -2
BITMAP
000C00
030E00
038E00
079E00
071F00
0E3B80
0E39C0
1C71F0
1C63FC
3CFBFF
6FBB80
4E3B80
8E3B80
0E3B80
0C3380
0C3380
0C7380
1C6380
1CC380
0D0180
000100
000100
ENDCHAR
STARTCHAR uni4EFB
ENCODING 20219
BBX 23 18 1 0
BITMAP
0100C0
0381E0
03C7F0
038F80
073F00
074780
0E0700
0E071C
1F07FE
37FFFE
67FF00
870700
070700
070300
070370
07FFF8
077FF8
060000
ENDCHAR
STARTCHAR uni4EFD
ENCODING 20221
BBX 24 20 1 -1
BITMAP
030C00
038600
038300
07B380
0739C0
0739E0
0E38F0
0E30F8
1E607F
3E4FE0
36FFE0
4738E0
861CE0
0638E0
0E38C0
0E31C0
0E6FC0
0EC7C0
048380
000300
ENDCHAR
STARTCHAR uni4EFF
ENCODING 20223
BBX 22 19 2 0
BITMAP
030000
038F00
03C780
038380
078380
07007C
0F07FC
0EFFC0
1E7F00
3E0E00
360FF0
660FF0
861C70
061870
0630E0
0670E0
0E47E0
0E83C0
060380
ENDCHAR
STARTCHAR uni4F01
ENCODING 20225
BBX 24 20 1 -1
BITMAP
00E000
00F000
00F000
00F000
01F800
03DC00
038E00
070F80
0E67C0
1C73F8
3871FF
707000
8E7F00
077F00
077000
067000
067000
067FE0
7FFFE0
3F8060
ENDCHAR
STARTCHAR uni4F09
ENCODING 20233
BBX 22 20 2 -1
BITMAP
031000
038E00
078F00
070700
070200
0E00C0
1C3FE0
1CFFC0
3C2000
3E0300
4E3F80
8E3F80
0E3B00
0E3308
0E3308
0C730C
0C639C
0CC3FC
0D01F8
040000
ENDCHAR
STARTCHAR uni4F0A
ENCODING 20234
BBX 24 20 1 -1
BITMAP
018000
01C030
01C7F8
03FFFC
038F38
07073E
071FFF
0EFFF0
1F7670
1F0660
371FF0
677FF0
873E00
060C00
061C00
061C00
063800
0E3000
066000
068000
ENDCHAR
STARTCHAR uni4F0D
ENCODING 20237
BBX 23 19 1 0
BITMAP
010000
018000
01C020
03C3F0
03BFF0
071F80
070700
0E0700
1E07E0
1F3FF0
367FF0
663E70
860CE0
060CE0
061CC0
061FFC
0FFFFE
0EFE06
0E0000
ENDCHAR
STARTCHAR uni4F0E
ENCODING 20238
BBX 24 21 1 -1
BITMAP
000800
000C00
030E00
078E00
078E00
070FC0
0E3FE0
0EFF00
1C2E00
1C0E00
3E0F80
6E7FC0
CE33C0
0E7380
0E3B80
0E1F00
0E0F00
0E1F80
0C3BE0
0CE1FC
0D00FF
ENDCHAR
STARTCHAR uni4F0F
ENCODING 20239
BBX 24 20 1 -1
BITMAP
001C00
010E00
018E00
03CEE0
03CE70
038E30
070E10
0F0EF0
0E3FF8
1FFFC0
3EFE00
660E00
C61F00
061F80
061FC0
0E39E0
0E71F0
0EE0FC
0F807F
060000
ENDCHAR
STARTCHAR uni4F10
ENCODING 20240
BBX 22 21 2 -1
BITMAP
003000
003800
031F00
039DE0
039CE0
079C40
071DC0
0E1FE0
0E3F80
1FFC40
3EECE0
360FE0
660FC0
860780
061F00
063B88
0EE3C8
0E01E8
0E00FC
0E007C
04003C
ENDCHAR
STARTCHAR uni4F11
ENCODING 20241
BBX 26 21 0 -1
BITMAP
00080000
000E0000
030F0000
038E0000
03CE0000
038E0000
070E6000
0E0FF000
0EFFF000
1EFE0000
1E1F0000
361F8000
663FC000
863EF000
067EF800
06EE7E00
0F8E3FC0
0E0E0000
0E0E0000
0E0E0000
000E0000
ENDCHAR
STARTCHAR uni4F17
ENCODING 20247
BBX 20 21 3 -1
BITMAP
008000
00C000
00E000
00E000
01E000
03B000
03B800
071E00
0E0F80
181FE0
261C00
071C00
0F1C00
0E1800
1C3C00
1E3C00
3BB600
33F780
61E3C0
8183F0
0301E0
ENDCHAR
STARTCHAR uni4F18
ENCODING 20248
BBX 23 20 2 -1
BITMAP
063000
071C00
079DC0
079DE0
071CE0
0E1840
0E1BC0
1C3FE0
1FFE00
3EFE00
7E3F00
6E3700
8E3600
0E7608
0E7608
0E660C
0EC71E
0F87FE
0D03FC
060000
ENDCHAR
STARTCHAR uni4F19
ENCODING 20249
BBX 23 20 1 -1
BITMAP
010C00
018700
01C700
03C700
038700
078670
070678
0EC6F0
0EE7C0
1E7E00
3E7E00
362F00
460F80
861D80
061DC0
0639F0
0630F8
06607E
068030
030000
ENDCHAR
STARTCHAR uni4F1A
ENCODING 20250
BBX 24 22 1 -2
BITMAP
006000
007000
00F000
00F000
01F800
01CC00
038F00
070780
0E03E0
1C7DF8
3BFEFF
71F000
C00780
03FFC0
1FFF80
0EF000
01EC00
038700
0EFF80
0FE3C0
070180
000080
ENDCHAR
STARTCHAR uni4F1B
ENCODING 20251
BBX 22 19 2 0
BITMAP
020000
030070
03FFF8
07FFF8
0770C0
0E30E0
0E30E0
1C36E0
3C33C0
3C33C0
4C31E0
8C33F0
0C3770
0C7630
0C7810
0C7000
1C7FFC
1C7FFC
0C3800
ENDCHAR
STARTCHAR uni4F1E
ENCODING 20254
BBX 23 23 1 -2
BITMAP
00C000
00E000
00F000
00F000
01D800
01DC00
038F00
07E780
0E73E0
1C71FC
3876FE
677F00
837C00
037000
007FC0
3FFFE0
1E7000
007000
007000
006000
006000
006000
002000
ENDCHAR
STARTCHAR uni4F1F
ENCODING 20255
BBX 22 23 2 -2
BITMAP
000800
000E00
018F00
03CF00
03C700
0387E0
07BFF0
077FC0
0E0740
0E1FE0
1F3FC0
1F0610
371FF8
67FFFC
87F61C
070638
0706F8
070678
070670
060620
060600
000600
000400
ENDCHAR
STARTCHAR uni4F20
ENCODING 20256
BBX 23 21 2 -1
BITMAP
000C00
030700
038700
038700
038700
0707E0
077FE0
0E7F80
1E0E00
1E0FFC
3FFFFE
77FC00
661DC0
863FE0
061FF0
0E19C0
0E0380
0E0E00
0E0F00
040780
000380
ENDCHAR
STARTCHAR uni4F22
ENCODING 20258
BBX 24 21 1 -1
BITMAP
000030
0301F8
038FF8
03C7C0
0390E0
079CE0
071CE0
0E1CFE
0E3FFF
1E3FE0
1F19E0
3703E0
6707E0
870FE0
071CE0
0738E0
0760E0
0783E0
0701E0
0600E0
0000E0
ENDCHAR
STARTCHAR uni4F24
ENCODING 20260
BBX 20 21 3 -1
BITMAP
000800
030C00
038E00
039E00
079CF0
073FF0
0E3FC0
0E7000
1C6E00
1ECE00
370EE0
663FF0
C6FF70
866C70
061C70
061860
0E38E0
0E34E0
0E63E0
0EC1C0
0401C0
ENDCHAR
STARTCHAR uni4F25
ENCODING 20261
BBX 24 20 1 -1
BITMAP
067080
0738C0
07B9E0
0739E0
0F39C0
0E3B80
1C3E00
1C3860
3E3FF0
2FFFF0
4FFE00
8E3700
0E3380
0E33C0
0E31E0
0E33F8
0E3E7E
1C7C3F
0C7800
043000
ENDCHAR
STARTCHAR uni4F26
ENCODING 20262
BBX 24 20 1 -1
BITMAP
020C00
030E00
038E00
079E00
071E00
0E3F00
0E39C0
1C71E0
1C60F8
3EF07C
6FB9BF
CF39C0
0E3BE0
0E3F00
0E3820
0E3820
0E3870
0C3FF0
0C1FF0
0C07C0
ENDCHAR
STARTCHAR uni4F27
ENCODING 20263
BBX 24 19 1 0
BITMAP
000800
070E00
070E00
071E00
071F00
0E3B80
0C31E0
1C70F0
1CE7FE
3EFFBF
6733C0
463380
8E3F80
0E37A0
0E3320
0E3030
0E3870
0E3FF0
0E1FF0
ENDCHAR
STARTCHAR uni4F2A
ENCODING 20266
BBX 22 20 2 -1
BITMAP
060700
070780
078780
074700
077700
0E7700
0E36F0
1C0FF8
1EFFBC
3EFE38
365C38
661FB8
C61BB8
0E39B0
0E3070
0E7070
0EE670
0EC3F0
0F01E0
0401C0
ENDCHAR
STARTCHAR uni4F2B
ENCODING 20267
BBX 22 20 2 -1
BITMAP
060000
070E00
078F00
070700
0F0300
0E2070
1C7FF8
1C7FFC
3CE070
7EE040
6E6080
8E0000
0E0000
0E0000
0E0030
0E7FFC
0CFFFC
1C7000
1C0000
0C0000
ENDCHAR
STARTCHAR uni4F2F
ENCODING 20271
BBX 22 20 2 -1
BITMAP
018300
01C380
01C380
038700
038600
070DF0
063FF8
0E3C3C
1F3038
1B3038
3337F8
433FF8
833038
073038
073038
0731F8
073FF8
073FF8
073038
030010
ENDCHAR
STARTCHAR uni4F30
ENCODING 20272
BBX 22 19 2 0
BITMAP
020C00
070F00
078F00
078700
070E00
0E0E00
0E0FF8
1DFFFC
1FFE00
360C00
660C00
460FC0
86FFE0
0678F0
0660E0
0E61C0
0E7FE0
0E7FC0
0E3000
ENDCHAR
STARTCHAR uni4F32
ENCODING 20274
BBX 24 19 1 0
BITMAP
030000
0381C0
03FFF0
03BEF0
0738E0
0738E0
0E3FE0
1E3FC0
1E3800
373E30
473738
873778
0736F0
0667C2
066702
064606
06C707
0687FF
0703FE
ENDCHAR
STARTCHAR uni4F34
ENCODING 20276
BBX 23 21 2 -1
BITMAP
000600
060700
070720
078730
070778
0F77E0
0E3780
1C1760
1E1FF0
367FE0
663F00
C60778
863FFC
07FFFE
066700
060600
0E0600
0E0600
0E0600
060600
000200
ENDCHAR
STARTCHAR uni4F36
ENCODING 20278
BBX 24 21 1 -1
BITMAP
000800
030C00
038E00
078E00
079E00
071F00
0E1B80
1E39C0
1C31F0
3E6EFC
7ECE7F
4F8200
8E0380
0EFFC0
0E7FE0
0E0380
0E0700
0E1C00
0E0E00
0E0F00
040700
ENDCHAR
STARTCHAR uni4F38
ENCODING 20280
BBX 22 23 2 -2
BITMAP
000400
030700
038780
038700
038700
070730
0707FC
0E7FFC
1E771C
1E77DC
3F7FF8
773738
4737F8
873FF8
073730
070700
070700
060700
060700
060300
000300
000200
000200
ENDCHAR
STARTCHAR uni4F3A
ENCODING 20282
BBX 21 20 3 -1
BITMAP
030000
038000
0383E0
073FF0
071C78
0E0070
0C3F70
1CFF70
3E0070
360E70
46FF70
866770
066670
067F70
0E7870
0E2070
0E03F0
0E00F0
0C00E0
000040
ENDCHAR
STARTCHAR uni4F3C
ENCODING 20284
BBX 23 19 2 0
BITMAP
020000
030000
038000
079C70
071E78
0E0F38
0E0630
1CE070
1E7070
3E6070
6E6270
CE6C60
8E7CE0
0E78E0
0EF1F8
0EF39C
0E639E
0E0E0E
0C1804
ENDCHAR
STARTCHAR uni4F3D
ENCODING 20285
BBX 26 18 0 0
BITMAP
03200000
03B80000
07380000
07380000
0E380300
0C3EFF80
1EFFFFC0
1FF3E380
3E776380
6E776380
8E676700
0E677F00
0ECE7F00
0ECE3000
0FBE0000
0F1C0000
0E180000
06000000
ENDCHAR
STARTCHAR uni4F43
ENCODING 20291
BBX 23 19 2 0
BITMAP
020000
030000
078000
078000
070010
0F07F8
0FFFFC
1CFF1E
1EE71C
3EE71C
367FFC
667FFC
866738
066738
0E67F8
0E7FF8
0E7FB8
0E6010
060000
ENDCHAR
STARTCHAR uni4F46
ENCODING 20294
BBX 24 20 1 -1
BITMAP
010000
01C000
03C000
03C030
07AFF8
073FFC
0E381C
0E3BB8
1E1FF8
3E1838
3618B8
461FF0
861830
060000
060000
0603FC
06FFFF
0EFE0F
060000
060000
ENDCHAR
STARTCHAR uni4F4D
ENCODING 20301
BBX 22 20 2 -1
BITMAP
041C00
070F00
070F00
070700
070000
0E01C0
0E3FE0
0CFF80
1C0080
1E00C0
3671E0
6639C0
463980
861B00
060230
067FFC
0FFFFC
0E4000
0E0000
040000
ENDCHAR
STARTCHAR uni4F4E
ENCODING 20302
BBX 24 20 1 -1
BITMAP
020000
0301E0
0383E0
078780
070E00
077700
0E7700
0C7378
1E73F8
3E7FC0
6E7F80
CE7180
0E71C0
0E77C0
0E7CE4
0E7E76
0EF7BE
0E639F
0E0187
040000
ENDCHAR
STARTCHAR uni4F4F
ENCODING 20303
BBX 22 20 2 -1
BITMAP
030000
039E00
038F00
078700
070300
0E01E0
0EFFF0
1CFFE0
3E2700
3E0700
6E07E0
8EFFF0
0E7FE0
0C0700
0C0600
0C0600
0C3FF8
1FFFFC
1CF000
0C0000
ENDCHAR
STARTCHAR uni4F50
ENCODING 20304
BBX 22 20 2 -1
BITMAP
000400
070600
070700
078F00
070E60
070FF0
0EFFE0
0E7C00
1C1C00
1E1800
363BE0
263FE0
466700
866380
0EC300
0F8300
0F07F8
0EFFFC
0E7000
040000
ENDCHAR
STARTCHAR uni4F51
ENCODING 20305
BBX 23 19 2 0
BITMAP
040600
060700
070780
070700
0F0E00
0E0E3C
1C1FFE
1FFFFC
3DD800
3C3800
6C7000
CC77E0
8CFFF0
0DB070
0E30F0
0C38E0
1C3FE0
1C3FF0
0C3800
ENDCHAR
STARTCHAR uni4F53
ENCODING 20307
BBX 24 21 1 -1
BITMAP
001000
001C00
030E00
038E00
078E00
070C00
0F0FE0
0FFFE0
1CFE00
1C3F00
3E3D80
6E7DC0
CE6CE0
0ECCF0
0F8F7C
0F7FBF
0E3E00
0E0C00
0E0C00
0C0C00
000C00
ENDCHAR
STARTCHAR uni4F55
ENCODING 20309
BBX 23 21 2 -1
BITMAP
020000
030000
038000
078008
0703FC
0FFFFE
0EFCC0
1C00E0
3C9EE0
3EFFE0
6E67E0
CE6EE0
0E7EE0
0E7CE0
0E20E0
0E00E0
1C00E0
1C00E0
0C07E0
0C01E0
0000C0
ENDCHAR
STARTCHAR uni4F57
ENCODING 20311
BBX 21 19 3 0
BITMAP
043000
071C00
070E00
070E00
0E0400
0E8FF0
1CFFF8
39C0F0
3DE0C0
6DB800
CC3980
8C39C0
0C3B80
0C3700
0C3C20
1C3030
1C3870
1C3FF8
1C1FF0
ENDCHAR
STARTCHAR uni4F58
ENCODING 20312
BBX 24 22 1 -2
BITMAP
004000
007000
00F000
00F000
01F800
01CC00
038F00
070780
0E3BE0
1FFDF8
39E0FF
600180
81FFC0
0FFF80
063800
043F80
0C33C0
0E31C0
0DF0C0
0CF000
007000
004000
ENDCHAR
STARTCHAR uni4F59
ENCODING 20313
BBX 24 22 1 -2
BITMAP
00C000
00E000
00F000
00F000
01D800
03DC00
038F00
070780
0E3BE0
1FFDFC
39F0FF
607380
81FFC0
1FFF80
067000
047F80
0C77C0
1E73C0
1DF1C0
0CF000
007000
006000
ENDCHAR
STARTCHAR uni4F5A
ENCODING 20314
BBX 24 20 1 -1
BITMAP
020600
030780
038700
07A700
073700
0F3FE0
0E77F0
1C7F80
1E6700
36C710
6607FC
47FFFC
8EFF00
0E0F80
0E1DC0
0E1DE0
0E38F0
0E30F8
0E607E
05803F
ENDCHAR
STARTCHAR uni4F5B
ENCODING 20315
BBX 22 23 2 -2
BITMAP
000400
020700
032300
07B300
07BB40
071FF0
0EFFF0
0EFB60
1C1BE0
1DFFE0
3CFB00
6CDB38
4CDFFC
8DFF1C
0DF31C
0DB33C
0C33F8
0C3378
0C6370
0C6200
0CC200
010200
000200
ENDCHAR
STARTCHAR uni4F5C
ENCODING 20316
BBX 22 23 2 -2
BITMAP
000400
020600
030700
038700
038F00
078E10
071DFC
0E1FFC
1E3F00
1E3700
3E6770
66C7F8
C607E0
060700
060718
0607FC
0607FC
060700
0E0700
060700
060700
000700
000700
ENDCHAR
STARTCHAR uni4F5D
ENCODING 20317
BBX 21 20 3 -1
BITMAP
000C00
070E00
078E00
071C00
071C40
0E3FF0
1C3FF0
1C4078
3E8470
36FE70
46FF70
866E70
0E6E70
0E7E70
0E6060
0E00E0
0E07E0
0E03E0
0E01C0
000180
ENDCHAR
STARTCHAR uni4F5E
ENCODING 20318
BBX 24 21 1 -1
BITMAP
020000
030180
03BFC0
03BF00
078000
070070
0E1FF8
0EFF80
1E0C00
1E0E00
361DFE
667FFF
87FFC2
061980
063380
063F00
061F00
0E1FE0
0E7BF0
0FC0F0
060070
ENDCHAR
STARTCHAR uni4F5F
ENCODING 20319
BBX 25 21 0 -1
BITMAP
00040000
01060000
018F0000
03CE0000
038FE000
039FE000
073CE000
073DC000
0E478000
1E078000
1E0FC000
361DF800
6638FF00
86677F80
06838000
07038000
07018000
070C0000
06078000
0603C000
06018000
ENDCHAR
STARTCHAR uni4F60
ENCODING 20320
BBX 22 20 2 -1
BITMAP
010600
018700
03C700
03CF00
038E00
070DF0
071FF8
0E1B3C
1E3C60
1F4700
370700
472740
876770
07E73C
06E73C
06E71C
0E3708
0E1F00
060F00
000600
ENDCHAR
STARTCHAR uni4F63
ENCODING 20323
BBX 21 20 3 -1
BITMAP
060000
070000
070060
079FF0
0EFF78
0EEE70
1CEE70
1CE7F0
3CFFF0
7EE670
4EE670
8EFFF0
0CFFF0
0CC670
0CC670
0C8670
0D87F0
0D04F0
040460
000040
ENDCHAR
STARTCHAR uni4F64
ENCODING 20324
BBX 22 20 2 -1
BITMAP
040040
0603F0
07FFF0
0FFC00
0E3800
1C3980
1C3FC0
383FC0
3C31C0
6C31C0
CC3FC0
0C77C0
1C77C0
1C71C0
1C61C8
1C6EEC
1CF8FC
1CF07C
0CC01C
000004
ENDCHAR
STARTCHAR uni4F65
ENCODING 20325
BBX 21 19 2 0
BITMAP
018000
01C000
01E000
01E000
01F000
03B800
073C00
061F00
0C1FC0
1FFFF0
33F3F8
621C00
81DE00
0EDC00
07DC00
071800
023600
07FF80
1FFF80
ENDCHAR
STARTCHAR uni4F67
ENCODING 20327
BBX 22 21 2 -1
BITMAP
021800
031C00
038E00
078E00
070FE0
0F0FC0
0E0C00
1C0C10
1C1FFC
3FFFFC
6EDC00
CE1C00
0E0C00
0E0FE0
0E0CE0
0E0C60
0E0C20
0E1C00
0E1C00
0E1C00
000C00
ENDCHAR
STARTCHAR uni4F69
ENCODING 20329
BBX 24 18 1 0
BITMAP
030040
0783F0
07FFF0
07F870
0EE170
0CFFE0
1CFE60
1CE660
3CCFE0
6CFFF0
8CD7B0
0CD7B0
0CD7B2
0CD7BA
0D879A
0D861E
0D040F
0C0407
ENDCHAR
STARTCHAR uni4F6C
ENCODING 20332
BBX 22 20 2 -1
BITMAP
001800
031C00
071E00
079C60
071CF0
0E1FE0
0EFFC0
1C6DC0
1C0FFC
367FFC
67FE00
861C80
0638E0
0E7DE0
0EDB90
0F9E10
0C1830
0C1C78
0C1FF8
0007E0
ENDCHAR
STARTCHAR uni4F6F
ENCODING 20335
BBX 22 23 2 -2
BITMAP
000040
0200E0
0330E0
03B8C0
079980
070900
0703E0
0E7FE0
0C3E00
1E07E0
3E7FE0
363F80
460710
863FFC
06FFFC
066700
0E0700
0E0700
0E0700
0E0700
060600
000600
000200
ENDCHAR
STARTCHAR uni4F70
ENCODING 20336
BBX 22 20 2 -1
BITMAP
010000
018000
03C078
03FFFC
077F00
070700
0E0E00
0E4FF0
1F7FF0
3F3870
373070
473770
873F70
073070
073070
073370
073FF0
073870
060060
020000
ENDCHAR
STARTCHAR uni4F73
ENCODING 20339
BBX 22 21 2 -1
BITMAP
000400
010700
018780
03C700
03C700
0387F0
073FF0
0F1F80
0E0300
1F07F8
3FFFFC
377F00
670700
870FE0
077FF0
071F00
070700
0707F8
07FFFC
07FFFC
060000
ENDCHAR
STARTCHAR uni4F74
ENCODING 20340
BBX 22 20 2 -1
BITMAP
030000
070040
078FF0
077FF0
0E39C0
0E19C0
1C1FC0
3C1FC0
3C19C0
6C1FC0
CC1FC0
0C19D8
0C1FFC
0DFFFC
0CC1C0
0C01C0
0C01C0
0C01C0
0C01C0
0000C0
ENDCHAR
STARTCHAR uni4F76
ENCODING 20342
BBX 21 20 3 -1
BITMAP
001800
061E00
070E00
0F0E00
0E0E00
1C0EF0
1CFFF8
3BFF80
380C00
6C0F80
4CFFC0
8C7C00
1C0180
1CFFC0
1CFDE0
1C61C0
1C61C0
1C7FC0
1C7F00
082000
ENDCHAR
STARTCHAR uni4F7B
ENCODING 20347
BBX 23 19 2 0
BITMAP
040000
060600
070700
076780
0E7B80
0E3B70
1C3B70
19BB60
3DFBC0
6CF380
4C3300
8C73E0
0FF3F0
0FF370
0D7328
1C630C
1CC38E
1D83FE
0E01FC
ENDCHAR
STARTCHAR uni4F7C
ENCODING 20348
BBX 24 19 1 0
BITMAP
001C00
020E00
030600
070240
071FF0
0EFFE0
0E3000
1C31E0
1C38E0
3E7260
6E43A0
CEF380
0E3F00
0E1F00
0E0F00
0E1F80
0E3BE0
0E61F8
0D80FF
ENDCHAR
STARTCHAR uni4F7E
ENCODING 20350
BBX 24 20 1 -1
BITMAP
010000
018700
03C380
039980
07BDC0
0738E0
0E70F8
0E61FE
1EFFFF
3F38C0
3630C0
463EC0
8638C0
0636C0
063EC0
0630C0
0637C0
0E33C0
0631C0
000080
ENDCHAR
STARTCHAR uni4F7F
ENCODING 20351
BBX 24 21 1 -1
BITMAP
000800
000E00
070700
038700
078740
071FE0
0F7FC0
0E3F40
1C0FF0
1EFFF0
3E6670
7E67E0
6E3FF0
8EFE00
0E7E00
0E1E00
0E1F00
0E3FC0
1C73F0
0DC1FF
06007C
ENDCHAR
STARTCHAR uni4F83
ENCODING 20355
BBX 24 20 1 -1
BITMAP
060000
0781E0
07FFF0
0F7CF0
0E60F0
1C60E0
1C60E0
3E7FE0
363F00
662880
8676E0
0636E0
0676E0
0E76E2
0E66E2
0E66E6
0EC6E7
0E86FF
0F067E
040000
ENDCHAR
STARTCHAR uni4F84
ENCODING 20356
BBX 24 20 1 -1
BITMAP
018000
01C010
01E1FC
01DFFC
03CFC0
078380
070730
0E0C3C
0F3FFC
1B3F9C
331FC0
6301C0
8307F0
031FF8
030F80
070180
0703FE
077FFF
073E07
020000
ENDCHAR
STARTCHAR uni4F88
ENCODING 20360
BBX 20 22 3 -2
BITMAP
000600
030700
038E00
079FE0
071FE0
0F31C0
0E7F80
1C8F00
1C0F00
3E1F80
7637E0
C6CFF0
8E1DF0
0E38F0
0E6FE0
0E87C0
0E0380
0E0700
0E0E00
043800
006000
018000
ENDCHAR
STARTCHAR uni4F89
ENCODING 20361
BBX 24 23 1 -2
BITMAP
000400
000600
060700
070700
078FF0
077FF0
0E3F80
0E1CC0
1C38F0
1E37FC
367FBF
668060
473FF0
867FC0
061C00
0E1FC0
0E3FE0
0E19E0
0E01C0
0E01C0
0E0FC0
000780
000380
ENDCHAR
STARTCHAR uni4F8B
ENCODING 20363
BBX 22 20 2 -1
BITMAP
018030
01C038
03C03C
039F1C
077F18
073918
0E39D8
0E3CD8
1E7ED8
367ED8
66CDD8
877DD8
0639D8
0638D8
067018
0E6018
0E80F8
070078
060038
000030
ENDCHAR
STARTCHAR uni4F8D
ENCODING 20365
BBX 23 22 1 -2
BITMAP
000300
020380
038380
038380
0383F0
071FF0
071F80
0E039C
0E07FE
1EFFFE
1E78E0
3600F8
46FFFC
867FC0
061CC0
060EC0
0606C0
0600E0
0E04E0
0603E0
0001C0
000180
ENDCHAR
STARTCHAR uni4F8F
ENCODING 20367
BBX 24 22 1 -2
BITMAP
000800
000E00
020E00
030E00
07EE00
077E80
0E7FE0
0EFFE0
1CCE00
1C8EE0
3EFFF8
6FFF00
8E1F00
0E3F80
0E7FC0
0EEEF0
0ECE7C
0F0E3F
0C0E00
0C0E00
000E00
000400
ENDCHAR
STARTCHAR uni4F91
ENCODING 20369
BBX 22 20 2 -1
BITMAP
010700
018700
03C738
0387FC
077FF8
077C00
0E1800
1F3FF0
1B3FF8
334C70
478FF0
870FF0
070C70
070FF0
070C70
070C70
061C70
060DF0
020CF0
000060
ENDCHAR
STARTCHAR uni4F94
ENCODING 20372
BBX 22 21 2 -1
BITMAP
000800
060E00
070E00
071D00
0718C0
0E37E0
0EFF70
0C7420
1C2700
3C3680
367FC0
667F00
C68600
0E3FFC
0FFFFC
0E0600
0C0600
0C0600
0C0600
0C0600
000400
ENDCHAR
STARTCHAR uni4F97
ENCODING 20375
BBX 21 20 3 -1
BITMAP
020000
030000
078040
078FF0
0F7F38
0E6038
1C67B0
1C7FB0
3C6030
3E73B0
6E7FB0
8E69B0
0E6FB0
0C6FB0
0C6830
0C6038
0CE1F8
0C60F8
0C0070
000020
ENDCHAR
STARTCHAR uni4F9B
ENCODING 20379
BBX 24 20 1 -1
BITMAP
0200C0
0300E0
03B8E0
079CE0
071CE0
071CF8
0E7FF8
0E7FF8
1E2CC0
3E0CC0
260DFE
47FFFF
86FFFF
061880
061EE0
0E1E70
0E3878
0E7038
0EC018
070000
ENDCHAR
STARTCHAR uni4F9D
ENCODING 20381
BBX 25 20 0 -1
BITMAP
011E0000
018F0000
03C70000
03810000
0380F000
07FFF800
067E0000
0E0E3000
0E0E3800
1F1E7800
373BE000
673B8000
8779C000
0798F000
0719FC00
071E7F00
073C3F80
073C0000
06380000
02100000
ENDCHAR
STARTCHAR uni4FA0
ENCODING 20384
BBX 23 20 1 -1
BITMAP
020C00
030F00
038F00
078600
0707E0
0E7FE0
0E7E00
1C0EE0
1E6EE0
3E7EC0
6E2FF0
CE7FF8
0FFF80
0E9F00
0E1F80
0E3BC0
0E31E0
0E60F0
0CC07C
05003E
ENDCHAR
STARTCHAR uni4FA3
ENCODING 20387
BBX 21 21 3 -1
BITMAP
040000
070000
0700C0
07FFE0
073FF0
0E30E0
0E38E0
1C38C0
1C1FE0
3C1F80
3E1800
6E0000
CEE7F0
8E7FF8
0E7C78
0E7070
0E7070
0E77F0
0E3FF0
0C3C00
0C1000
ENDCHAR
STARTCHAR uni4FA5
ENCODING 20389
BBX 24 21 1 -1
BITMAP
003000
019C00
03DC00
03CDF0
038FC0
039F60
077FF0
0773E8
0E03CC
1E07FC
1F1EFC
3771FE
671FE0
877F80
073B80
073F84
073B04
077386
07E38E
0783FF
0201FE
ENDCHAR
STARTCHAR uni4FA6
ENCODING 20390
BBX 21 21 3 -1
BITMAP
021C00
038E00
038E20
038FF0
070FF0
070E00
0E0E40
0E7FF0
1E7FF0
3E7070
767670
467770
867770
067770
067770
067670
062E60
0E0DE0
0E1CF0
0E7078
06C030
ENDCHAR
STARTCHAR uni4FA7
ENCODING 20391
BBX 21 20 3 -1
BITMAP
060040
070070
070038
0F7C38
0FFE30
1D8730
18A7F0
3CB5B0
3CB5B0
6CB5B0
CDB5B0
8DBDB0
0DBCB0
0CE430
0C7C30
0CCE38
1C8FF8
0D00F8
0C0070
000020
ENDCHAR
STARTCHAR uni4FA8
ENCODING 20392
BBX 24 22 1 -2
BITMAP
060780
070FC0
073F00
0FFC00
0E1CE0
0E1FF0
1FFF80
3DFB80
3C33C0
6C71F0
4CF3FE
8DFBFF
0F3980
0C3980
0C3180
0C7180
0C7180
1C6180
0CC180
050180
000180
000100
ENDCHAR
STARTCHAR uni4FA9
ENCODING 20393
BBX 24 20 1 -1
BITMAP
020800
030E00
038E00
079E00
071F00
063980
0E31E0
0C60F0
1EC37C
3EBFBF
371E00
4600E0
86FFF0
06FC00
0E1D00
0E31C0
0E67E0
0EFCE0
0EE060
040000
ENDCHAR
STARTCHAR uni4FAA
ENCODING 20394
BBX 22 21 2 -1
BITMAP
003800
061C00
070C00
0701C0
0E7FE0
0EFF00
1C4780
183F00
3C0E00
6C3F80
CC73F0
8DF3FC
0E3380
0C3380
0C3380
0C7380
1C6380
1CC300
0D8300
0C0300
000100
ENDCHAR
STARTCHAR uni4FAC
ENCODING 20396
BBX 24 20 1 -1
BITMAP
000E00
060700
070700
078E00
074FF0
0EFFF8
0ECCE0
1DDD00
1CD860
3E3C70
6E36E0
4E7380
8E7B80
0CF9C0
0D39F0
0E30F8
0C3E7F
0C7C3E
0C3800
043000
ENDCHAR
STARTCHAR uni4FAE
ENCODING 20398
BBX 24 21 1 -1
BITMAP
000800
030C00
038E00
039CF8
079FF8
071F80
0E3060
0E7FF0
1E1F78
3E1F70
361BFE
663FFF
87FF70
06FB70
0E33F0
0E7FFC
0E7FFC
0E00E4
0E03E0
0601E0
0001C0
ENDCHAR
STARTCHAR uni4FAF
ENCODING 20399
BBX 24 20 1 -1
BITMAP
030080
038FC0
039FE0
0399C0
0701F8
071FF8
0EFF00
0E5C00
1E1DC0
3E3FE0
363F00
666710
8687FC
07FFFC
06FF00
060F80
0E1DC0
0E18F0
0E30FC
06C07F
ENDCHAR
STARTCHAR uni4FB5
ENCODING 20405
BBX 24 20 1 -1
BITMAP
0707C0
077FE0
0790E0
071FC0
0E3DC0
0E07C0
1C7F80
1E00F8
3EFFFC
3EFE3C
4FC7E0
8FFF80
0F9380
0E3B80
0E1F00
0E0F00
0E1FC0
0E3BF0
0EE1FF
040078
ENDCHAR
STARTCHAR uni4FBF
ENCODING 20415
BBX 25 20 0 -1
BITMAP
0180E000
01CFF000
03DF8000
03C78000
0383F800
077FFC00
0F7BB800
0F33F800
1F3FB800
1B3BF000
331FF000
437F3000
837B0000
031F0000
030F0000
0307C000
070FF000
073DFF80
07607F00
03801000
ENDCHAR
STARTCHAR uni4FC3
ENCODING 20419
BBX 25 20 0 -1
BITMAP
01800000
01C0F000
01FFF800
03DF7800
039C7000
071C7000
070FF000
0F0FC000
0F0F8000
1B11B000
331DF800
631DF000
83398000
033D8000
03378000
0373C000
0363F000
0780FF00
03007F80
00001800
ENDCHAR
STARTCHAR uni4FC4
ENCODING 20420
BBX 22 22 2 -2
BITMAP
001C00
000E00
060E00
070F80
072EE0
0E7EE0
0EF660
1DE7C0
1F7FC0
3C7F40
3DFF60
6DE3E0
CC7FE0
0C73C0
0DF380
0FF780
0DFDC8
0C70E8
1CF0FC
1C707C
0C603C
00000C
ENDCHAR
STARTCHAR uni4FC5
ENCODING 20421
BBX 24 20 1 -1
BITMAP
001C00
030FC0
078EE0
078E60
070EC0
0E1FE0
1CFF40
1C2E60
3E0EE0
3EEF80
6E6F80
8E3FC0
0E3EF0
0EEEF8
0FCE7F
0ECE3C
0C0E00
0C3E00
0C1E00
000C00
ENDCHAR
STARTCHAR uni4FCA
ENCODING 20426
BBX 24 20 1 -1
BITMAP
020600
038F00
038E00
038EE0
071CF0
073FF0
0E7E30
0E39C0
1E38F0
3E3C70
267EA0
466FE0
869EE0
061DC0
063780
066780
0EC7C0
0E0FF8
0E38FF
06C030
ENDCHAR
STARTCHAR uni4FCE
ENCODING 20430
BBX 24 18 1 0
BITMAP
060000
0713E0
071FF0
0E1C70
0FCC70
1DEFF0
187FF0
302F70
660C70
070C70
0F0FF0
0E0FF0
0DCC70
1DEC70
18EC7C
300FFF
607FFF
802000
ENDCHAR
STARTCHAR uni4FCF
ENCODING 20431
BBX 22 22 2 -2
BITMAP
000600
030390
038398
03C3BC
03B3B8
07BBE0
071B80
0E2BF0
0E3FF8
1E1E38
1F18B8
371FF8
671FB8
8738B8
073FF8
073FB8
073838
063838
0E39F8
0E30F8
061070
000020
ENDCHAR
STARTCHAR uni4FD0
ENCODING 20432
BBX 22 20 2 -1
BITMAP
020038
038E1C
038F1C
079E1C
07781C
0EDDDC
0E1EDC
1E3FDC
1FFCDC
36F8DC
663EDC
C67FDC
067BDC
06D81C
07981C
0E181C
0E187C
0E183C
061818
000010
ENDCHAR
STARTCHAR uni4FD1
ENCODING 20433
BBX 20 20 3 -1
BITMAP
0207E0
037EF0
07B8F0
070180
0E0F00
0E0760
1C5FF0
1E7FF0
3E6770
3667F0
467FF0
866670
0667F0
067FF0
0E6670
0E6670
0E67F0
0E66F0
062470
000060
ENDCHAR
STARTCHAR uni4FD7
ENCODING 20439
BBX 24 20 1 -1
BITMAP
030000
03B3C0
07B9E0
0738E0
077C00
0E4E00
0C8E00
1F1F00
1E1F80
3639C0
6670F0
C6607C
06C7BF
077FC0
0E71C0
0E31C0
0E3780
0E3FC0
0E3000
041000
ENDCHAR
STARTCHAR uni4FD8
ENCODING 20440
BBX 24 23 1 -2
BITMAP
000080
0381C0
0387E0
03DF20
03AE38
076778
073BF0
0E38C0
0C19C0
1E3FE0
363CF0
2617C0
4603FE
863FFF
07FFFC
06E180
0E0180
0E0180
0E0180
0E1B80
060F80
000780
000300
ENDCHAR
STARTCHAR uni4FDA
ENCODING 20442
BBX 23 19 2 0
BITMAP
040000
0707F0
077FF8
077738
0E7738
0E7FF0
1C3F70
1C3770
3C3FF0
3C3F60
6C3720
CC06C0
0C3FE0
0C3FE0
0C0600
0C0678
1DFFFC
1DFFFE
0C0000
ENDCHAR
STARTCHAR uni4FDC
ENCODING 20444
BBX 22 23 2 -2
BITMAP
000C00
000700
060700
070600
0787F0
077F70
0E6770
0E7FE0
1C3660
3C3FE0
363CD8
6637FC
C7FFFC
06FE00
0E1F80
0E3FC0
0E39E0
0E11C0
0E01C0
0E01C0
0C0FC0
000780
000300
ENDCHAR
STARTCHAR uni4FDD
ENCODING 20445
BBX 24 20 1 -1
BITMAP
020180
077FE0
07FDE0
0731C0
0E31C0
0E3FC0
1C3E00
1C1E30
3E0FF8
37FFFC
67FE00
861F80
0E3FC0
0E7EE0
0E6EF8
0ECE7F
0F0E3C
0E0E00
0E0E00
000400
ENDCHAR
STARTCHAR uni4FDE
ENCODING 20446
BBX 22 22 2 -2
BITMAP
018000
01C000
01C000
03E000
03B000
073C00
0E1E00
0E7F80
1FF7E0
3183FC
610680
9F8700
19F700
1FBF00
1FB700
19B700
1FB700
199700
1D8700
3B9F00
318E00
110600
ENDCHAR
STARTCHAR uni4FDF
ENCODING 20447
BBX 24 20 1 -1
BITMAP
020600
030700
038E00
078C80
0718E0
0F3FF0
0E7E60
1C3820
1E18C0
363FE0
263F80
466700
8687F8
07FFF8
06FF00
0E1F80
0E19C0
0E30F0
0E607E
07803D
ENDCHAR
STARTCHAR uni4FE1
ENCODING 20449
BBX 23 20 2 -1
BITMAP
030F00
03C780
03C380
038138
070FFC
0EFFFE
0E6000
1E1FC0
3E1FE0
360000
660FC0
863FE0
060000
0677E0
0E3FF0
0E38F0
0E38E0
0E3FE0
0E1FE0
061800
ENDCHAR
STARTCHAR uni4FE3
ENCODING 20451
BBX 24 19 1 0
BITMAP
0000C0
01BFF0
03BCF0
03F8E0
039FE0
071FC0
0E1800
0E1FE0
1E3FE0
3E0E00
360FF8
46FFFC
86FF00
061F80
061980
0E39E0
0E70F0
0EE0FC
0F807F
ENDCHAR
STARTCHAR uni4FE6
ENCODING 20454
BBX 23 22 1 -2
BITMAP
000200
030380
038380
03C3F0
03BFF0
071F00
0707E0
0E7FE0
1C3E1C
1E0FFE
37FFE0
66F8F0
4639FC
863FFE
0E64E0
0ECEE0
0F86E0
0E02E0
0E03E0
0E01E0
0401C0
000080
ENDCHAR
STARTCHAR uni4FE8
ENCODING 20456
BBX 24 21 1 -2
BITMAP
018010
01C7FC
01DFF0
03C374
038377
073B6E
071B6C
0E0B68
1F037E
1B3FFF
333F00
631800
C71800
073800
073800
073800
073000
077000
076000
074000
028000
ENDCHAR
STARTCHAR uni4FE9
ENCODING 20457
BBX 22 20 2 -1
BITMAP
020000
038000
038060
079FF8
07FFF0
0E7DC0
0E0DC0
1C0DF8
1FBFFC
3EFF9C
76D99C
46DD9C
8EDFFC
0EF7FC
0EE37C
0EC61C
0EC4F8
0EC078
0E0038
000030
ENDCHAR
STARTCHAR uni4FEA
ENCODING 20458
BBX 23 19 2 0
BITMAP
020000
030000
038008
0783FE
07FFF8
0F7800
0E0018
1CDDFC
1EFFDC
36CFDC
66CDDC
C6FDFC
06DDBC
06CD8C
06CD8C
0ECD8C
0EFDBC
0ECC9C
0E0818
ENDCHAR
STARTCHAR uni4FED
ENCODING 20461
BBX 25 20 1 -1
BITMAP
038E0000
03CF0000
03CE0000
078F0000
071D8000
0F1DC000
0E38E000
1C30F800
3E7FFE00
36DFBF80
67008000
860CE000
06EEE000
0677C000
0E778000
0E318000
0E03F000
0FFFF800
0EFE1800
06000000
ENDCHAR
STARTCHAR uni4FEE
ENCODING 20462
BBX 25 22 1 -2
BITMAP
040C0000
060E0000
070FC000
071FE000
0F1DC000
0E39C000
0C2F8000
1DC78000
1D8FE000
3D9FFC00
7DBF7F80
6DEF3000
8D8D0000
0D9B8000
0DA78000
0DCEE000
0C1DE000
1C33C000
1C478000
0C0E0000
003C0000
00E00000
ENDCHAR
STARTCHAR uni4FEF
ENCODING 20463
BBX 23 21 1 -1
BITMAP
000E00
030F00
038700
078300
0701F0
07DFF0
0E7FC0
0E6CF0
1C6E70
1E6E74
366CFE
667FF8
C6F870
06FE70
0EDBF0
0ED9F0
0F9870
0D9870
0D19F0
0E18F0
000060
ENDCHAR
STARTCHAR uni4FF1
ENCODING 20465
BBX 23 19 2 0
BITMAP
040000
070380
077FC0
0F7FE0
0E75C0
0C7FC0
1C79C0
3C77C0
3C7FC0
6C71C0
CC7FC0
0C79C0
0C7FFC
0FFFFE
0DE000
1C79E0
1C78F0
1CE0F0
0D8070
ENDCHAR
STARTCHAR uni4FF3
ENCODING 20467
BBX 24 20 1 -1
BITMAP
0301C0
0380E0
03DCE0
038EE0
070EE8
060CFC
0E7CFC
1E3CE0
1E0CFC
367CFC
667CE0
860CE0
063CFE
067CFF
0E2CE0
0E0CE0
0E0CE0
0E0CE0
0400C0
000040
ENDCHAR
STARTCHAR uni4FF8
ENCODING 20472
BBX 25 23 1 -2
BITMAP
000C0000
030E0000
038F0000
038FE000
07FFE000
073E0000
0E1FC000
0E3F2000
1C1FF000
1EFF8000
367CC000
6637E000
C6677800
067FFE00
06DF1F80
0F07E000
0E7FF000
0E3E0000
0E060000
0E060000
04060000
00060000
00020000
ENDCHAR
STARTCHAR uni4FFA
ENCODING 20474
BBX 24 21 1 -1
BITMAP
000C00
030E00
038E00
038C00
071DE0
071FE0
0EFF80
0E7980
1E3DC0
1E6EF0
36EE7C
66DFFF
877CE0
0E6FE0
0E7EC0
0E6FD0
0E7FD0
0E2C18
0E0E38
0C07F8
0003F0
ENDCHAR
STARTCHAR uni4FFE
ENCODING 20478
BBX 22 23 2 -2
BITMAP
000400
060600
070F00
078E00
071840
0FFFF0
0EFF70
1C67F0
1C7FE0
3C6EE0
7C3FE0
4C3CC0
8C1F00
0C3700
0C6FFC
0DFFFC
0CF300
1C0300
1C0300
1C0300
0C0300
000300
000200
ENDCHAR
STARTCHAR uni500C
ENCODING 20492
BBX 22 20 1 -1
BITMAP
030780
038380
038100
07A7FC
077FDC
0E6038
0EE0C0
1C7FE0
3E1EE0
361CC0
661FC0
C61FE0
061C00
061DE0
061FF0
0E1CF0
0E1CE0
0E1FF0
0E1FE0
060800
ENDCHAR
STARTCHAR uni500D
ENCODING 20493
BBX 22 21 2 -1
BITMAP
001800
031E00
030F00
078700
0700C0
073FE0
0EFF80
1E61C0
1C71C0
3E3B80
3E1A38
667FFC
87FFFC
0EC000
0E4FC0
0E7FE0
0E61E0
0E71C0
0E33C0
0E3FC0
043000
ENDCHAR
STARTCHAR uni500F
ENCODING 20495
BBX 23 20 2 -1
BITMAP
000C00
060E00
0F1D80
0F3FC0
0E3380
1C5F00
1C0E00
399F80
3DBBF0
6DDCFE
4D8FFC
8D8D80
0D8CE0
0DFFE0
0DFC00
0C1B00
0C39E0
1C70F0
1CC070
0D0020
ENDCHAR
STARTCHAR uni5012
ENCODING 20498
BBX 23 21 0 -1
BITMAP
020000
030018
03801C
038F1E
07FF1C
07781C
0E3CDC
0E3EEC
1E67EC
3EFBEC
36F8EC
661EEC
86FEEC
06784C
061F9C
0FFE1C
0FF81C
0EE0DC
0E007C
04003C
000038
ENDCHAR
STARTCHAR uni5014
ENCODING 20500
BBX 23 20 0 -1
BITMAP
0300F0
03AFF8
03BE78
07B870
0738F0
0E3FF0
0E3100
1C31D8
3C3EEC
3636EC
4676EC
867FFC
066FC8
0E68C8
0ECCCC
0ECCCC
0F8DFC
0F1FFE
0E1E0E
040004
ENDCHAR
STARTCHAR uni5018
ENCODING 20504
BBX 22 20 1 -1
BITMAP
001C00
060E00
070E00
070E70
0E0EF0
0FEEE0
1CFF80
187E00
3C0EF8
6F3FFC
CDFF1C
8DC79C
0DFFDC
0DDB9C
1DDF98
1DDFB8
1DD8F8
1DC078
1CC038
080030
ENDCHAR
STARTCHAR uni5019
ENCODING 20505
BBX 24 19 1 0
BITMAP
040000
0707C0
07BFC0
0719C0
0703F8
0E7FF8
0F7C00
1DCE00
1FDDE0
3FDFE0
7FF700
4FE770
8FFFFC
0FBF80
0E8780
0E0FC0
0E1CF0
0E38F8
0E607F
ENDCHAR
STARTCHAR uni501A
ENCODING 20506
BBX 23 23 2 -3
BITMAP
000C00
020E00
030E00
078E00
078FC0
077FC0
0E7C00
0E1F80
1C33C0
1C3180
3E47FC
7FFFFE
4FF9C0
8E0DC0
0EFFC0
0EEDC0
0E6DC0
0E7DC0
0E61C0
0E21C0
0E07C0
0C03C0
000180
ENDCHAR
STARTCHAR uni501C
ENCODING 20508
BBX 21 20 1 -1
BITMAP
030000
038000
0383F0
07BFF8
073B38
073BB8
0E3FF8
1C3F38
1E33F8
363FF8
663438
C633B8
067FF8
066DF8
0E6FF8
0E6438
0EC0F8
0E8078
0F0070
040020
ENDCHAR
STARTCHAR uni501F
ENCODING 20511
BBX 24 22 1 -2
BITMAP
000180
0301C0
0399C0
03DDC0
039DF0
079FF8
077FC0
0E3DC0
0E0DCC
1F0FFF
1BFFFF
33E040
631FE0
831FF0
071860
071FE0
071F60
071860
071FE0
071FE0
021860
000860
ENDCHAR
STARTCHAR uni5021
ENCODING 20513
BBX 22 19 1 0
BITMAP
030000
0387E0
03FFF0
073070
073FF0
0E3EE0
0E37E0
1E1FE0
3E1840
3603F8
66FFFC
86783C
0663BC
067FF8
066C38
0670B8
0E7FF8
0E7FF0
063030
ENDCHAR
STARTCHAR uni5025
ENCODING 20517
BBX 23 19 1 0
BITMAP
030700
038780
038380
038190
0763FC
07FFDE
0EE01C
0CFCE0
1E1CF0
361878
663030
C661C0
06BFE0
061F00
060380
0E0300
0E07F8
0EFFFC
0E7800
ENDCHAR
STARTCHAR uni5026
ENCODING 20518
BBX 25 22 0 -2
BITMAP
000C0000
00070000
03076000
03077000
07F6E000
07378000
0737E000
0E7FE000
0E7E7000
1E0FF800
1FFFE000
36FDC000
6638E000
8637F800
067FFF00
0ED99F80
0F9FA000
0E1BA000
0E1B7000
0E1FF000
040FF000
00078000
ENDCHAR
STARTCHAR uni5028
ENCODING 20520
BBX 23 19 1 0
BITMAP
000060
033FF0
03BFF0
07B8F0
0738F0
0E3FF0
0E3D80
1C39C0
3E31FE
363FFE
663F80
867180
0673F8
0E7FF8
0ECC78
0E8C70
0F0FF0
0E0FF0
040E00
ENDCHAR
STARTCHAR uni5029
ENCODING 20521
BBX 23 22 1 -2
BITMAP
000E00
030700
038700
0387E0
03FFC0
073FC0
0E1FE0
0E3F08
1E07FC
3EFFFE
36F000
461FE0
861EE0
061BE0
061F60
061860
061FE0
0E1E60
0E1AE0
0619E0
0018E0
000040
ENDCHAR
STARTCHAR uni502A
ENCODING 20522
BBX 24 21 1 -1
BITMAP
020400
038700
038700
038E00
078FF8
0771B8
0E6038
0E7DF8
1E7CB8
1E30F0
363FF0
663D30
8639C0
061DC0
061D80
061982
063982
0E3186
0E61CF
0EC1FF
0600FE
ENDCHAR
STARTCHAR uni502C
ENCODING 20524
BBX 23 22 1 -2
BITMAP
000700
030700
0387E0
0787E0
070700
0E47F0
0E7FF8
1C3178
1E3FF0
363070
663FE0
C63F60
061700
060FFC
0EFFFE
0E6700
0E0700
0E0700
0E0300
0C0300
000200
000200
ENDCHAR
STARTCHAR uni502D
ENCODING 20525
BBX 23 21 2 -1
BITMAP
000200
060780
070F80
071E00
077E00
0E0FE0
0EFFF0
1C7F00
1C1F80
3C3FE0
6C66FC
CCCC7A
8D8E00
0C1FFC
0FFFFE
0C9B80
1C3F00
1C0FC0
1C1FE0
1CF0F0
010030
ENDCHAR
STARTCHAR uni502E
ENCODING 20526
BBX 25 21 0 -1
BITMAP
03000000
0381F000
03FFF800
03FF3800
0737F800
073F7000
0E37F000
0C3FF000
1E3F6000
1F133000
373FFC00
67FFF800
860FC000
061FE000
063F7800
06777E00
06E73F80
0F870000
0E070000
06070000
00030000
ENDCHAR
STARTCHAR uni503A
ENCODING 20538
BBX 22 24 2 -3
BITMAP
000C00
040E00
070F00
070E00
070FC0
077FC0
0E3680
0E7FC0
1C3E38
3C1FFC
3FFFFC
6DC780
CC7FC0
0C79E0
0C7EC0
0C7EC0
0C7EC0
0C7EC0
0C6CC0
1C1F80
1C39E0
0C70E0
01C060
000020
ENDCHAR
STARTCHAR uni503C
ENCODING 20540
BBX 22 21 2 -1
BITMAP
000C00
060F00
070700
078F00
070FE0
0EFFE0
0E7C00
1C0C00
3C4FC0
3C7FE0
6C77E0
CC7FC0
0C31C0
0C3FC0
0C3FC0
0C37C0
1C3FC0
1C31C0
1C77FC
1FFFFC
0DC000
ENDCHAR
STARTCHAR uni503E
ENCODING 20542
BBX 22 20 1 -1
BITMAP
070000
0780FC
071FFC
070F80
0FC380
0FC320
1DCBF0
1DEFF8
3CFC38
6CCDB8
4DCDF8
8DFDF8
0DEDB8
0FEDB8
0FCFB8
0E8BD0
0C0770
0C0E78
0C1C3C
043018
ENDCHAR
STARTCHAR uni5043
ENCODING 20547
BBX 22 19 1 0
BITMAP
020000
030020
0707F8
077FF0
077040
0E37E0
0E37E0
1C36E0
1C3380
363198
2637FC
463F60
8677C0
0671F0
067730
0E68F8
0E7FFC
0E7C00
060000
ENDCHAR
STARTCHAR uni5047
ENCODING 20551
BBX 24 19 1 0
BITMAP
060000
070060
073FF0
0FFFF0
0EDCE0
0ED8E0
1CFFF0
1CFBC0
3CC0C0
7CD3E0
6CFFE0
CCFCE0
0CC7E0
0CFBC0
0CF9C0
0CC3F0
0CC6F8
0DDC7F
0CC018
ENDCHAR
STARTCHAR uni5048
ENCODING 20552
BBX 22 20 1 -1
BITMAP
0203E0
037FF0
07B2F0
073FE0
0F31E0
0E3FE0
1C18C0
1C1DF0
3E3FF8
66243C
C6E638
066F38
0E69F8
0E73B8
0EFFF0
0EF870
0E43F0
0E01F0
0E00E0
0000C0
ENDCHAR
STARTCHAR uni504C
ENCODING 20556
BBX 23 20 0 -1
BITMAP
010060
019C70
01CC60
03CCFC
03FFFC
077EC0
0E06C0
0E0780
1E07BC
3E3FFE
67FFE6
C60E00
061C70
063FF8
063E3C
066C38
068C70
070FF0
060FE0
000400
ENDCHAR
STARTCHAR uni504E
ENCODING 20558
BBX 24 20 1 -1
BITMAP
0401E0
07DFF0
077E70
0777F0
0E7FE0
0E3EE0
1C3FE0
1C3FD0
3C31F8
3EFFF8
6FFC30
CE7678
8E37E0
0E33C0
0E31E0
0E36F8
0E7C7F
0E7818
0C7000
042000
ENDCHAR
STARTCHAR uni504F
ENCODING 20559
BBX 22 21 1 -1
BITMAP
001000
031E00
030E00
078600
0703C0
0E7FE0
0E7DC0
1C71C0
1C7FE0
3C7F00
6C7078
CC67FC
8C7F9C
0CED9C
0CEDDC
0DFFFC
0D6D98
1E6D98
1C6D78
0C6138
000030
ENDCHAR
STARTCHAR uni5055
ENCODING 20565
BBX 23 22 1 -2
BITMAP
060380
0701C0
07E1D0
0771B8
0F71F8
0E7FE4
1C7D84
1C618E
3C6FFE
7CF8FE
6EF770
8EC700
0E2FE0
0E3FF0
0E3060
0E37E0
0E3F60
0E3860
0E3FE0
0C3F60
001060
000040
ENDCHAR
STARTCHAR uni505A
ENCODING 20570
BBX 24 20 1 -1
BITMAP
064180
0771C0
0779C0
0771C0
0E7180
0E7BBC
1C7FFC
1FFBE0
3DE670
3C6470
6C7E60
CFFFE0
0DFDE0
0D99C0
0DB9E0
0DFBF0
0C877C
1C0C3F
0C301F
040000
ENDCHAR
STARTCHAR uni505C
ENCODING 20572
BBX 22 22 2 -2
BITMAP
001E00
060E00
0707E0
077FE0
0E7800
0E7FC0
1C3DC0
1C3780
3C3F80
3C93F8
6DFFFC
8DF03C
0F87E0
0FFFC0
0DF600
1C0600
1C0600
1C0600
1C3E00
1C1E00
080E00
000400
ENDCHAR
STARTCHAR uni5065
ENCODING 20581
BBX 24 21 1 -1
BITMAP
000400
020700
030700
038300
0703E0
071FF0
0FFF7C
0FE3FC
1D7F60
1CE3E0
3CDFE0
7CDFE0
4CFFE0
8C6F60
0C7FF0
0FFF00
0CF300
1CFF00
1D9FE0
0E07FF
0C01F8
ENDCHAR
STARTCHAR uni506C
ENCODING 20588
BBX 22 20 1 -1
BITMAP
031C00
031C00
079C70
073FF8
0F3738
0E7FB8
1C7DB8
1C9FF0
3E37F0
662760
C64EE0
061BC0
06ADF8
0EE71C
0EE70C
0FD340
0F9C30
0C0FFC
0C07FC
0000E0
ENDCHAR
STARTCHAR uni5076
ENCODING 20598
BBX 22 20 1 0
BITMAP
040000
060000
0701E0
07FFF0
0E7E70
0E67F0
0E7FF0
1C7E60
1C3FE0
3E3FE0
7E3678
6E9FFC
CEFE1C
0EC7DC
0EC7FC
0EFEFC
0CD85C
0CC0FC
0CC078
0C4038
ENDCHAR
STARTCHAR uni5077
ENCODING 20599
BBX 23 22 2 -2
BITMAP
001C00
061E00
071C00
079E00
073F00
0E3B80
0E73E0
1CE7F8
1CFFFE
3DB8F0
6E10E0
4DFEE0
8DDBE0
0DFBE0
0DFBE0
1DBBE0
1DFFE0
1D9AE0
1DF8E0
1DBBE0
0C19C0
0000C0
ENDCHAR
STARTCHAR uni507B
ENCODING 20603
BBX 23 21 1 -1
BITMAP
000400
030700
038760
03E770
07BB60
071B80
0F03F0
0E7FF0
1C3F80
3E1BE0
363F78
662F3E
864E88
060FFE
07FFFE
0679C0
0E1F80
0E07E0
0E0FF8
0E3878
04C018
ENDCHAR
STARTCHAR uni507E
ENCODING 20606
BBX 22 22 2 -2
BITMAP
040E00
060700
0707C0
0F3FE0
0E7E80
0E67C0
1C75FC
187FFC
3FFD80
3C3100
6C7FC0
8C7FE0
0C6CE0
0C6EE0
0C7EE0
0C7EC0
1C6EC0
1C6CC0
1C1DC0
1C39E0
0CE0E0
000060
ENDCHAR
STARTCHAR uni507F
ENCODING 20607
BBX 23 22 1 -2
BITMAP
000C00
060E00
030740
0386F0
07F6F0
0777C0
073738
0E47FC
0EFFBE
1EE030
1FC7A0
37FFC0
661C10
8607FC
07FFFC
07FE00
061EC0
0E38F0
0E7FF0
0EFE70
0E7030
040000
ENDCHAR
STARTCHAR uni5080
ENCODING 20608
BBX 24 21 1 -1
BITMAP
000600
020700
030F00
038E00
038C00
071FF0
07FFF0
0EEE70
0E6FE0
1E7FE0
1E6EE0
366FC0
667CC0
862FE0
061FF0
0E3EBC
0E37DE
0E6686
0F870F
0E07FF
0E01FC
ENDCHAR
STARTCHAR uni5085
ENCODING 20613
BBX 24 22 1 -2
BITMAP
000E38
02073C
0307DC
03BFC0
03BE00
0707F0
077FF0
0E77F0
0E7FF0
1E77F0
3E3FF0
3737A0
6736E0
8703FE
07FFFF
07FEE0
070EE0
0706E0
0706E0
0701E0
0201E0
0000C0
ENDCHAR
STARTCHAR uni5088
ENCODING 20616
BBX 23 20 1 -1
BITMAP
0303C0
03FFC0
07BF00
071FB0
079FF8
0EFF78
0C6B70
1E7FF0
3E7E60
366700
4607F8
86FFFC
067F00
061FC0
063EE0
0676F8
0EC67E
0E0600
060600
000200
ENDCHAR
STARTCHAR uni508D
ENCODING 20621
BBX 23 21 1 -1
BITMAP
000E00
030700
038300
03C1F0
03BFF0
073CE0
0E3DC0
0E1D9C
1E47FE
1E7FBE
36C720
66C370
86CFF8
067F80
062700
0E0FE0
0E1FE0
0E38E0
0E65C0
0687C0
000380
ENDCHAR
STARTCHAR uni50A3
ENCODING 20643
BBX 24 22 1 -2
BITMAP
001800
041E00
0E1C00
0F3F80
0EFF00
0E1F00
1CFF80
1CFC00
383FF0
3BFFF0
7BE300
5CFDC0
9CCFF0
1DCDFC
1F6FFF
1E7E10
1CEFC0
1DCDE0
1DCCE0
1C3C60
181C00
001800
ENDCHAR
STARTCHAR uni50A5
ENCODING 20645
BBX 23 20 1 -1
BITMAP
070E00
030700
078770
077770
0F3EE0
0E3E80
1CC7FC
1CFFDE
3FE19C
37FFE0
66B1E0
C619C0
061FC0
061B80
0E0F80
0E1F84
0E398C
0E718E
0EC1FE
0000F8
ENDCHAR
STARTCHAR uni50A7
ENCODING 20647
BBX 23 20 1 -1
BITMAP
020F00
030700
038310
07A3FC
077FDC
0EE1B0
0EE3E0
1C6700
3E3840
361BF0
661FC0
8619C0
0E19BC
0E7FFE
0FFFC2
0E18E0
0E3C78
0E3838
046038
018000
ENDCHAR
STARTCHAR uni50A8
ENCODING 20648
BBX 23 20 2 -1
BITMAP
040600
060700
070760
0FC770
0EEFF0
1C7FE0
1C06C0
38C7FC
3FCFFE
6FFF00
CCC700
0CDFE0
0CEF70
0DFC70
1DCFE0
1D8C60
1C8C60
1C0FE0
180C60
000460
ENDCHAR
STARTCHAR uni50A9
ENCODING 20649
BBX 24 20 1 -1
BITMAP
000300
060380
0703C0
0F2360
0EFF30
0FF63C
1C37FC
1DFEF0
38EE7C
3CFFFC
6CF670
CCF67C
8CF7F8
1DB670
1F167E
1E07FF
1C0680
1C0E00
180E00
000600
ENDCHAR
STARTCHAR uni50AC
ENCODING 20652
BBX 22 22 1 -2
BITMAP
000600
030720
03E730
07B738
0737F0
067FF0
0E7BA0
0E3D80
1E1CF8
3E3FF8
3677C0
467BF0
86DFC0
0719F0
061FF0
0619D8
0E1BFC
0E3FF8
0E3800
063800
003800
001000
ENDCHAR
STARTCHAR uni50B2
ENCODING 20658
BBX 24 20 2 -1
BITMAP
006100
0671C0
0771C0
0771C0
077D80
0FFF80
0EFB78
1DFBF8
3DF4C0
3C7CE0
6FFCE0
CFE6C0
0CF3C0
0CFBC0
0DB9C0
0F33E0
1F77F0
1CEE7C
1CF03F
080000
ENDCHAR
STARTCHAR uni50BA
ENCODING 20666
BBX 24 20 1 -1
BITMAP
021000
031830
0399F8
03BFF8
073F38
0777E0
0E7EC0
1CEE60
1EBC78
361FFC
663F9F
8661E0
06FFF0
071F00
0613E0
063378
0E7338
0E7F18
060700
000200
ENDCHAR
STARTCHAR uni50BB
ENCODING 20667
BBX 22 20 2 -1
BITMAP
000C00
061E00
071840
0717E0
0EFEE0
0EE7E0
0CFEE0
1C6FC0
1C7FC0
3C7FC0
2C79C0
4C7CE0
8CFF60
0DBF80
0C7700
0CFF00
0DCF00
1F1FC0
0C73FC
0D80F0
ENDCHAR
STARTCHAR uni50CF
ENCODING 20687
BBX 24 22 1 -2
BITMAP
001000
001C00
061980
073F80
073700
0667E0
0EFFE0
0CEEE0
1CEFC0
1E7FC0
3678C0
3678E0
46FDC0
873E00
066F80
0EDFE0
0F3EFC
0E667F
0EC610
0F1E00
000E00
000C00
ENDCHAR
STARTCHAR uni50D6
ENCODING 20694
BBX 22 22 2 -2
BITMAP
000C00
060E00
070E00
078FE0
07FFE0
0E7600
0E0FC0
1C7FC0
1C0180
3C7FC0
3C7180
4C3FC0
8C71C0
0C3BB8
0C3FFC
0FFE00
0C47C0
0C7FE0
0C70C0
0C3FC0
0C3C00
001000
ENDCHAR
STARTCHAR uni50DA
ENCODING 20698
BBX 25 23 0 -2
BITMAP
00040000
00070000
03070000
03870000
0387E000
03FFE000
073E3800
078FF000
0EFDC000
0E78F000
1E39FC00
1E3FFF80
3678FF00
479FE000
8618C000
061FC000
061EC000
0E278000
0E677800
0EE73800
06FF1800
000F0000
00060000
ENDCHAR
STARTCHAR uni50E6
ENCODING 20710
BBX 25 20 0 -1
BITMAP
00380000
03186000
03987000
038E7000
07FE6E00
07F86600
0E046600
0E3E6800
1EFE7C00
1ECDF800
366C6000
467EF000
8678F800
065CF800
06DFF100
07DFB100
06DDB180
0E7B3F80
0E3A1F80
061C0F00
ENDCHAR
STARTCHAR uni50E7
ENCODING 20711
BBX 22 21 2 -1
BITMAP
0000C0
0640E0
0739E0
073980
071A70
0F1FF8
0FFE3C
1CCEF8
1EF7B8
3ED738
36DFF0
667E70
8643C0
067FE0
0E30E0
0E37E0
0E3FE0
0E30E0
0E3FE0
0E3FE0
0430C0
ENDCHAR
STARTCHAR uni50EC
ENCODING 20716
BBX 22 20 2 -1
BITMAP
061300
071BC0
071DC0
0738E0
0E3FF0
0E37C0
1C71A0
1C7FF0
3CB780
3F31E0
6E3FF0
8E3580
0E37F8
0E3FF8
0E3000
0E4230
0E59DC
0CDDDC
0DCC8C
048000
ENDCHAR
STARTCHAR uni50ED
ENCODING 20717
BBX 24 19 1 0
BITMAP
020030
033FF8
07F9C0
0719B0
07D9B8
0EFFF8
0DF1F0
1CF8F2
367FB2
26DD33
479BFF
863FFE
0638E0
0636C0
0E3FC0
0E30C0
0E37C0
0E3FC0
0630C0
ENDCHAR
STARTCHAR uni50EE
ENCODING 20718
BBX 22 20 2 -1
BITMAP
021C00
030E00
0785C0
07BFC0
077F00
0E31C0
0C3BFC
1C3FFC
1FF800
3E0FC0
6E7CE0
CE67C0
0E3EC0
0E37C0
0E3F80
0E07C0
0E7FC0
0E0600
0E7FF0
04F810
ENDCHAR
STARTCHAR uni50F3
ENCODING 20723
BBX 22 20 2 -1
BITMAP
000380
047F80
0E7E00
0F7740
0F3FE0
1DFEF0
1DB6E0
39FFC0
39F8C0
781D80
58ED00
986FE0
1BFFE0
19BE00
187F80
18CDE0
199CFC
1A1C00
181C00
001C00
ENDCHAR
STARTCHAR uni50F5
ENCODING 20725
BBX 21 20 3 -1
BITMAP
000700
047F80
063000
070FC0
0EFCE0
0CEFE0
1C7CC0
186FC0
387DA0
6C0FF8
4FFE00
880F80
08FCC0
186FC0
187DC0
186F80
187D80
181FE0
18FFE0
080000
ENDCHAR
STARTCHAR uni50FB
ENCODING 20731
BBX 22 22 2 -2
BITMAP
040380
0601C0
0711C0
0FF8B0
0FF9F8
0CDFE0
1CFC70
3DFB60
3DF358
6D81FC
CDB7F8
8DF9C0
0DD8F8
0FDFFC
1EF7C0
1EF8C0
1CC0C0
1C00C0
1C00C0
0800C0
0000C0
000080
ENDCHAR
STARTCHAR uni5106
ENCODING 20742
BBX 24 18 1 0
BITMAP
003080
1F30C0
1F30C0
1B3DC0
3FFDC0
37A190
3161F8
7341E0
737B60
77FE70
B41B60
3FF9E0
36D8E0
33F8E0
3319F0
30BB3C
30761F
307800
ENDCHAR
STARTCHAR uni5107
ENCODING 20743
BBX 24 20 1 -1
BITMAP
0007E0
06FF70
076B60
076BE0
0E3FC0
0E31F8
1C1FF0
18F880
3C0FC0
2C38C0
4C17C0
8C1C70
0C3BE0
0C3B80
0C7DE0
0CD8F8
0D1E7E
0E1C3D
0C3C00
001800
ENDCHAR
STARTCHAR uni510B
ENCODING 20747
BBX 22 22 1 -2
BITMAP
000600
030700
0386E0
038FF0
078CC0
0711F8
063FF0
0C32F0
1E3770
1E3D90
3630FC
663FFC
867040
0663E0
066070
0667F0
06C030
0ECFF8
0E8638
0706F8
0007C0
000200
ENDCHAR
STARTCHAR uni5112
ENCODING 20754
BBX 23 20 2 -1
BITMAP
0307E0
03BFE0
079E10
0707FC
077FDE
0EF7F8
1DF6C0
1CDFC0
3676C0
6632C0
C61FE0
0E3E00
0E0FF8
0EFFDC
0EFD9C
0EDF9C
0EDBB8
0EDB78
044338
000030
ENDCHAR
STARTCHAR uni5121
ENCODING 20769
BBX 22 18 2 0
BITMAP
060080
077FC0
077CE0
076FE0
0E7FC0
0E6DC0
1C3FC0
1C2180
3C0038
6EFFFC
8DFEDC
0D7ADC
0DFBF8
0DFBD8
0DFBF8
0DDBF8
0C1318
040000
ENDCHAR
STARTCHAR uni513F
ENCODING 20799
BBX 22 19 2 0
BITMAP
002000
003800
003C00
071C00
07BC00
03BC00
03B800
033800
033800
033800
033800
073800
073810
073818
0E3818
0E3C3C
1C1FFC
301FFC
C007F0
ENDCHAR
STARTCHAR uni5140
ENCODING 20800
BBX 22 17 2 1
BITMAP
000180
000FC0
01FFC0
1FF800
3F9E00
03DE00
039C00
039C00
039C00
071C00
071C08
0E1C08
0E1C18
1C1C18
181FFC
201FFC
C00FF8
ENDCHAR
STARTCHAR uni5141
ENCODING 20801
BBX 22 21 2 -1
BITMAP
008000
00E000
00F000
01E000
01E000
03D800
038F00
071F00
0FF780
1FE300
1F3800
0FB800
03F800
07B800
073808
073808
0E3818
1C381C
383C3C
601FFC
800FF8
ENDCHAR
STARTCHAR uni5143
ENCODING 20803
BBX 23 19 2 0
BITMAP
000C00
007E00
07FE00
03F000
000000
000780
007FC0
0FFE00
1FF800
0FBC00
03F800
07B800
073808
0F3808
0E3018
1C301C
38387E
603FFC
801FF8
ENDCHAR
STARTCHAR uni5144
ENCODING 20804
BBX 23 20 2 -1
BITMAP
000F00
0DFF80
0FFF80
0F0780
060700
060700
070600
07FF00
07FF00
031800
031C00
039C00
039C08
079C08
071C18
0E1C1C
1C1C3E
301FFC
C00FF8
0001C0
ENDCHAR
STARTCHAR uni5145
ENCODING 20805
BBX 22 21 2 -1
BITMAP
00E000
007000
007800
003000
000780
01FFC0
0FFF00
06E000
01E800
038F00
067F00
1FF300
0F3900
07F800
03F810
07B808
073818
0E381C
1C387C
301FFC
C00FF0
ENDCHAR
STARTCHAR uni5146
ENCODING 20806
BBX 20 20 3 -1
BITMAP
006000
047000
077800
077800
077300
777780
3B7700
3B7E00
1F7800
077000
1F7E00
777F00
F77700
E67300
4E7020
0C7020
1C7070
383FF0
603FF0
800F80
ENDCHAR
STARTCHAR uni5148
ENCODING 20808
BBX 22 21 2 -1
BITMAP
007000
007800
023800
033800
07B700
07FF00
07FF00
06F000
0C3080
083FC0
07FFE0
3FF800
1FDC00
01F808
03B808
079808
0E181C
1C183C
381FFC
C00FFC
0001C0
ENDCHAR
STARTCHAR uni5149
ENCODING 20809
BBX 22 20 2 -1
BITMAP
00E000
00F200
007300
007780
0E7F80
0F7E00
077800
0363C0
007FC0
1FFFC0
3FF800
09FC00
03F800
03B810
073818
0E3818
1C381C
383FFC
601FFC
8007F0
ENDCHAR
STARTCHAR uni514B
ENCODING 20811
BBX 22 22 2 -2
BITMAP
006000
007000
007800
007000
007F00
07FF00
03E000
006000
007E00
07FF00
070F00
030E00
03FE00
03FC00
03F800
03F810
03B818
073818
0E383C
381FFC
E01FF8
000380
ENDCHAR
STARTCHAR uni514D
ENCODING 20813
BBX 21 21 3 -1
BITMAP
010000
01C000
01C000
03FC00
03FC00
07B800
067000
08DE00
07FF00
1FC700
19E600
1DFE00
1FFE00
0FE000
03F000
077020
0E7030
1C7030
387078
703FF8
801FF0
ENDCHAR
STARTCHAR uni5151
ENCODING 20817
BBX 21 21 3 -1
BITMAP
000800
000E00
0C1E00
0F1C00
073800
032000
007E00
1FFF00
0F8F00
0C0E00
0E1C00
0FFE00
07F000
077800
07F020
077030
0E7030
1C7030
3879F8
E03FF8
001FE0
ENDCHAR
STARTCHAR uni5154
ENCODING 20820
BBX 21 22 3 -2
BITMAP
010000
018000
03C000
03F800
03FC00
067800
0CE000
08DE00
37FF00
3FCF00
19EE00
19FE00
1FFE00
1FE000
0BFF00
037720
077330
0E7130
1C7078
383FF8
703FF0
800700
ENDCHAR
STARTCHAR uni5155
ENCODING 20821
BBX 21 19 3 0
BITMAP
002600
033F00
3FB780
3B3780
1BF700
1BB700
181F00
1FFE00
1FEE00
0E6400
033000
03B000
073020
073020
0E3030
1C3030
183878
303FF8
C01FF0
ENDCHAR
STARTCHAR uni5156
ENCODING 20822
BBX 20 21 3 -1
BITMAP
03C000
01E000
00E000
006380
00FFC0
3FFC00
3E1C00
074F00
077780
0CE180
19CC00
119E00
27F700
07F600
033A00
03B020
07B060
073070
0E38F0
383FF0
E01FE0
ENDCHAR
STARTCHAR uni515A
ENCODING 20826
BBX 20 23 3 -2
BITMAP
010000
01C000
01EE00
00EF00
1CCE00
0EDC00
06F380
20FFE0
3FFFE0
3E0380
70FE00
FFFE00
F71C00
663800
07FC00
07F000
03B800
03F820
07B060
073070
0E39F0
183FF0
701FC0
ENDCHAR
STARTCHAR uni515C
ENCODING 20828
BBX 20 22 4 -1
BITMAP
008000
00C000
00E000
01C000
0D7300
1FFF80
7F3FC0
73F380
33F380
333700
377F00
7BFF80
732000
677000
07F800
073800
0E3020
0E3060
183070
703FF0
C03FF0
000FC0
ENDCHAR
STARTCHAR uni5162
ENCODING 20834
BBX 24 21 1 -1
BITMAP
000400
060700
070780
070700
070720
07C7F0
1FBFC0
3E1F00
0687E0
07FFF0
3FFC70
39D8E0
19DBF0
1FDFE0
1B09C0
0FAFC0
1FEF82
1BDD82
3399C7
61B1FF
80C0FE
ENDCHAR
STARTCHAR uni5165
ENCODING 20837
BBX 24 16 1 1
BITMAP
078000
07C000
00E000
007000
00F000
00F800
01FC00
01DC00
03DE00
038F00
070F80
0E07C0
1C03E0
3803F8
6001FE
8000FF
ENDCHAR
STARTCHAR uni5168
ENCODING 20840
BBX 23 20 2 -1
BITMAP
00C000
01E000
01E000
01E000
03F000
03B800
073C00
0E1F00
0C0F80
18FFF0
3FFFFE
67E1E0
80E000
01FC00
0FFC00
02E000
00C000
00FF00
7FFF80
3C01C0
ENDCHAR
STARTCHAR uni516B
ENCODING 20843
BBX 24 15 1 2
BITMAP
00C000
01E000
007000
003800
001800
031C00
038E00
078E00
070F00
0F0780
0E07C0
1C03E0
3801F0
7001FC
C000FF
ENDCHAR
STARTCHAR uni516C
ENCODING 20844
BBX 22 19 2 0
BITMAP
00E000
007000
003800
063800
071C00
071E00
0F0F00
0E0780
1C07C0
38C3F0
31E1F8
61E0FC
83C000
039800
070E00
0E3F00
1FFF00
1F8700
1E0700
ENDCHAR
STARTCHAR uni516D
ENCODING 20845
BBX 20 18 3 0
BITMAP
01C000
00F000
007800
007800
001000
000000
00FFE0
FFFFF0
FF8070
000000
071800
078E00
0F8F00
1E0780
1C07C0
3003C0
4001C0
000080
ENDCHAR
STARTCHAR uni516E
ENCODING 20846
BBX 22 21 2 -1
BITMAP
00E000
007000
023800
031800
039E00
070F00
0E0780
1C03E0
183FF8
37FCFC
47E000
81C000
01CE00
03FF00
03CF00
010F00
001E00
019E00
00FC00
007C00
003800
ENDCHAR
STARTCHAR uni5170
ENCODING 20848
BBX 20 19 3 0
BITMAP
000800
000E00
0C0F00
070E00
038C00
039800
011000
01FF80
1FFFC0
0F8000
000000
001C00
0FFE00
07FE00
000000
000000
003FE0
FFFFF0
7FC7F0
ENDCHAR
STARTCHAR uni5171
ENCODING 20849
BBX 22 20 2 -1
BITMAP
000C00
030E00
03CF00
01CF00
01CE00
01CFC0
01FFE0
1FFFE0
07CE00
01CE00
01CE00
01FFF8
FFFFFC
7F0000
01C600
03C780
0783E0
0E01E0
1C00E0
200060
ENDCHAR
STARTCHAR uni5173
ENCODING 20851
BBX 22 20 2 -1
BITMAP
000E00
080F00
0F0F00
078E00
039C00
011600
01FF00
0FFF00
07E000
00F000
00FFE0
7FFFF0
7FF000
01F000
03F800
039C00
071F00
0E0F80
3C07E0
E003FC
ENDCHAR
STARTCHAR uni5174
ENCODING 20852
BBX 20 19 3 0
BITMAP
000600
000700
01C780
31E780
1EE700
0EE700
0F6E00
060C00
001800
007FF0
FFFFF0
FFC000
631800
078E00
078780
0F03C0
1E03C0
3801E0
6000C0
ENDCHAR
STARTCHAR uni5175
ENCODING 20853
BBX 22 21 2 -1
BITMAP
000600
000F00
001F80
047E00
07C000
038000
0383C0
03FFE0
03FFC0
038F00
038E00
038E00
03FFF8
FFFFFC
7F0000
038600
03C3C0
0781E0
0F01E0
1C00F0
200070
ENDCHAR
STARTCHAR uni5176
ENCODING 20854
BBX 20 22 3 -2
BITMAP
001800
061C00
079C00
039D80
03FFC0
1FFE00
0F1C00
037C00
03FC00
039C00
031C00
03FC00
03FC00
031CE0
3FFFF0
FFFFF0
620800
078E00
078780
0E0780
1C0380
300180
ENDCHAR
STARTCHAR uni5177
ENCODING 20855
BBX 22 20 2 -1
BITMAP
001E00
03FF00
038700
03B700
03FF00
038700
03FF00
03FF00
038600
01FE00
01FE00
018630
03FFF8
FFFFFC
718000
03CE00
03C780
0703C0
0C03C0
3000C0
ENDCHAR
STARTCHAR uni5178
ENCODING 20856
BBX 22 22 2 -2
BITMAP
001C00
011E00
01CE00
01EE00
00CC00
00DFC0
1FFFE0
0FCCE0
0ECDE0
0EFFC0
0FFFC0
06CDC0
06DD80
06FFF8
FFFFFC
FFE03C
030C00
07C780
0783C0
0F03E0
1C01E0
200040
ENDCHAR
STARTCHAR uni5179
ENCODING 20857
BBX 20 21 3 -1
BITMAP
000400
000F00
1E0F00
0F1C00
0718C0
007FF0
FFFFF0
FE0400
0C0F00
0E0F00
1D8D80
19D9C0
33FFC0
7FFF80
7F3700
6F06C0
1D8C60
39D9F0
7FFF70
7CDE30
700810
ENDCHAR
STARTCHAR uni517B
ENCODING 20859
BBX 22 24 2 -3
BITMAP
000E00
071E00
039C00
01BF80
1FFF00
0FE000
00FC00
0FFE00
07C000
01FFC0
7FFFE0
3F1C00
073F00
0F3F80
1F9FE0
339BFC
6398C0
839800
031800
071800
061800
181800
001800
001000
ENDCHAR
STARTCHAR uni517C
ENCODING 20860
BBX 22 23 2 -2
BITMAP
000400
0C0F00
070F00
039C00
013F00
0FFF80
0FF800
01BF00
1FFF80
0FBBB0
01BFF8
FFFFF8
7FBF00
01FF00
0FFF00
07B800
07BE00
0FBF00
1DBFC0
31BBF0
41B9FC
01B800
019000
ENDCHAR
STARTCHAR uni517D
ENCODING 20861
BBX 22 22 2 -2
BITMAP
000700
038780
03CF00
01DC00
083FC0
0FFFC0
0671C0
07FFC0
07FB80
073F80
03FF80
030310
007FF8
FFFFFC
7E0000
043F00
07FF80
030780
030700
03FF00
03FC00
018000
ENDCHAR
STARTCHAR uni5180
ENCODING 20864
BBX 20 22 3 -2
BITMAP
023000
03B900
019B80
1F9E40
199860
079FE0
7D9FC0
31FF00
0FE700
067F00
07E600
077E00
03FC00
03FF80
1FFF00
099BE0
1FFFF0
FFE0F0
43CE00
078700
1C0300
600100
ENDCHAR
STARTCHAR uni5181
ENCODING 20865
BBX 23 21 2 -1
BITMAP
020000
0301C0
633FE0
363CE0
3430C0
1FBFC0
F9BFC0
C9B6C0
7FB7F0
4B3F80
5F74B0
7867F8
0B7F80
7F7B30
F8D9E0
08D9C0
0998E0
1B1FF8
183C7E
083800
001000
ENDCHAR
STARTCHAR uni5182
ENCODING 20866
BBX 16 18 5 0
BITMAP
001C
8FFF
FFEF
6007
6007
6007
6007
6007
6007
6007
6007
E007
E007
E07F
E03F
400F
000E
0004
ENDCHAR
STARTCHAR uni5185
ENCODING 20869
BBX 16 22 5 -2
BITMAP
0300
03C0
03C0
03C0
039E
CFFF
FFFF
7387
6387
6307
67E7
6677
6E7F
6C37
7007
E007
E007
E07F
E01F
601F
000E
0004
ENDCHAR
STARTCHAR uni5188
ENCODING 20872
BBX 16 20 5 -1
BITMAP
001E
EFFF
FFFF
6847
6067
60F7
6EE7
67E7
63C7
63C7
E3E7
E7F7
E677
EC77
F007
E007
E03F
C00F
0007
0006
ENDCHAR
STARTCHAR uni5189
ENCODING 20873
BBX 24 23 1 -1
BITMAP
006000
003800
003800
003C00
003800
003F80
07FFC0
03B9C0
0339C0
03FFC0
03FFC0
0339C0
0339FE
07FFFF
FFFFFF
7B01C0
0301C0
0701C0
0701C0
070FC0
0707C0
0303C0
000180
ENDCHAR
STARTCHAR uni518C
ENCODING 20876
BBX 22 19 2 0
BITMAP
000100
00DFC0
0FFFC0
06FDC0
06CDC0
06CDC0
06CDC0
06DFF8
7FFFFC
FFFDC0
64DDC0
0CD9C0
0CD9C0
0CD9C0
0FD9C0
1BF1C0
11A7C0
214380
000380
ENDCHAR
ENDFONT
